<svg xmlns="http://www.w3.org/2000/svg" viewBox="0 0 512 512"><path d="M421 188.789V87.237C438.422 81.024 451 64.53 451 45c0-24.814-20.186-45-45-45-25.228 0-45 20.577-45 45 0 19.53 12.578 36.024 30 42.237v101.552l-63.252 63.252 34.834 69.668 26.836-13.418-25.166-50.332L406 216.211l41.748 41.748-25.166 50.332 26.836 13.418 34.834-69.668L421 188.789zm-278.881-87.275v-.015c-14.333-28.651-45.782-46.655-81.753-40.063C25.386 68.35 0 99.302 0 135c0 40.994 32.924 74.914 75 75 55.536 0 92.047-58.533 67.119-108.486zM90 150H60v-30h30v30zm391 332V360h-60v60h-30v-60h-60v122h-61v-30h-30v-63.749C220.92 407.783 194.392 420 165 420h-.059c-28.896-.064-55.556-11.797-74.941-31.679V452H60v60h452v-30h-31z"/><path d="M232.119 281.499l-39.322-78.635-72.107 26.371C106.859 235.939 93.107 240 75 240h-.059c-11.953-.026-23.45-2.245-34.305-5.989l57.244 114.49c12.774 25.547 38.438 41.44 67.12 41.499 56.149 0 91.62-59.31 67.119-108.501zm131.653-174.593C344.013 93.386 331 70.695 331 45c0-12.059 3.096-23.469 8.286-33.701L133.834 48.164c14.597 9.899 26.843 23.375 35.121 39.917 13.991 28.134 15.007 61.591 1.23 91.232l193.587-72.407z"/></svg>