<?xml version="1.0" encoding="UTF-8" standalone="no"?>
<!-- Generator: Adobe Illustrator 18.0.0, SVG Export Plug-In . SVG Version: 6.00 Build 0)  -->

<svg
   xmlns:dc="http://purl.org/dc/elements/1.1/"
   xmlns:cc="http://creativecommons.org/ns#"
   xmlns:rdf="http://www.w3.org/1999/02/22-rdf-syntax-ns#"
   xmlns:svg="http://www.w3.org/2000/svg"
   xmlns="http://www.w3.org/2000/svg"
   xmlns:sodipodi="http://sodipodi.sourceforge.net/DTD/sodipodi-0.dtd"
   xmlns:inkscape="http://www.inkscape.org/namespaces/inkscape"
   version="1.1"
   id="Capa_1"
   x="0px"
   y="0px"
   viewBox="0 0 58 60"
   xml:space="preserve"
   sodipodi:docname="001-rich.svg"
   width="58"
   height="60"
   inkscape:version="0.92.1 r15371"><metadata
     id="metadata45"><rdf:RDF><cc:Work
         rdf:about=""><dc:format>image/svg+xml</dc:format><dc:type
           rdf:resource="http://purl.org/dc/dcmitype/StillImage" /><dc:title></dc:title></cc:Work></rdf:RDF></metadata><defs
     id="defs43" /><sodipodi:namedview
     pagecolor="#ffffff"
     bordercolor="#666666"
     borderopacity="1"
     objecttolerance="10"
     gridtolerance="10"
     guidetolerance="10"
     inkscape:pageopacity="0"
     inkscape:pageshadow="2"
     inkscape:window-width="800"
     inkscape:window-height="480"
     id="namedview41"
     showgrid="false"
     inkscape:zoom="3.9335299"
     inkscape:cx="29.998501"
     inkscape:cy="29.998501"
     inkscape:window-x="0"
     inkscape:window-y="0"
     inkscape:window-maximized="0"
     inkscape:current-layer="Capa_1" /><g
     id="g8"
     transform="matrix(0.9988715,0,0,1.0000353,-0.96438374,8.8042205e-4)"
     style="stroke-width:1.00054705"><path
       d="m 49.031,32.997 c -0.669,0 -1.338,0.04 -1.998,0.111 -1.362,-2.82 -3.366,-5.301 -5.864,-7.214 L 33.967,21 c -1.191,-0.914 -3.068,-2.002 -5.246,-2.002 h -7.777 c -1.924,0 -3.816,0.655 -5.3,1.822 l -7.078,5.156 c -7.377,5.8 -9.712,15.964 -5.551,24.168 2.002,3.947 4.666,6.227 7.501,6.418 0.271,0.018 0.545,0.028 0.821,0.028 h 19.154 c 1.449,2.057 3.838,3.407 6.54,3.407 1.409,0 2.731,-0.369 3.882,-1.011 1.739,0.633 4.76,1.011 8.118,1.011 9.271,0 9.998,-2.22 10,-2.903 v -4 -10e-4 -3.999 -10e-4 -3.999 -10e-4 -3.999 -10e-4 -4 c 0,-2.029 -5.047,-4.096 -10,-4.096 z m -27,-5 c -5.271,0 -12,7.29 -12,13 0,0.552 -0.448,1 -1,1 -0.552,0 -1,-0.448 -1,-1 0,-6.869 7.589,-15 14,-15 0.552,0 1,0.448 1,1 0,0.552 -0.448,1 -1,1 z m 35,11.009 v 1.854 c -0.078,0.051 -0.191,0.107 -0.33,0.165 -0.008,0.003 -0.014,0.006 -0.022,0.009 -0.138,0.056 -0.307,0.114 -0.5,0.172 -0.019,0.006 -0.036,0.011 -0.055,0.017 -0.193,0.057 -0.415,0.114 -0.659,0.17 -0.032,0.007 -0.063,0.015 -0.095,0.022 -0.247,0.055 -0.519,0.109 -0.814,0.16 -0.042,0.007 -0.086,0.015 -0.129,0.022 -0.301,0.051 -0.626,0.098 -0.974,0.142 -0.048,0.006 -0.098,0.012 -0.146,0.018 -0.358,0.043 -0.738,0.082 -1.143,0.116 -0.048,0.004 -0.099,0.007 -0.148,0.011 -0.42,0.033 -0.86,0.06 -1.327,0.079 -0.036,10e-4 -0.074,0.002 -0.11,0.003 -0.491,0.018 -1.004,0.03 -1.546,0.03 -4.55,0 -7.353,-0.711 -8,-1.137 v -1.368 c 1.106,0.092 2.271,0.183 3.378,0.262 1.24,0.15 2.75,0.244 4.622,0.244 0.552,0 1.069,-0.009 1.562,-0.024 0.163,-0.005 0.309,-0.014 0.465,-0.02 0.318,-0.013 0.632,-0.027 0.925,-0.046 0.172,-0.011 0.331,-0.025 0.495,-0.038 0.253,-0.02 0.503,-0.041 0.737,-0.065 0.16,-0.017 0.312,-0.035 0.463,-0.054 0.214,-0.026 0.422,-0.053 0.619,-0.083 0.142,-0.021 0.28,-0.043 0.414,-0.066 0.186,-0.032 0.362,-0.065 0.532,-0.099 0.12,-0.024 0.24,-0.049 0.353,-0.075 0.164,-0.037 0.316,-0.077 0.465,-0.116 0.098,-0.026 0.199,-0.052 0.291,-0.079 0.148,-0.044 0.282,-0.089 0.415,-0.135 0.073,-0.026 0.153,-0.05 0.222,-0.076 0.012,-0.006 0.028,-0.01 0.04,-0.015 z m -6.439,4.967 c 0.164,-0.005 0.31,-0.014 0.468,-0.02 0.317,-0.013 0.632,-0.027 0.924,-0.046 0.171,-0.011 0.328,-0.025 0.49,-0.038 0.255,-0.02 0.507,-0.041 0.743,-0.066 0.158,-0.016 0.307,-0.035 0.456,-0.053 0.216,-0.026 0.427,-0.054 0.626,-0.084 0.139,-0.021 0.274,-0.042 0.406,-0.065 0.189,-0.032 0.369,-0.066 0.542,-0.101 0.117,-0.024 0.233,-0.047 0.343,-0.072 0.169,-0.038 0.325,-0.079 0.478,-0.12 0.094,-0.025 0.191,-0.05 0.279,-0.076 0.155,-0.046 0.296,-0.094 0.434,-0.142 0.067,-0.023 0.14,-0.046 0.203,-0.07 0.015,-0.006 0.033,-0.011 0.048,-0.016 v 1.854 c -0.078,0.051 -0.191,0.107 -0.33,0.165 -0.008,0.003 -0.014,0.006 -0.022,0.009 -0.138,0.056 -0.307,0.114 -0.5,0.172 -0.019,0.006 -0.036,0.011 -0.055,0.017 -0.193,0.057 -0.415,0.114 -0.659,0.17 -0.032,0.007 -0.063,0.015 -0.095,0.022 -0.247,0.055 -0.519,0.109 -0.814,0.16 -0.042,0.007 -0.086,0.015 -0.129,0.022 -0.301,0.051 -0.626,0.098 -0.974,0.142 -0.048,0.006 -0.098,0.012 -0.146,0.018 -0.358,0.043 -0.738,0.082 -1.143,0.116 -0.048,0.004 -0.099,0.007 -0.148,0.011 -0.42,0.033 -0.86,0.06 -1.327,0.079 -0.036,0.001 -0.074,0.002 -0.11,0.003 -0.491,0.018 -1.004,0.03 -1.546,0.03 -4.55,0 -7.353,-0.711 -8,-1.137 v -1.362 c 1.297,0.107 2.67,0.211 3.933,0.297 1.265,0.132 2.646,0.202 4.067,0.202 0.549,0.003 1.065,-0.006 1.558,-0.021 z m 0,4 c 0.164,-0.005 0.31,-0.014 0.468,-0.02 0.317,-0.013 0.632,-0.027 0.924,-0.046 0.171,-0.011 0.328,-0.025 0.49,-0.038 0.255,-0.02 0.507,-0.041 0.743,-0.066 0.158,-0.016 0.307,-0.035 0.456,-0.053 0.216,-0.026 0.427,-0.054 0.626,-0.084 0.139,-0.021 0.274,-0.042 0.406,-0.065 0.189,-0.032 0.369,-0.066 0.542,-0.101 0.117,-0.024 0.233,-0.047 0.343,-0.072 0.169,-0.038 0.325,-0.079 0.478,-0.12 0.094,-0.025 0.191,-0.05 0.279,-0.076 0.155,-0.046 0.296,-0.094 0.434,-0.142 0.067,-0.023 0.14,-0.046 0.203,-0.07 0.015,-0.006 0.033,-0.011 0.048,-0.016 v 1.854 c -0.078,0.051 -0.191,0.107 -0.33,0.165 -0.008,0.003 -0.014,0.006 -0.022,0.009 -0.138,0.056 -0.307,0.114 -0.5,0.172 -0.019,0.006 -0.036,0.011 -0.055,0.017 -0.193,0.057 -0.415,0.114 -0.659,0.17 -0.032,0.007 -0.063,0.015 -0.095,0.022 -0.247,0.055 -0.519,0.109 -0.814,0.16 -0.042,0.007 -0.086,0.015 -0.129,0.022 -0.301,0.051 -0.626,0.098 -0.974,0.142 -0.048,0.006 -0.098,0.012 -0.146,0.018 -0.358,0.043 -0.738,0.082 -1.143,0.116 -0.048,0.004 -0.099,0.007 -0.148,0.011 -0.42,0.033 -0.86,0.06 -1.327,0.079 -0.036,0.001 -0.074,0.002 -0.11,0.003 -0.491,0.018 -1.004,0.03 -1.546,0.03 -0.431,0 -0.856,-0.008 -1.276,-0.021 -0.133,-0.004 -0.263,-0.012 -0.395,-0.017 -0.284,-0.012 -0.567,-0.025 -0.843,-0.042 -0.15,-0.01 -0.297,-0.022 -0.444,-0.033 -0.252,-0.019 -0.501,-0.04 -0.744,-0.065 -0.148,-0.015 -0.293,-0.031 -0.437,-0.047 -0.064,-0.007 -0.125,-0.016 -0.188,-0.024 -0.219,-0.746 -0.544,-1.446 -0.958,-2.085 1.348,0.203 3.063,0.334 5.286,0.334 0.548,0.003 1.064,-0.006 1.557,-0.021 z m 0,4 c 0.164,-0.005 0.31,-0.014 0.468,-0.02 0.317,-0.013 0.632,-0.027 0.924,-0.046 0.171,-0.011 0.328,-0.025 0.49,-0.038 0.255,-0.02 0.507,-0.041 0.743,-0.066 0.158,-0.016 0.307,-0.035 0.456,-0.053 0.216,-0.026 0.427,-0.054 0.626,-0.084 0.139,-0.021 0.274,-0.042 0.406,-0.065 0.189,-0.032 0.369,-0.066 0.542,-0.101 0.117,-0.024 0.233,-0.047 0.343,-0.072 0.169,-0.038 0.325,-0.079 0.478,-0.12 0.094,-0.025 0.191,-0.05 0.279,-0.076 0.155,-0.046 0.296,-0.094 0.434,-0.142 0.067,-0.023 0.14,-0.046 0.203,-0.07 0.015,-0.006 0.033,-0.011 0.048,-0.016 v 1.854 c -0.078,0.051 -0.191,0.107 -0.33,0.165 -0.008,0.003 -0.014,0.006 -0.022,0.009 -0.138,0.056 -0.307,0.114 -0.5,0.172 -0.019,0.006 -0.036,0.011 -0.055,0.017 -0.193,0.057 -0.415,0.114 -0.659,0.17 -0.032,0.007 -0.063,0.015 -0.095,0.022 -0.247,0.055 -0.519,0.109 -0.814,0.16 -0.042,0.007 -0.086,0.015 -0.129,0.022 -0.301,0.051 -0.626,0.098 -0.974,0.142 -0.048,0.006 -0.098,0.012 -0.146,0.018 -0.358,0.043 -0.738,0.082 -1.143,0.116 -0.048,0.004 -0.099,0.007 -0.148,0.011 -0.42,0.033 -0.86,0.06 -1.327,0.079 -0.036,0.001 -0.074,0.002 -0.11,0.003 -0.491,0.018 -1.004,0.03 -1.546,0.03 -0.648,0 -1.279,-0.02 -1.898,-0.049 -0.145,-0.007 -0.289,-0.014 -0.432,-0.022 -0.602,-0.035 -1.191,-0.081 -1.746,-0.143 -0.015,-0.002 -0.028,-0.004 -0.043,-0.006 0.08,-0.454 0.12,-0.913 0.12,-1.372 0,-0.075 -0.007,-0.151 -0.009,-0.227 10e-4,-0.061 0.009,-0.12 0.009,-0.181 0,-0.066 -0.008,-0.13 -0.01,-0.196 0.815,0.084 1.687,0.131 2.577,0.161 0.406,0.022 0.861,0.035 1.433,0.035 0.548,0.003 1.064,-0.006 1.557,-0.021 z m 6.179,-14.979 c -0.011,0.005 -0.023,0.01 -0.035,0.015 -0.111,0.048 -0.24,0.097 -0.393,0.147 -0.016,0.005 -0.034,0.01 -0.05,0.015 -0.155,0.049 -0.329,0.099 -0.523,0.149 -0.02,0.005 -0.037,0.01 -0.057,0.015 -0.202,0.051 -0.427,0.1 -0.669,0.149 -0.043,0.009 -0.086,0.017 -0.13,0.026 -0.247,0.048 -0.512,0.094 -0.798,0.138 -0.04,0.006 -0.083,0.012 -0.124,0.018 -0.29,0.043 -0.596,0.083 -0.923,0.12 -0.02,0.002 -0.039,0.005 -0.059,0.007 -0.333,0.037 -0.691,0.068 -1.061,0.096 -0.068,0.005 -0.136,0.01 -0.205,0.015 -0.369,0.026 -0.755,0.047 -1.158,0.062 -0.072,0.003 -0.147,0.005 -0.221,0.007 -0.428,0.014 -0.869,0.023 -1.333,0.023 -0.464,0 -0.905,-0.009 -1.333,-0.023 -0.073,-0.002 -0.148,-0.004 -0.221,-0.007 -0.403,-0.015 -0.789,-0.036 -1.158,-0.062 -0.069,-0.005 -0.137,-0.01 -0.205,-0.015 -0.371,-0.028 -0.728,-0.06 -1.061,-0.096 -0.02,-0.002 -0.039,-0.005 -0.059,-0.007 -0.327,-0.037 -0.633,-0.077 -0.923,-0.12 -0.041,-0.006 -0.084,-0.012 -0.124,-0.018 -0.286,-0.044 -0.551,-0.09 -0.798,-0.138 -0.044,-0.009 -0.087,-0.017 -0.13,-0.026 -0.241,-0.049 -0.467,-0.099 -0.669,-0.149 -0.02,-0.005 -0.038,-0.01 -0.057,-0.015 -0.194,-0.05 -0.369,-0.1 -0.523,-0.149 -0.016,-0.005 -0.035,-0.01 -0.05,-0.015 -0.153,-0.05 -0.281,-0.099 -0.393,-0.147 -0.012,-0.005 -0.023,-0.01 -0.035,-0.015 0.927,-0.705 3.775,-1.997 7.74,-1.997 3.965,0 6.811,1.292 7.738,1.997 z M 31.883,55.064 C 31.708,54.771 31.561,54.468 31.439,54.157 31.431,54.135 31.423,54.113 31.415,54.091 31.3,53.785 31.208,53.473 31.145,53.154 31.141,53.132 31.139,53.11 31.135,53.088 31.08,52.793 31.05,52.493 31.041,52.191 31.04,52.15 31.035,52.109 31.035,52.067 c -0.003,-0.303 0.02,-0.609 0.063,-0.915 0.009,-0.065 0.018,-0.13 0.03,-0.195 0.045,-0.26 0.103,-0.517 0.182,-0.766 0.008,-0.027 0.02,-0.052 0.029,-0.078 0.084,-0.251 0.185,-0.496 0.302,-0.733 0.011,-0.023 0.022,-0.046 0.033,-0.068 0.54,-1.059 1.391,-1.954 2.424,-2.543 0.002,-10e-4 0.005,-0.003 0.007,-0.004 0.235,-0.134 0.483,-0.247 0.735,-0.347 0.062,-0.024 0.125,-0.046 0.188,-0.069 0.228,-0.082 0.461,-0.152 0.7,-0.205 0.026,-0.006 0.051,-0.014 0.077,-0.02 0.288,-0.059 0.577,-0.092 0.865,-0.109 0.061,-0.004 0.122,-0.007 0.183,-0.009 0.289,-0.009 0.576,-10e-4 0.861,0.032 0.027,0.003 0.053,0.009 0.081,0.012 0.295,0.038 0.587,0.096 0.875,0.179 0.009,0.003 0.018,0.004 0.027,0.007 0.305,0.089 0.605,0.203 0.897,0.342 2.03,0.963 3.441,3.026 3.441,5.419 0,3.309 -2.691,6 -6,6 -2.191,0 -4.103,-1.18 -5.152,-2.933 z m 25.148,1.796 c -0.648,0.427 -3.452,1.137 -8,1.137 -2.215,0 -4.3,-0.174 -5.858,-0.475 0.457,-0.546 0.838,-1.151 1.135,-1.802 0.09,0.011 0.187,0.019 0.279,0.03 0.149,0.018 0.301,0.033 0.453,0.049 0.266,0.027 0.536,0.052 0.811,0.073 0.159,0.012 0.316,0.025 0.477,0.036 0.297,0.019 0.599,0.034 0.904,0.047 0.143,0.006 0.284,0.014 0.429,0.019 0.451,0.014 0.907,0.023 1.37,0.023 0.551,0 1.068,-0.009 1.561,-0.024 0.164,-0.005 0.31,-0.014 0.468,-0.02 0.317,-0.013 0.632,-0.027 0.924,-0.046 0.171,-0.011 0.328,-0.025 0.49,-0.038 0.255,-0.02 0.507,-0.041 0.743,-0.066 0.158,-0.016 0.307,-0.035 0.456,-0.053 0.216,-0.026 0.427,-0.054 0.626,-0.084 0.139,-0.021 0.274,-0.042 0.406,-0.065 0.189,-0.032 0.369,-0.066 0.542,-0.101 0.117,-0.024 0.233,-0.047 0.343,-0.072 0.169,-0.038 0.325,-0.079 0.478,-0.12 0.094,-0.025 0.191,-0.05 0.279,-0.076 0.155,-0.046 0.296,-0.094 0.434,-0.142 0.067,-0.023 0.14,-0.046 0.203,-0.07 0.015,-0.006 0.033,-0.011 0.048,-0.016 v 1.856 z"
       id="path2"
       inkscape:connector-curvature="0"
       style="stroke-width:1.00054705" /><path
       d="m 32.031,16.304 v -2.307 c 0,-0.552 -0.448,-1 -1,-1 h -12 c -0.552,0 -1,0.448 -1,1 0,0.552 0.448,1 1,1 h 11 v 1 h -11 c -0.552,0 -1,0.448 -1,1 0,0.552 0.448,1 1,1 h 11.925 c 0.896,0.746 2,1.173 3.179,1.173 1.335,0 2.591,-0.521 3.536,-1.466 0.391,-0.391 0.391,-1.023 0,-1.414 -0.391,-0.391 -1.023,-0.391 -1.414,0 -1.13,1.129 -3.089,1.133 -4.226,0.014 z"
       id="path4"
       inkscape:connector-curvature="0"
       style="stroke-width:1.00054705" /><path
       d="m 18.086,10.027 c 0.407,1.178 1.504,1.97 2.73,1.97 h 7.431 c 1.226,0 2.323,-0.792 2.73,-1.97 C 31.365,8.901 32.584,6.382 33.53,5.582 34.359,4.879 34.748,3.79 34.544,2.74 34.344,1.707 33.623,0.891 32.616,0.558 29.617,-0.435 26.95,-0.1 24.918,1.525 c -0.357,0.287 -0.86,0.287 -1.22,0 -2.032,-1.625 -4.701,-1.96 -7.697,-0.967 -1.007,0.333 -1.729,1.148 -1.929,2.182 -0.204,1.05 0.185,2.139 1.014,2.842 1.07,0.907 2.71,3.605 3,4.445 z"
       id="path6"
       inkscape:connector-curvature="0"
       style="stroke-width:1.00054705" /></g><g
     id="g10"
     transform="translate(0,0.00299835)" /><g
     id="g12"
     transform="translate(0,0.00299835)" /><g
     id="g14"
     transform="translate(0,0.00299835)" /><g
     id="g16"
     transform="translate(0,0.00299835)" /><g
     id="g18"
     transform="translate(0,0.00299835)" /><g
     id="g20"
     transform="translate(0,0.00299835)" /><g
     id="g22"
     transform="translate(0,0.00299835)" /><g
     id="g24"
     transform="translate(0,0.00299835)" /><g
     id="g26"
     transform="translate(0,0.00299835)" /><g
     id="g28"
     transform="translate(0,0.00299835)" /><g
     id="g30"
     transform="translate(0,0.00299835)" /><g
     id="g32"
     transform="translate(0,0.00299835)" /><g
     id="g34"
     transform="translate(0,0.00299835)" /><g
     id="g36"
     transform="translate(0,0.00299835)" /><g
     id="g38"
     transform="translate(0,0.00299835)" /></svg>