<svg xmlns="http://www.w3.org/2000/svg" width="58" height="60"><path d="M48.011 32.999c-.668 0-1.336.04-1.995.111a20.088 20.088 0 0 0-5.858-7.214l-7.194-4.894C31.774 20.088 29.9 19 27.724 19h-7.768a8.616 8.616 0 0 0-5.294 1.822l-7.07 5.156c-7.369 5.8-9.701 15.964-5.545 24.169 2 3.947 4.66 6.227 7.493 6.418.27.018.544.028.82.028h19.132C30.94 58.65 33.326 60 36.025 60a7.926 7.926 0 0 0 3.877-1.011c1.737.633 4.755 1.011 8.11 1.011 9.26 0 9.986-2.22 9.988-2.903V37.096c0-2.03-5.041-4.097-9.989-4.097zm-26.97-5c-5.264 0-11.986 7.29-11.986 13a1 1 0 1 1-1.997 0c0-6.869 7.58-15 13.984-15a1 1 0 0 1 0 2zm34.961 11.01v1.853a2.13 2.13 0 0 1-.33.165l-.021.01a5.784 5.784 0 0 1-.5.171l-.055.017a11.21 11.21 0 0 1-.658.17l-.095.022c-.247.055-.518.11-.813.16l-.129.022c-.3.051-.625.098-.973.142l-.146.018a31.96 31.96 0 0 1-1.141.116l-.148.011c-.42.033-.86.06-1.326.08l-.11.002c-.49.018-1.002.03-1.544.03-4.545 0-7.344-.71-7.99-1.137v-1.368c1.104.092 2.268.183 3.373.262 1.24.15 2.747.244 4.617.244.552 0 1.068-.009 1.56-.024.163-.005.31-.014.465-.02.318-.013.631-.027.924-.046.172-.01.33-.025.494-.038a23.853 23.853 0 0 0 1.199-.119 20.837 20.837 0 0 0 1.563-.248 12.725 12.725 0 0 0 .817-.191c.098-.026.2-.052.291-.079a9.68 9.68 0 0 0 .415-.135c.072-.026.152-.05.221-.076.012-.006.028-.01.04-.015zm-6.431 4.966c.163-.005.31-.014.467-.02.317-.013.631-.027.923-.046.17-.01.328-.025.49-.038.254-.02.506-.04.742-.066.157-.016.306-.035.455-.053a21.306 21.306 0 0 0 1.03-.149c.19-.032.37-.066.542-.1.117-.025.233-.048.343-.073.169-.038.325-.079.477-.12.094-.025.191-.05.279-.076.155-.046.296-.094.434-.142.066-.023.14-.046.202-.07l.048-.016v1.854a2.13 2.13 0 0 1-.33.165l-.021.01a5.784 5.784 0 0 1-.5.171l-.055.017a11.21 11.21 0 0 1-.658.17l-.095.022c-.247.055-.518.11-.813.16l-.129.022c-.3.051-.625.098-.973.142l-.146.018a31.96 31.96 0 0 1-1.141.116c-.048.004-.1.007-.148.012-.42.033-.86.06-1.326.079l-.11.003c-.49.018-1.002.03-1.544.03-4.545 0-7.344-.712-7.99-1.138v-1.362c1.295.107 2.666.211 3.928.297 1.263.132 2.643.202 4.062.202.549.003 1.064-.006 1.557-.02zm0 4c.163-.004.31-.013.467-.02.317-.012.631-.026.923-.045.17-.011.328-.025.49-.038.254-.02.506-.041.742-.066.157-.016.306-.035.455-.053a21.306 21.306 0 0 0 1.03-.15c.19-.031.37-.065.542-.1.117-.024.233-.047.343-.072.169-.038.325-.08.477-.12.094-.025.191-.05.279-.076.155-.046.296-.094.434-.142.066-.023.14-.046.202-.07l.048-.016v1.854a2.13 2.13 0 0 1-.33.165l-.021.009a5.784 5.784 0 0 1-.5.172c-.019.006-.036.01-.055.017a11.21 11.21 0 0 1-.658.17l-.095.022c-.247.055-.518.109-.813.16l-.129.022c-.3.05-.625.098-.973.142l-.146.018a31.96 31.96 0 0 1-1.141.116l-.148.01c-.42.034-.86.06-1.326.08l-.11.003a41.098 41.098 0 0 1-2.819.009c-.132-.004-.262-.012-.394-.017a43.94 43.94 0 0 1-.842-.042c-.15-.01-.297-.022-.443-.033a27.438 27.438 0 0 1-1.18-.112c-.064-.007-.125-.016-.188-.024a7.956 7.956 0 0 0-.957-2.085c1.347.203 3.06.334 5.28.334.548.003 1.063-.006 1.556-.021zm0 4c.163-.004.31-.013.467-.02.317-.012.631-.026.923-.045.17-.011.328-.025.49-.038.254-.02.506-.041.742-.066.157-.016.306-.035.455-.053a21.306 21.306 0 0 0 1.03-.15c.19-.031.37-.065.542-.1.117-.024.233-.047.343-.072.169-.038.325-.08.477-.12.094-.025.191-.05.279-.076.155-.046.296-.094.434-.142.066-.023.14-.046.202-.07l.048-.016v1.854a2.13 2.13 0 0 1-.33.165l-.021.009a5.784 5.784 0 0 1-.5.172c-.019.006-.036.01-.055.017a11.21 11.21 0 0 1-.658.17l-.095.022c-.247.055-.518.109-.813.16l-.129.022c-.3.05-.625.098-.973.142l-.146.018a31.96 31.96 0 0 1-1.141.116l-.148.01c-.42.034-.86.06-1.326.08l-.11.003c-.49.018-1.002.03-1.544.03a40.313 40.313 0 0 1-2.327-.071 33.19 33.19 0 0 1-1.744-.143l-.043-.006c.08-.454.12-.913.12-1.372 0-.075-.007-.151-.01-.227.002-.061.01-.12.01-.181 0-.066-.008-.13-.01-.196a37.85 37.85 0 0 0 2.574.16c.405.023.86.036 1.431.036.548.003 1.063-.006 1.556-.021zm6.172-14.979l-.035.015a4.54 4.54 0 0 1-.393.147l-.05.015c-.155.05-.329.1-.522.15l-.057.014c-.202.051-.427.1-.669.15l-.13.025a20.58 20.58 0 0 1-.796.138l-.124.018c-.29.043-.596.083-.922.12l-.06.007a30.676 30.676 0 0 1-1.264.111c-.368.026-.754.047-1.156.062l-.221.007a40.421 40.421 0 0 1-2.663 0l-.221-.007a34.922 34.922 0 0 1-1.157-.062l-.204-.015c-.371-.028-.728-.06-1.06-.096l-.06-.007a26.857 26.857 0 0 1-.921-.12l-.124-.018a20.58 20.58 0 0 1-.797-.138l-.13-.026a16.5 16.5 0 0 1-.668-.149l-.057-.015c-.194-.05-.369-.1-.523-.149l-.05-.015a4.67 4.67 0 0 1-.392-.147l-.035-.015c.926-.705 3.77-1.997 7.731-1.997 3.96 0 6.804 1.292 7.73 1.997zm-24.86 18.07a6.136 6.136 0 0 1-.444-.906l-.024-.066a5.933 5.933 0 0 1-.27-.937l-.01-.066a5.85 5.85 0 0 1-.093-.897c-.001-.041-.006-.082-.006-.124-.003-.303.02-.61.063-.915a5.813 5.813 0 0 1 .212-.961c.007-.027.02-.052.028-.078a5.855 5.855 0 0 1 .335-.801 6.165 6.165 0 0 1 2.421-2.543l.007-.004c.235-.134.483-.247.734-.347l.188-.07a5.73 5.73 0 0 1 .7-.204l.076-.02a6.074 6.074 0 0 1 1.047-.118 5.87 5.87 0 0 1 .86.032c.027.003.053.009.081.012.295.038.586.096.874.179l.027.007c.305.089.604.203.896.342A6.003 6.003 0 0 1 42.022 52c0 3.309-2.688 6-5.993 6a5.992 5.992 0 0 1-5.146-2.933zm25.12 1.797C55.354 57.29 52.553 58 48.01 58c-2.212 0-4.295-.174-5.851-.475a7.939 7.939 0 0 0 1.134-1.802c.09.01.186.019.278.03.15.018.301.033.453.049.265.027.535.052.81.073.159.012.316.025.476.036.297.019.599.034.903.047.143.006.284.014.429.019a43.973 43.973 0 0 0 2.928-.001c.163-.005.31-.014.467-.02.317-.013.631-.027.923-.046.17-.011.328-.025.49-.038.254-.02.506-.041.742-.066.157-.016.306-.035.455-.053a21.306 21.306 0 0 0 1.03-.15c.19-.031.37-.065.542-.1.117-.024.233-.047.343-.072.169-.038.325-.08.477-.12.094-.025.191-.05.279-.076.155-.046.296-.094.434-.142.066-.023.14-.046.202-.07l.048-.016v1.856zM31.03 16.305v-2.307a1 1 0 0 0-.998-1H18.045a1 1 0 0 0 0 2h10.988v1H18.045a1 1 0 0 0 0 2h11.912c.895.747 1.997 1.174 3.175 1.174a4.96 4.96 0 0 0 3.532-1.466 1 1 0 0 0-1.412-1.415c-1.129 1.13-3.086 1.133-4.222.014zm-13.929-6.277c.407 1.178 1.503 1.97 2.727 1.97h7.423c1.224 0 2.32-.792 2.727-1.97.387-1.126 1.605-3.645 2.55-4.445a2.992 2.992 0 0 0 1.013-2.842A2.845 2.845 0 0 0 31.615.559c-2.996-.993-5.66-.658-7.69.967a.97.97 0 0 1-1.218 0C20.677-.1 18.01-.434 15.019.559a2.845 2.845 0 0 0-1.927 2.182 2.992 2.992 0 0 0 1.013 2.842c1.068.907 2.707 3.605 2.996 4.445z" stroke-width="1.001"/></svg>