<svg xmlns="http://www.w3.org/2000/svg" width="47" height="46.999"><path d="M44.595 2.137C44.595.957 43.638 0 42.459 0H5.074c-1.18 0-2.136.957-2.136 2.137 0 .789.432 1.47 1.068 1.84v24.608l2.136-1.953V4.273H41.39v23.499H13.861l-1.954 2.138h1.885l-3.84 14.402a2.135 2.135 0 1 0 4.128 1.1l3.85-14.437h11.671l3.851 14.437a2.137 2.137 0 0 0 4.129-1.1L33.74 29.909h8.72c.59 0 1.067-.478 1.067-1.068V3.977a2.125 2.125 0 0 0 1.068-1.84z"/><path d="M25.369 23.768v-8.011a2.137 2.137 0 0 0-4.272 0v8.011a2.137 2.137 0 1 0 4.272 0zm6.943 0V8.278a2.136 2.136 0 0 0-4.272 0v15.49a2.136 2.136 0 1 0 4.272 0zm6.942 0V12.551a2.136 2.136 0 1 0-4.273 0v11.217a2.137 2.137 0 1 0 4.273 0zm-21.337-4.333a.523.523 0 0 0-.737 0S2.88 32.508 2.811 32.577a1.39 1.39 0 0 0 1.965 1.965c.069-.067 13.141-14.368 13.141-14.368a.524.524 0 0 0 0-.739z"/></svg>