<svg xmlns="http://www.w3.org/2000/svg" width="408" height="512"><path d="M320.909 136.686L333.906 0 217.097 191.851h86.332l-15.213 134.308L408 136.686z" stroke-width="1.001"/><path d="M383.134 232.075l-69.628 110.139-69.73 110.299 14.694-129.738 11.433-100.924h-106.14l27.779-45.625 65.566-107.689L199.806 0 46.65 183.188c-66.496 79.535-61.343 196.798 11.873 270.167C97.537 492.452 148.672 512 199.806 512c51.135 0 102.27-19.548 141.284-58.645 59.299-59.423 73.943-147.635 42.044-221.28zM93.824 417.98c-26.563-26.619-42.102-61.99-43.755-99.597-1.652-37.607 10.724-74.21 34.847-103.065l22.948 19.266c-19.305 23.092-29.21 52.383-27.887 82.479 1.323 30.096 13.758 58.402 35.015 79.704z" stroke-width="1.001"/></svg>