<svg xmlns="http://www.w3.org/2000/svg" height="350" viewBox="0 -63 480 350" width="480"><path d="M72 127.91a23.827 23.827 0 0 0 19.684-10.053 23.53 23.53 0 0 0 2.828-21.82l77.175-51.165c9.422 5.764 21.598 4.276 29.336-3.581l71.258 25.767c1.106 9.306 7.606 17.101 16.602 19.91 8.992 2.804 18.805.1 25.066-6.907a23.694 23.694 0 0 0 3.93-25.564l79.433-72.388A23.778 23.778 0 0 0 408-15.273c13.254 0 24-10.685 24-23.863C432-52.315 421.254-63 408-63s-24 10.685-24 23.864a23.545 23.545 0 0 0 2.16 9.776l-79.433 72.387A23.775 23.775 0 0 0 296 40.409c-8.16.023-15.754 4.164-20.152 11l-68.078-24.61c.07-.796.23-1.51.23-2.299C208 11.321 197.254.636 184 .636S160 11.321 160 24.5a23.398 23.398 0 0 0 1.496 8.009L84.312 83.674A23.813 23.813 0 0 0 72 80.182c-13.254 0-24 10.685-24 23.864 0 13.178 10.746 23.863 24 23.863zm0 0"/><path d="M448 271.091V24.501c0-4.394-3.582-7.955-8-7.955h-64c-4.418 0-8 3.561-8 7.954v246.591h-32V119.955c0-4.393-3.582-7.955-8-7.955h-64c-4.418 0-8 3.562-8 7.955V271.09h-32V80.181c0-4.392-3.582-7.954-8-7.954h-64c-4.418 0-8 3.562-8 7.955V271.09h-32V159.727c0-4.393-3.582-7.954-8-7.954H40c-4.418 0-8 3.561-8 7.954v111.364H0V287h480v-15.909zm0 0"/></svg>