<svg xmlns="http://www.w3.org/2000/svg" width="222" height="286.5"><path d="M108.31 99.209a7.459 7.459 0 0 1 2.69-.143 7.458 7.458 0 0 1 2.688.143l57.08 13.78-6.2-60.653c-.392-3.826-3.608-6.835-7.448-6.835h-14.508V26.2c0-4.143-3.252-7.7-7.387-7.7h-17.57v-11c0-4.143-3.352-7.5-7.488-7.5-4.136 0-7.487 3.357-7.487 7.5v11H86.773c-4.136 0-8.052 3.558-8.052 7.7v19.3H64.876c-3.839 0-7.056 3.009-7.448 6.835l-6.202 60.654zM88.037 66.5h45.922c4.136 0 7.487 3.357 7.487 7.5s-3.351 7.5-7.487 7.5H88.038c-4.136 0-7.487-3.357-7.487-7.5s3.351-7.5 7.487-7.5zm128.499 206.961c-6.388 5.263-15.825 4.4-21.077-1.998l-.086.013c-2.228-2.719-4.924-3.976-7.593-3.976h-.007c-2.676 0-5.375 1.268-7.6 3.991-7.913 9.686-19.12 15-30.764 15.009h-.032c-11.629 0-22.828-5.407-30.73-15.045l-.08.021c-2.228-2.719-4.924-3.976-7.593-3.976h-.007c-2.676 0-5.374 1.268-7.597 3.99-.032.04-.065-.156-.098-.117-7.893 9.604-19.066 15.117-30.67 15.127h-.032c-11.629 0-22.828-5.402-30.73-15.039l-.11-.009c-2.216-2.704-4.91-3.952-7.581-3.952h-.003c-2.674 0-5.37 1.314-7.592 4.031-5.243 6.404-14.677 7.157-21.074 1.905a14.87 14.87 0 0 1-2.086-20.988c7.899-9.65 19.103-14.948 30.739-14.948h.017c11.629 0 22.829 5.28 30.73 14.917l.11-.114c2.215 2.704 4.91 4.196 7.58 4.196h.007c1.113-.001 2.227-.275 3.312-.774L2.835 150.294c-1.182-2.045-1.343-4.708-.435-6.901.931-2.25 2.872-3.867 5.235-4.438l95.044-22.932v121.889c2.995-.571 5.583-.412 8.26-.412h.032c2.707 0 5.683-.158 7.68.423v-121.9l95.376 22.994c2.364.571 4.555 2.251 5.486 4.501.906 2.193.789 4.731-.394 6.776l-73.045 105.45c1.075.489 2.2.756 3.3.756h.007c2.677-.002 5.375-1.268 7.6-3.991 7.913-9.686 19.12-15.009 30.764-15.009h.032c11.63 0 22.828 5.29 30.73 14.927l.08-.138c5.257 6.399 4.338 15.91-2.05 21.172z"/><path d="M108.31 99.209a7.459 7.459 0 0 1 2.69-.143 7.458 7.458 0 0 1 2.688.143l57.08 13.78-6.2-60.653c-.392-3.826-3.608-6.835-7.448-6.835h-14.508V26.2c0-4.143-3.252-7.7-7.387-7.7h-17.57v-11c0-4.143-3.352-7.5-7.488-7.5-4.136 0-7.487 3.357-7.487 7.5v11H86.773c-4.136 0-8.052 3.558-8.052 7.7v19.3H64.876c-3.839 0-7.056 3.009-7.448 6.835l-6.202 60.654zM88.037 66.5h45.922c4.136 0 7.487 3.357 7.487 7.5s-3.351 7.5-7.487 7.5H88.038c-4.136 0-7.487-3.357-7.487-7.5s3.351-7.5 7.487-7.5zm128.499 206.961c-6.388 5.263-15.825 4.4-21.077-1.998l-.086.013c-2.228-2.719-4.924-3.976-7.593-3.976h-.007c-2.676 0-5.375 1.268-7.6 3.991-7.913 9.686-19.12 15-30.764 15.009h-.032c-11.629 0-22.828-5.407-30.73-15.045l-.08.021c-2.228-2.719-4.924-3.976-7.593-3.976h-.007c-2.676 0-5.374 1.268-7.597 3.99-.032.04-.065-.156-.098-.117-7.893 9.604-19.066 15.117-30.67 15.127h-.032c-11.629 0-22.828-5.402-30.73-15.039l-.11-.009c-2.216-2.704-4.91-3.952-7.581-3.952h-.003c-2.674 0-5.37 1.314-7.592 4.031-5.243 6.404-14.677 7.157-21.074 1.905a14.87 14.87 0 0 1-2.086-20.988c7.899-9.65 19.103-14.948 30.739-14.948h.017c11.629 0 22.829 5.28 30.73 14.917l.11-.114c2.215 2.704 4.91 4.196 7.58 4.196h.007c1.113-.001 2.227-.275 3.312-.774L2.835 150.294c-1.182-2.045-1.343-4.708-.435-6.901.931-2.25 2.872-3.867 5.235-4.438l95.044-22.932v121.889c2.995-.571 5.583-.412 8.26-.412h.032c2.707 0 5.683-.158 7.68.423v-121.9l95.376 22.994c2.364.571 4.555 2.251 5.486 4.501.906 2.193.789 4.731-.394 6.776l-73.045 105.45c1.075.489 2.2.756 3.3.756h.007c2.677-.002 5.375-1.268 7.6-3.991 7.913-9.686 19.12-15.009 30.764-15.009h.032c11.63 0 22.828 5.29 30.73 14.927l.08-.138c5.257 6.399 4.338 15.91-2.05 21.172z"/></svg>