<?xml version="1.0" encoding="UTF-8" standalone="no"?>
<!-- Generator: Adobe Illustrator 19.0.0, SVG Export Plug-In . SVG Version: 6.00 Build 0)  -->

<svg
   xmlns:dc="http://purl.org/dc/elements/1.1/"
   xmlns:cc="http://creativecommons.org/ns#"
   xmlns:rdf="http://www.w3.org/1999/02/22-rdf-syntax-ns#"
   xmlns:svg="http://www.w3.org/2000/svg"
   xmlns="http://www.w3.org/2000/svg"
   xmlns:sodipodi="http://sodipodi.sourceforge.net/DTD/sodipodi-0.dtd"
   xmlns:inkscape="http://www.inkscape.org/namespaces/inkscape"
   version="1.1"
   id="Capa_1"
   x="0px"
   y="0px"
   viewBox="0 0 408 512"
   xml:space="preserve"
   sodipodi:docname="002-hydro-power.svg"
   width="408"
   height="512"
   inkscape:version="0.92.1 r15371"><metadata
     id="metadata49"><rdf:RDF><cc:Work
         rdf:about=""><dc:format>image/svg+xml</dc:format><dc:type
           rdf:resource="http://purl.org/dc/dcmitype/StillImage" /><dc:title></dc:title></cc:Work></rdf:RDF></metadata><defs
     id="defs47" /><sodipodi:namedview
     pagecolor="#ffffff"
     bordercolor="#666666"
     borderopacity="1"
     objecttolerance="10"
     gridtolerance="10"
     guidetolerance="10"
     inkscape:pageopacity="0"
     inkscape:pageshadow="2"
     inkscape:window-width="1920"
     inkscape:window-height="1027"
     id="namedview45"
     showgrid="false"
     inkscape:zoom="0.4609375"
     inkscape:cx="256"
     inkscape:cy="256"
     inkscape:window-x="-8"
     inkscape:window-y="-8"
     inkscape:window-maximized="1"
     inkscape:current-layer="Capa_1" /><g
     id="g6"
     transform="matrix(0.99790798,0,0,1,-51.464775,0)"
     style="stroke-width:1.00104761"><g
       id="g4"
       style="stroke-width:1.00104761"><polygon
         points="373.154,136.686 386.179,0 269.125,191.851 355.638,191.851 340.393,326.159 460.428,136.686 "
         id="polygon2"
         style="stroke-width:1.00104761" /></g></g><g
     id="g12"
     transform="matrix(0.99790798,0,0,1,-51.464775,0)"
     style="stroke-width:1.00104761"><g
       id="g10"
       style="stroke-width:1.00104761"><path
         d="M 435.51,232.075 365.736,342.214 295.859,452.513 310.585,322.775 322.041,221.851 H 269.126 215.679 L 243.516,176.226 309.22,68.537 251.798,0 98.32,183.188 c -66.635,79.535 -61.471,196.798 11.898,270.167 39.096,39.097 90.338,58.645 141.58,58.645 51.242,0 102.484,-19.548 141.58,-58.645 59.423,-59.423 74.098,-147.635 42.132,-221.28 z M 145.594,417.98 c -26.619,-26.619 -42.191,-61.99 -43.847,-99.597 -1.656,-37.607 10.746,-74.21 34.92,-103.065 l 22.996,19.266 c -19.346,23.092 -29.271,52.383 -27.946,82.479 1.326,30.096 13.787,58.402 35.089,79.704 z"
         id="path8"
         inkscape:connector-curvature="0"
         style="stroke-width:1.00104761" /></g></g><g
     id="g14" /><g
     id="g16" /><g
     id="g18" /><g
     id="g20" /><g
     id="g22" /><g
     id="g24" /><g
     id="g26" /><g
     id="g28" /><g
     id="g30" /><g
     id="g32" /><g
     id="g34" /><g
     id="g36" /><g
     id="g38" /><g
     id="g40" /><g
     id="g42" /></svg>