<?xml version="1.0" encoding="UTF-8" standalone="no"?>
<!-- Generator: Adobe Illustrator 17.1.0, SVG Export Plug-In . SVG Version: 6.00 Build 0)  -->

<svg
   xmlns:dc="http://purl.org/dc/elements/1.1/"
   xmlns:cc="http://creativecommons.org/ns#"
   xmlns:rdf="http://www.w3.org/1999/02/22-rdf-syntax-ns#"
   xmlns:svg="http://www.w3.org/2000/svg"
   xmlns="http://www.w3.org/2000/svg"
   xmlns:sodipodi="http://sodipodi.sourceforge.net/DTD/sodipodi-0.dtd"
   xmlns:inkscape="http://www.inkscape.org/namespaces/inkscape"
   version="1.1"
   id="Capa_1"
   x="0px"
   y="0px"
   viewBox="0 0 222 286.5"
   xml:space="preserve"
   sodipodi:docname="002-ship.svg"
   width="222"
   height="286.5"
   inkscape:version="0.92.1 r15371"><metadata
     id="metadata39"><rdf:RDF><cc:Work
         rdf:about=""><dc:format>image/svg+xml</dc:format><dc:type
           rdf:resource="http://purl.org/dc/dcmitype/StillImage" /><dc:title></dc:title></cc:Work></rdf:RDF></metadata><defs
     id="defs37" /><sodipodi:namedview
     pagecolor="#ffffff"
     bordercolor="#666666"
     borderopacity="1"
     objecttolerance="10"
     gridtolerance="10"
     guidetolerance="10"
     inkscape:pageopacity="0"
     inkscape:pageshadow="2"
     inkscape:window-width="1920"
     inkscape:window-height="1027"
     id="namedview35"
     showgrid="false"
     inkscape:zoom="0.82373473"
     inkscape:cx="143.25"
     inkscape:cy="143.25"
     inkscape:window-x="-8"
     inkscape:window-y="-8"
     inkscape:window-maximized="1"
     inkscape:current-layer="Capa_1" /><path
     d="m 108.30943,99.209 c 0.89248,-0.216 1.80293,-0.255 2.69141,-0.143 0.88749,-0.112 1.79694,-0.072 2.68742,0.143 l 57.07973,13.78 -6.19944,-60.653 c -0.39233,-3.826 -3.60885,-6.835 -7.44831,-6.835 H 142.61197 V 26.2 c 0,-4.143 -3.25246,-7.7 -7.38741,-7.7 H 117.6545 v -11 c 0,-4.143 -3.35129,-7.5 -7.48724,-7.5 -4.13595,0 -7.48724,3.357 -7.48724,7.5 v 11 H 86.77313 c -4.135951,0 -8.052277,3.558 -8.052277,7.7 V 45.5 H 64.876447 c -3.839457,0 -7.055975,3.009 -7.448307,6.835 l -6.202429,60.654 z M 88.037975,66.5 h 45.921735 c 4.13596,0 7.48724,3.357 7.48724,7.5 0,4.143 -3.35128,7.5 -7.48724,7.5 H 88.037975 c -4.135952,0 -7.48724,-3.357 -7.48724,-7.5 0,-4.143 3.351288,-7.5 7.48724,-7.5 z M 216.53699,273.461 c -6.38812,5.263 -15.82504,4.4 -21.07708,-1.998 l -0.0859,0.013 c -2.2282,-2.719 -4.92361,-3.976 -7.59306,-3.976 -0.003,0 -0.004,0 -0.007,0 -2.67644,0 -5.37484,1.268 -7.59905,3.991 -7.91351,9.686 -19.12041,15 -30.76457,15.009 -0.011,0 -0.021,0 -0.0319,0 -11.62918,0 -22.8281,-5.407 -30.73063,-15.045 l -0.0799,0.021 c -2.22821,-2.719 -4.92361,-3.976 -7.59306,-3.976 -0.002,0 -0.004,0 -0.007,0 -2.67544,0 -5.37384,1.268 -7.59706,3.99 -0.0319,0.04 -0.0649,-0.156 -0.0978,-0.117 -7.892548,9.604 -19.065507,15.117 -30.669731,15.127 -0.01098,0 -0.02096,0 -0.03195,0 -11.629181,0 -22.828096,-5.402 -30.730628,-15.039 l -0.108815,-0.009 c -2.217221,-2.704 -4.911629,-3.952 -7.582078,-3.952 -9.99e-4,0 -0.002,0 -0.003,0 -2.673444,0 -5.368851,1.314 -7.592062,4.031 -5.243065,6.404 -14.676987,7.157 -21.0740851,1.905 -6.39510141,-5.252 -7.329509,-14.58 -2.085446,-20.988 C 11.293724,242.798 22.49763,237.5 34.1338,237.5 c 0.005,0 0.01198,0 0.01697,0 11.629181,0 22.829094,5.28 30.730628,14.917 l 0.108815,-0.114 c 2.216223,2.704 4.91163,4.196 7.58108,4.196 0.003,0 0.004,0 0.007,0 1.113103,-0.001 2.227205,-0.275 3.311357,-0.774 L 2.8351784,150.294 c -1.1819857,-2.045 -1.3427118,-4.708 -0.4352583,-6.901 0.9314127,-2.25 2.8721054,-3.867 5.2350784,-4.438 L 102.67902,116.023 v 121.889 c 2.9949,-0.571 5.58249,-0.412 8.25993,-0.412 0.011,0 0.022,0 0.0319,0 2.70739,0 5.68332,-0.158 7.67991,0.423 v -121.9 l 95.37646,22.994 c 2.36397,0.571 4.55524,2.251 5.48565,4.501 0.90646,2.193 0.78866,4.731 -0.39432,6.776 l -73.04452,105.45 c 1.07517,0.489 2.19925,0.756 3.30037,0.756 0.003,0 0.004,0 0.007,0 2.67644,-0.002 5.37484,-1.268 7.59905,-3.991 7.91352,-9.686 19.12042,-15.009 30.76457,-15.009 0.011,0 0.021,0 0.0319,0 11.62918,0 22.82809,5.29 30.73063,14.927 l 0.0799,-0.138 c 5.25704,6.399 4.33761,15.91 -2.0505,21.172 z"
     id="path2"
     inkscape:connector-curvature="0"
     style="stroke-width:1" /><g
     id="g4" /><g
     id="g6" /><g
     id="g8" /><g
     id="g10" /><g
     id="g12" /><g
     id="g14" /><g
     id="g16" /><g
     id="g18" /><g
     id="g20" /><g
     id="g22" /><g
     id="g24" /><g
     id="g26" /><g
     id="g28" /><g
     id="g30" /><g
     id="g32" /><path
     style="stroke-width:1"
     inkscape:connector-curvature="0"
     id="path41"
     d="m 108.30943,99.209 c 0.89248,-0.216 1.80293,-0.255 2.69141,-0.143 0.88749,-0.112 1.79694,-0.072 2.68742,0.143 l 57.07973,13.78 -6.19944,-60.653 c -0.39233,-3.826 -3.60885,-6.835 -7.44831,-6.835 H 142.61197 V 26.2 c 0,-4.143 -3.25246,-7.7 -7.38741,-7.7 H 117.6545 v -11 c 0,-4.143 -3.35129,-7.5 -7.48724,-7.5 -4.13595,0 -7.48724,3.357 -7.48724,7.5 v 11 H 86.77313 c -4.135951,0 -8.052277,3.558 -8.052277,7.7 V 45.5 H 64.876447 c -3.839457,0 -7.055975,3.009 -7.448307,6.835 l -6.202429,60.654 z M 88.037975,66.5 h 45.921735 c 4.13596,0 7.48724,3.357 7.48724,7.5 0,4.143 -3.35128,7.5 -7.48724,7.5 H 88.037975 c -4.135952,0 -7.48724,-3.357 -7.48724,-7.5 0,-4.143 3.351288,-7.5 7.48724,-7.5 z M 216.53699,273.461 c -6.38812,5.263 -15.82504,4.4 -21.07708,-1.998 l -0.0859,0.013 c -2.2282,-2.719 -4.92361,-3.976 -7.59306,-3.976 -0.003,0 -0.004,0 -0.007,0 -2.67644,0 -5.37484,1.268 -7.59905,3.991 -7.91351,9.686 -19.12041,15 -30.76457,15.009 -0.011,0 -0.021,0 -0.0319,0 -11.62918,0 -22.8281,-5.407 -30.73063,-15.045 l -0.0799,0.021 c -2.22821,-2.719 -4.92361,-3.976 -7.59306,-3.976 -0.002,0 -0.004,0 -0.007,0 -2.67544,0 -5.37384,1.268 -7.59706,3.99 -0.0319,0.04 -0.0649,-0.156 -0.0978,-0.117 -7.892548,9.604 -19.065507,15.117 -30.669731,15.127 -0.01098,0 -0.02096,0 -0.03195,0 -11.629181,0 -22.828096,-5.402 -30.730628,-15.039 l -0.108815,-0.009 c -2.217221,-2.704 -4.911629,-3.952 -7.582078,-3.952 -9.99e-4,0 -0.002,0 -0.003,0 -2.673444,0 -5.368851,1.314 -7.592062,4.031 -5.243065,6.404 -14.676987,7.157 -21.0740851,1.905 -6.39510141,-5.252 -7.329509,-14.58 -2.085446,-20.988 C 11.293724,242.798 22.49763,237.5 34.1338,237.5 c 0.005,0 0.01198,0 0.01697,0 11.629181,0 22.829094,5.28 30.730628,14.917 l 0.108815,-0.114 c 2.216223,2.704 4.91163,4.196 7.58108,4.196 0.003,0 0.004,0 0.007,0 1.113103,-0.001 2.227205,-0.275 3.311357,-0.774 L 2.8351784,150.294 c -1.1819857,-2.045 -1.3427118,-4.708 -0.4352583,-6.901 0.9314127,-2.25 2.8721054,-3.867 5.2350784,-4.438 L 102.67902,116.023 v 121.889 c 2.9949,-0.571 5.58249,-0.412 8.25993,-0.412 0.011,0 0.022,0 0.0319,0 2.70739,0 5.68332,-0.158 7.67991,0.423 v -121.9 l 95.37646,22.994 c 2.36397,0.571 4.55524,2.251 5.48565,4.501 0.90646,2.193 0.78866,4.731 -0.39432,6.776 l -73.04452,105.45 c 1.07517,0.489 2.19925,0.756 3.30037,0.756 0.003,0 0.004,0 0.007,0 2.67644,-0.002 5.37484,-1.268 7.59905,-3.991 7.91352,-9.686 19.12042,-15.009 30.76457,-15.009 0.011,0 0.021,0 0.0319,0 11.62918,0 22.82809,5.29 30.73063,14.927 l 0.0799,-0.138 c 5.25704,6.399 4.33761,15.91 -2.0505,21.172 z" /></svg>