<?xml version="1.0" encoding="UTF-8" standalone="no"?>
<svg
   xmlns:dc="http://purl.org/dc/elements/1.1/"
   xmlns:cc="http://creativecommons.org/ns#"
   xmlns:rdf="http://www.w3.org/1999/02/22-rdf-syntax-ns#"
   xmlns:svg="http://www.w3.org/2000/svg"
   xmlns="http://www.w3.org/2000/svg"
   xmlns:sodipodi="http://sodipodi.sourceforge.net/DTD/sodipodi-0.dtd"
   xmlns:inkscape="http://www.inkscape.org/namespaces/inkscape"
   height="350"
   viewBox="0 -63 480 350.00002"
   width="480"
   version="1.1"
   id="svg6"
   sodipodi:docname="002-business-and-finance.svg"
   inkscape:version="0.92.1 r15371">
  <metadata
     id="metadata12">
    <rdf:RDF>
      <cc:Work
         rdf:about="">
        <dc:format>image/svg+xml</dc:format>
        <dc:type
           rdf:resource="http://purl.org/dc/dcmitype/StillImage" />
        <dc:title></dc:title>
      </cc:Work>
    </rdf:RDF>
  </metadata>
  <defs
     id="defs10" />
  <sodipodi:namedview
     pagecolor="#ffffff"
     bordercolor="#666666"
     borderopacity="1"
     objecttolerance="10"
     gridtolerance="10"
     guidetolerance="10"
     inkscape:pageopacity="0"
     inkscape:pageshadow="2"
     inkscape:window-width="1920"
     inkscape:window-height="1027"
     id="namedview8"
     showgrid="false"
     units="px"
     inkscape:zoom="0.36875"
     inkscape:cx="320"
     inkscape:cy="320"
     inkscape:window-x="-8"
     inkscape:window-y="-8"
     inkscape:window-maximized="1"
     inkscape:current-layer="svg6" />
  <path
     d="m 72,127.90913 c 7.824219,0.0738 15.183594,-3.68597 19.683594,-10.05194 4.496094,-6.36985 5.554687,-14.53025 2.828125,-21.820606 L 171.6875,44.871914 c 9.42187,5.76394 21.59766,4.27635 29.33594,-3.5811 l 71.25781,25.76683 c 1.10547,9.3062 7.60547,17.1015 16.60156,19.90967 8.99219,2.80428 18.80469,0.10098 25.06641,-6.90585 6.25781,-7.00684 7.79687,-17.01606 3.92969,-25.56486 l 79.43359,-72.387118 c 3.30469,1.697308 6.96875,2.590648 10.6875,2.617838 13.25391,0 24,-10.685028 24,-23.863628 0,-13.1786 -10.74609,-23.86364 -24,-23.86364 -13.25391,0 -24,10.68504 -24,23.86364 0.0117,3.37524 0.74609,6.70776 2.16016,9.77617 l -79.4336,72.387118 c -3.3164,-1.70122 -6.99219,-2.59843 -10.72656,-2.61785 -8.16016,0.0232 -15.75391,4.16371 -20.15234,10.99965 L 207.76953,26.799404 C 207.83983,26.003174 208,25.288504 208,24.500054 208,11.321444 197.25391,0.63640351 184,0.63640351 c -13.25391,0 -24,10.68504049 -24,23.86365049 0.0273,2.73437 0.53125,5.44544 1.49609,8.00892 L 84.3125,83.673634 C 80.609375,81.409224 76.347656,80.201284 72,80.181864 c -13.253906,0 -24,10.68503 -24,23.863636 0,13.1786 10.746094,23.86363 24,23.86363 z m 0,0"
     id="path2"
     inkscape:connector-curvature="0"
     style="stroke-width:1" />
  <path
     d="M 448,271.09095 V 24.500054 c 0,-4.39288 -3.58203,-7.95455 -8,-7.95455 h -64 c -4.41797,0 -8,3.56167 -8,7.95455 V 271.09095 H 336 V 119.95458 c 0,-4.39286 -3.58203,-7.95454 -8,-7.95454 h -64 c -4.41797,0 -8,3.56168 -8,7.95454 V 271.09095 H 224 V 80.181864 c 0,-4.39287 -3.58203,-7.95454 -8,-7.95454 h -64 c -4.41797,0 -8,3.56167 -8,7.95454 V 271.09095 H 112 V 159.72731 c 0,-4.39286 -3.58203,-7.95454 -8,-7.95454 H 40 c -4.417969,0 -8,3.56168 -8,7.95454 V 271.09095 H 0 v 15.90909 h 480 v -15.90909 z m 0,0"
     id="path4"
     inkscape:connector-curvature="0"
     style="stroke-width:1" />
</svg>
