<svg xmlns="http://www.w3.org/2000/svg" viewBox="0 0 512 512"><path d="M51.2 375.468a8.536 8.536 0 0 0-8.533 8.533v17.067a8.536 8.536 0 0 0 8.533 8.533 8.536 8.536 0 0 0 8.533-8.533v-17.067a8.536 8.536 0 0 0-8.533-8.533zm0 51.2a8.536 8.536 0 0 0-8.533 8.533v17.067a8.536 8.536 0 0 0 8.533 8.533 8.536 8.536 0 0 0 8.533-8.533v-17.067a8.536 8.536 0 0 0-8.533-8.533zm0-102.4a8.536 8.536 0 0 0-8.533 8.533v17.067a8.536 8.536 0 0 0 8.533 8.533 8.536 8.536 0 0 0 8.533-8.533v-17.067a8.536 8.536 0 0 0-8.533-8.533zm34.133 51.2a8.536 8.536 0 0 0-8.533 8.533v17.067c0 4.71 3.823 8.533 8.533 8.533s8.533-3.823 8.533-8.533v-17.067c.001-4.71-3.822-8.533-8.533-8.533zm0-51.2a8.536 8.536 0 0 0-8.533 8.533v17.067c0 4.71 3.823 8.533 8.533 8.533s8.533-3.823 8.533-8.533v-17.067c.001-4.71-3.822-8.533-8.533-8.533zm0 102.4a8.536 8.536 0 0 0-8.533 8.533v17.067c0 4.71 3.823 8.533 8.533 8.533s8.533-3.823 8.533-8.533v-17.067c.001-4.71-3.822-8.533-8.533-8.533z"/><path d="M494.933 93.867h-17.067v-25.6a8.536 8.536 0 0 0-8.533-8.533h-51.2a8.536 8.536 0 0 0-8.533 8.533v25.6h-17.067A8.536 8.536 0 0 0 384 102.4v136.533h-8.533v-25.6a8.536 8.536 0 0 0-8.533-8.533H358.4v-8.533c0-4.71-3.823-8.533-8.533-8.533s-8.533 3.823-8.533 8.533v8.533H332.8a8.536 8.536 0 0 0-8.533 8.533v25.6h-25.6V68.267a8.536 8.536 0 0 0-8.533-8.533h-25.6v-51.2C264.533 3.823 260.71 0 256 0H153.6a8.536 8.536 0 0 0-8.533 8.533v51.2h-25.6a8.536 8.536 0 0 0-8.533 8.533v221.867H93.867v-25.6A8.536 8.536 0 0 0 85.334 256h-51.2a8.536 8.536 0 0 0-8.533 8.533v25.6h-8.533a8.536 8.536 0 0 0-8.533 8.533v204.8a8.536 8.536 0 0 0 8.533 8.533h477.867a8.536 8.536 0 0 0 8.533-8.533V102.4a8.538 8.538 0 0 0-8.535-8.533zM247.467 102.4A8.536 8.536 0 0 1 256 93.867a8.536 8.536 0 0 1 8.533 8.533v136.533h-17.067V102.4zm-34.134-59.733a8.536 8.536 0 0 1 8.533-8.533 8.536 8.536 0 0 1 8.533 8.533v25.6a8.536 8.536 0 0 1-8.533 8.533 8.536 8.536 0 0 1-8.533-8.533v-25.6zm0 59.733a8.536 8.536 0 0 1 8.533-8.533 8.536 8.536 0 0 1 8.533 8.533v136.533h-17.067V102.4zM179.2 42.667c0-4.71 3.823-8.533 8.533-8.533s8.533 3.823 8.533 8.533v25.6c0 4.71-3.823 8.533-8.533 8.533s-8.533-3.823-8.533-8.533v-25.6zM145.067 102.4a8.536 8.536 0 0 1 8.533-8.533 8.536 8.536 0 0 1 8.533 8.533v187.733h-17.067V102.4zM179.2 477.867h-25.6c-4.71 0-8.533-3.823-8.533-8.533s3.823-8.533 8.533-8.533h25.6v17.066zm0-34.134h-25.6c-4.71 0-8.533-3.823-8.533-8.533s3.823-8.533 8.533-8.533h25.6v17.066zm0-34.133h-25.6a8.536 8.536 0 0 1-8.533-8.533 8.536 8.536 0 0 1 8.533-8.533h25.6V409.6zm0-34.133h-25.6c-4.71 0-8.533-3.823-8.533-8.533s3.823-8.533 8.533-8.533h25.6v17.066zm0-51.2h-59.733a8.536 8.536 0 0 0-8.533 8.533v162.133H25.6V307.2h153.6v17.067zm0-76.8V102.4c0-4.71 3.823-8.533 8.533-8.533s8.533 3.823 8.533 8.533v136.533h-8.533c-4.71 0-8.533 3.823-8.533 8.534zM384 494.933h-17.067V281.6c0-4.71-3.823-8.533-8.533-8.533s-8.533 3.823-8.533 8.533v213.333H332.8V281.6c0-4.71-3.823-8.533-8.533-8.533s-8.533 3.823-8.533 8.533v213.333h-17.067V281.6c0-4.71-3.823-8.533-8.533-8.533s-8.533 3.823-8.533 8.533v213.333h-17.067V281.6a8.536 8.536 0 0 0-8.533-8.533 8.536 8.536 0 0 0-8.533 8.533v213.333H230.4V281.6a8.536 8.536 0 0 0-8.533-8.533 8.536 8.536 0 0 0-8.533 8.533v213.333h-17.067V256H384v238.933zm51.2-32.469c0 4.71-3.823 8.533-8.533 8.533s-8.533-3.823-8.533-8.533v-17.067c0-4.71 3.823-8.533 8.533-8.533s8.533 3.823 8.533 8.533v17.067zm0-51.2c0 4.71-3.823 8.533-8.533 8.533s-8.533-3.823-8.533-8.533v-17.067c0-4.71 3.823-8.533 8.533-8.533s8.533 3.823 8.533 8.533v17.067zm0-51.2c0 4.71-3.823 8.533-8.533 8.533s-8.533-3.823-8.533-8.533v-17.067c0-4.71 3.823-8.533 8.533-8.533s8.533 3.823 8.533 8.533v17.067zm0-51.2c0 4.71-3.823 8.533-8.533 8.533s-8.533-3.823-8.533-8.533v-17.067c0-4.71 3.823-8.533 8.533-8.533s8.533 3.823 8.533 8.533v17.067zm0-51.2c0 4.71-3.823 8.533-8.533 8.533s-8.533-3.823-8.533-8.533v-17.067c0-4.71 3.823-8.533 8.533-8.533s8.533 3.823 8.533 8.533v17.067zm0-51.2c0 4.71-3.823 8.533-8.533 8.533s-8.533-3.823-8.533-8.533v-17.067c0-4.71 3.823-8.533 8.533-8.533s8.533 3.823 8.533 8.533v17.067zm0-51.2c0 4.71-3.823 8.533-8.533 8.533s-8.533-3.823-8.533-8.533v-17.067c0-4.71 3.823-8.533 8.533-8.533s8.533 3.823 8.533 8.533v17.067zm34.133 307.2a8.536 8.536 0 0 1-8.533 8.533 8.536 8.536 0 0 1-8.533-8.533v-17.067a8.536 8.536 0 0 1 8.533-8.533 8.536 8.536 0 0 1 8.533 8.533v17.067zm0-51.2a8.536 8.536 0 0 1-8.533 8.533 8.536 8.536 0 0 1-8.533-8.533v-17.067a8.536 8.536 0 0 1 8.533-8.533 8.536 8.536 0 0 1 8.533 8.533v17.067zm0-51.2a8.536 8.536 0 0 1-8.533 8.533 8.536 8.536 0 0 1-8.533-8.533v-17.067a8.536 8.536 0 0 1 8.533-8.533 8.536 8.536 0 0 1 8.533 8.533v17.067zm0-51.2a8.536 8.536 0 0 1-8.533 8.533 8.536 8.536 0 0 1-8.533-8.533v-17.067a8.536 8.536 0 0 1 8.533-8.533 8.536 8.536 0 0 1 8.533 8.533v17.067zm0-51.2a8.536 8.536 0 0 1-8.533 8.533 8.536 8.536 0 0 1-8.533-8.533v-17.067a8.536 8.536 0 0 1 8.533-8.533 8.536 8.536 0 0 1 8.533 8.533v17.067zm0-51.2a8.536 8.536 0 0 1-8.533 8.533 8.536 8.536 0 0 1-8.533-8.533v-17.067a8.536 8.536 0 0 1 8.533-8.533 8.536 8.536 0 0 1 8.533 8.533v17.067zm0-51.2a8.536 8.536 0 0 1-8.533 8.533 8.536 8.536 0 0 1-8.533-8.533v-17.067a8.536 8.536 0 0 1 8.533-8.533 8.536 8.536 0 0 1 8.533 8.533v17.067z"/></svg>