<?xml version="1.0" encoding="UTF-8" standalone="no"?>
<!-- Generator: Adobe Illustrator 21.1.0, SVG Export Plug-In . SVG Version: 6.00 Build 0)  -->

<svg
   xmlns:dc="http://purl.org/dc/elements/1.1/"
   xmlns:cc="http://creativecommons.org/ns#"
   xmlns:rdf="http://www.w3.org/1999/02/22-rdf-syntax-ns#"
   xmlns:svg="http://www.w3.org/2000/svg"
   xmlns="http://www.w3.org/2000/svg"
   xmlns:sodipodi="http://sodipodi.sourceforge.net/DTD/sodipodi-0.dtd"
   xmlns:inkscape="http://www.inkscape.org/namespaces/inkscape"
   version="1.1"
   id="Layer_1"
   x="0px"
   y="0px"
   viewBox="0 0 370 510"
   xml:space="preserve"
   sodipodi:docname="002-maps-and-flags.svg"
   width="370"
   height="510"
   inkscape:version="0.92.1 r15371"><metadata
     id="metadata13"><rdf:RDF><cc:Work
         rdf:about=""><dc:format>image/svg+xml</dc:format><dc:type
           rdf:resource="http://purl.org/dc/dcmitype/StillImage" /><dc:title></dc:title></cc:Work></rdf:RDF></metadata><defs
     id="defs11" /><sodipodi:namedview
     pagecolor="#ffffff"
     bordercolor="#666666"
     borderopacity="1"
     objecttolerance="10"
     gridtolerance="10"
     guidetolerance="10"
     inkscape:pageopacity="0"
     inkscape:pageshadow="2"
     inkscape:window-width="1920"
     inkscape:window-height="1027"
     id="namedview9"
     showgrid="false"
     inkscape:zoom="0.4609375"
     inkscape:cx="256"
     inkscape:cy="256"
     inkscape:window-x="-8"
     inkscape:window-y="-8"
     inkscape:window-maximized="1"
     inkscape:current-layer="Layer_1" /><g
     id="g6"
     transform="matrix(0.9978425,0,0,0.99619103,-70.447686,0)"
     style="stroke-width:1.00299251"><g
       id="g4"
       style="stroke-width:1.00299251"><path
         d="M 256,0 C 153.8,0 70.6,83.2 70.6,185.4 c 0,126.9 165.9,313.2 173,321 6.6,7.4 18.2,7.4 24.8,0 7.1,-7.9 173,-194.1 173,-321 C 441.4,83.2 358.2,0 256,0 Z m 0,278.7 c -51.4,0 -93.3,-41.9 -93.3,-93.3 0,-51.4 41.9,-93.3 93.3,-93.3 51.4,0 93.3,41.9 93.3,93.3 0,51.4 -41.9,93.3 -93.3,93.3 z"
         id="path2"
         inkscape:connector-curvature="0"
         style="stroke-width:1.00299251" /></g></g></svg>