<svg xmlns="http://www.w3.org/2000/svg" viewBox="-91 0 330 512" width="330" height="512"><path d="M116.028 210.824H89.001v-47.789C106.425 156.816 119 140.312 119 120.773c0-24.828-20.183-45.027-44.997-45.027S29 95.946 29 120.773c0 19.54 12.578 36.043 30.002 42.262v47.79H31.976l-60.013 271.16h-32.96V512h269.999v-30.016h-32.965zm.832 142.082l22.487 101.278-92.993-61.688zm-89.194 15.668l20.773-93.55 57.814 49.421zm64.31-127.73l8.745 39.383-44.916-38.395.223-.988zM18.464 410l107.004 71.984H2.703zm-39.868-197.855c-25.532-25.536-39.598-59.434-39.598-95.461 0-36.028 14.062-69.93 39.598-95.461L-42.618 0C-73.818 31.207-91 72.64-91 116.684c0 44.043 17.181 85.48 48.382 116.683zm190.812 0l21.21 21.222c31.2-31.203 48.382-72.64 48.382-116.683C239 72.64 221.819 31.207 190.618 0l-21.21 21.223c25.532 25.535 39.594 59.433 39.594 95.46 0 36.028-14.062 69.93-39.594 95.462zm0 0"/><path d="M-.209 190.95l21.21-21.223C6.811 155.523-.998 136.69-.998 116.684c0-20.008 7.808-38.84 22-53.028L-.209 42.43C-20.058 62.277-31 88.645-31 116.684c0 28.023 10.928 54.406 30.791 74.265zm148.418 0c19.863-19.86 30.79-46.243 30.79-74.266 0-28.04-10.938-54.407-30.79-74.254l-21.21 21.226C141.193 77.844 149 96.676 149 116.684c0 20.007-7.808 38.84-22.002 53.043zm0 0"/></svg>