<?xml version="1.0" encoding="UTF-8" standalone="no"?>
<svg
   xmlns:dc="http://purl.org/dc/elements/1.1/"
   xmlns:cc="http://creativecommons.org/ns#"
   xmlns:rdf="http://www.w3.org/1999/02/22-rdf-syntax-ns#"
   xmlns:svg="http://www.w3.org/2000/svg"
   xmlns="http://www.w3.org/2000/svg"
   xmlns:sodipodi="http://sodipodi.sourceforge.net/DTD/sodipodi-0.dtd"
   xmlns:inkscape="http://www.inkscape.org/namespaces/inkscape"
   viewBox="-91 0 330 512.00001"
   version="1.1"
   id="svg12"
   sodipodi:docname="003-tv.svg"
   width="330"
   height="512"
   inkscape:version="0.92.1 r15371">
  <metadata
     id="metadata18">
    <rdf:RDF>
      <cc:Work
         rdf:about="">
        <dc:format>image/svg+xml</dc:format>
        <dc:type
           rdf:resource="http://purl.org/dc/dcmitype/StillImage" />
        <dc:title></dc:title>
      </cc:Work>
    </rdf:RDF>
  </metadata>
  <defs
     id="defs16" />
  <sodipodi:namedview
     pagecolor="#ffffff"
     bordercolor="#666666"
     borderopacity="1"
     objecttolerance="10"
     gridtolerance="10"
     guidetolerance="10"
     inkscape:pageopacity="0"
     inkscape:pageshadow="2"
     inkscape:window-width="1920"
     inkscape:window-height="1027"
     id="namedview14"
     showgrid="false"
     inkscape:zoom="0.4609375"
     inkscape:cx="256"
     inkscape:cy="256"
     inkscape:window-x="-8"
     inkscape:window-y="-8"
     inkscape:window-maximized="1"
     inkscape:current-layer="svg12" />
  <path
     d="M 116.02836,210.82422 H 89.001063 v -47.78906 c 17.423487,-6.21875 29.998217,-22.72266 29.998217,-42.26172 0,-24.828128 -20.183597,-45.027346 -44.99733,-45.027346 -24.813732,0 -45.001242,20.199218 -45.001242,45.027346 0,19.53906 12.578642,36.04297 30.00213,42.26172 v 47.78906 H 31.975546 l -60.012067,271.16015 h -32.96135 V 512 H 209.00177 v -30.01563 h -32.96525 z m 0.83155,142.08203 22.48695,101.27734 -92.992935,-61.6875 z m -89.194364,15.66797 20.773107,-93.55078 57.814127,49.42187 z M 91.9759,240.84375 l 8.74493,39.38281 -44.915356,-38.39453 0.222527,-0.98828 z M 18.463852,410 125.46819,481.98437 H 2.7034612 Z m 0,0"
     id="path2"
     inkscape:connector-curvature="0"
     style="stroke-width:0.99999994" />
  <path
     d="m -21.403649,212.14453 c -25.532066,-25.53516 -39.598126,-59.43359 -39.598126,-95.46094 0,-36.02734 14.062156,-69.929684 39.598126,-95.460934 L -42.617907,0 C -73.81856,31.207031 -91,72.640625 -91,116.68359 c 0,44.04297 17.18144,85.48047 48.382093,116.6836 z m 0,0"
     id="path4"
     inkscape:connector-curvature="0"
     style="stroke-width:0.99999994" />
  <path
     d="m 169.40755,212.14453 21.21035,21.22266 C 221.81856,202.16406 239,160.72656 239,116.68359 239,72.640625 221.81856,31.207031 190.6179,0 l -21.21035,21.222656 c 25.53207,25.535156 39.59422,59.433594 39.59422,95.460934 0,36.02735 -14.06215,69.92969 -39.59422,95.46094 z m 0,0"
     id="path6"
     inkscape:connector-curvature="0"
     style="stroke-width:0.99999994" />
  <path
     d="M -0.20891158,190.94922 21.001442,169.72656 C 6.810455,155.52344 -0.99751617,136.69141 -0.99751617,116.68359 c 0,-20.007809 7.80797117,-38.83984 21.99895817,-53.02734 L -0.20891158,42.429688 C -20.056774,62.277344 -30.999646,88.644531 -30.999646,116.68359 c 0,28.02344 10.927256,54.40625 30.79073442,74.26563 z m 0,0"
     id="path8"
     inkscape:connector-curvature="0"
     style="stroke-width:0.99999994" />
  <path
     d="m 148.20891,190.94922 c 19.86348,-19.85938 30.79073,-46.24219 30.79073,-74.26563 0,-28.039059 -10.93896,-54.406246 -30.79073,-74.253902 L 126.99855,63.65625 c 14.19489,14.1875 22.00286,33.019531 22.00286,53.02734 0,20.00782 -7.80797,38.83985 -22.00286,53.04297 z m 0,0"
     id="path10"
     inkscape:connector-curvature="0"
     style="stroke-width:0.99999994" />
</svg>
