<svg xmlns="http://www.w3.org/2000/svg" width="450" height="370"><path d="M447.039 162.67L206.501 3.248c-9.07-6.011-21.237-3.438-27.172 5.749l-56.515 87.46c-.099-2.047-1.113-4.021-2.936-5.23l-23.266-15.42c-3.023-2.003-7.078-1.145-9.056 1.916l-33.32 51.562c-1.977 3.061-1.13 7.169 1.892 9.172l23.268 15.42c3.022 2.004 7.079 1.147 9.056-1.916l.492-.76 7.3 70.632a6.638 6.638 0 0 0 2.924 4.855l214.598 142.23c3.022 2.004 7.078 1.147 9.057-1.916L448.93 171.843c1.979-3.062 1.132-7.168-1.892-9.172zm-279.675-62.559l34.064-52.714 75.567 50.084zM40.535 189.85c-.931-1.013-2.671-1.013-3.602 0C35.425 191.49 0 230.217 0 251.245c0 21.63 17.376 39.226 38.733 39.226 21.358 0 38.733-17.597 38.733-39.226.001-21.028-35.422-59.755-36.931-61.393z" stroke-width="1.009"/></svg>