<?xml version="1.0" encoding="UTF-8" standalone="no"?>
<!-- Generator: Adobe Illustrator 16.0.0, SVG Export Plug-In . SVG Version: 6.00 Build 0)  -->

<svg
   xmlns:dc="http://purl.org/dc/elements/1.1/"
   xmlns:cc="http://creativecommons.org/ns#"
   xmlns:rdf="http://www.w3.org/1999/02/22-rdf-syntax-ns#"
   xmlns:svg="http://www.w3.org/2000/svg"
   xmlns="http://www.w3.org/2000/svg"
   xmlns:sodipodi="http://sodipodi.sourceforge.net/DTD/sodipodi-0.dtd"
   xmlns:inkscape="http://www.inkscape.org/namespaces/inkscape"
   version="1.1"
   id="Capa_1"
   x="0px"
   y="0px"
   width="450"
   height="370"
   viewBox="0 0 449.99999 369.99999"
   xml:space="preserve"
   sodipodi:docname="006-gas.svg"
   inkscape:version="0.92.1 r15371"><metadata
     id="metadata45"><rdf:RDF><cc:Work
         rdf:about=""><dc:format>image/svg+xml</dc:format><dc:type
           rdf:resource="http://purl.org/dc/dcmitype/StillImage" /><dc:title></dc:title></cc:Work></rdf:RDF></metadata><defs
     id="defs43" /><sodipodi:namedview
     pagecolor="#ffffff"
     bordercolor="#666666"
     borderopacity="1"
     objecttolerance="10"
     gridtolerance="10"
     guidetolerance="10"
     inkscape:pageopacity="0"
     inkscape:pageshadow="2"
     inkscape:window-width="1920"
     inkscape:window-height="1027"
     id="namedview41"
     showgrid="false"
     inkscape:zoom="0.51655153"
     inkscape:cx="228.438"
     inkscape:cy="228.438"
     inkscape:window-x="-8"
     inkscape:window-y="-8"
     inkscape:window-maximized="1"
     inkscape:current-layer="Capa_1" /><g
     id="g8"
     transform="matrix(0.98495162,0,0,0.99751365,0,-42.870136)"
     style="stroke-width:1.00886512"><g
       id="g6"
       style="stroke-width:1.00886512"><path
         d="M 453.869,206.053 209.656,46.232 c -9.209,-6.026 -21.561,-3.446 -27.587,5.763 l -57.379,87.679 c -0.1,-2.053 -1.13,-4.032 -2.98,-5.243 L 98.088,118.972 c -3.069,-2.008 -7.186,-1.148 -9.194,1.921 l -33.829,51.69 c -2.008,3.069 -1.147,7.187 1.921,9.195 l 23.623,15.459 c 3.068,2.009 7.187,1.149 9.194,-1.921 l 0.5,-0.762 7.411,70.808 c 0.208,1.986 1.298,3.774 2.969,4.867 L 318.56,412.814 c 3.068,2.009 7.186,1.149 9.195,-1.921 L 455.79,215.248 c 2.009,-3.069 1.149,-7.186 -1.921,-9.195 z m -283.948,-62.715 34.584,-52.846 76.722,50.209 z"
         id="path2"
         inkscape:connector-curvature="0"
         style="stroke-width:1.00886512" /><path
         d="m 41.154,233.301 c -0.945,-1.016 -2.712,-1.016 -3.657,0 C 35.966,234.943 0,273.767 0,294.847 c 0,21.684 17.641,39.324 39.325,39.324 21.684,0 39.325,-17.641 39.325,-39.324 10e-4,-21.08 -35.964,-59.904 -37.496,-61.546 z"
         id="path4"
         inkscape:connector-curvature="0"
         style="stroke-width:1.00886512" /></g></g><g
     id="g10"
     transform="translate(0,-86.876007)" /><g
     id="g12"
     transform="translate(0,-86.876007)" /><g
     id="g14"
     transform="translate(0,-86.876007)" /><g
     id="g16"
     transform="translate(0,-86.876007)" /><g
     id="g18"
     transform="translate(0,-86.876007)" /><g
     id="g20"
     transform="translate(0,-86.876007)" /><g
     id="g22"
     transform="translate(0,-86.876007)" /><g
     id="g24"
     transform="translate(0,-86.876007)" /><g
     id="g26"
     transform="translate(0,-86.876007)" /><g
     id="g28"
     transform="translate(0,-86.876007)" /><g
     id="g30"
     transform="translate(0,-86.876007)" /><g
     id="g32"
     transform="translate(0,-86.876007)" /><g
     id="g34"
     transform="translate(0,-86.876007)" /><g
     id="g36"
     transform="translate(0,-86.876007)" /><g
     id="g38"
     transform="translate(0,-86.876007)" /></svg>