<svg height="640" viewBox="0 0 480.01 480" width="640" xmlns="http://www.w3.org/2000/svg"><path d="M128 104.004v-32a8 8 0 0 0-8-8H8a8 8 0 0 0-8 8v32zm-128 16v264h128v-264zm96 104H32a8 8 0 0 1-8-8v-64a8 8 0 0 1 8-8h64a8 8 0 0 1 8 8v64a8 8 0 0 1-8 8zm-96 208v40a8 8 0 0 0 8 8h112a8 8 0 0 0 8-8v-40zm0-32h128v16H0zm144 0h104v16H144zm104-368v-24a8 8 0 0 0-8-8h-88a8 8 0 0 0-8 8v24zm-104 56h104v296H144zm0 344v40a8 8 0 0 0 8 8h88a8 8 0 0 0 8-8v-40zm0-384h104v24H144zm119.809 117.664l4.28 16.434 135.485-36.13-4.285-16.433zm66.855 256.282l135.48-36.13-8.578-32.886-135.488 36.129zm122.863-84.497l-45.91-176-135.488 36.129 45.91 176zm0 0"/><path d="M259.77 150.188l135.476-36.125-11.484-44.06a8.181 8.181 0 0 0-9.84-5.757l-120 32a8.059 8.059 0 0 0-5.684 9.758zM470.184 401.3l-135.489 36.13 9.543 36.574a8.026 8.026 0 0 0 3.762 4.883 7.725 7.725 0 0 0 4 1.117c.7 0 1.398-.082 2.078-.238l120-32a8.063 8.063 0 0 0 5.684-9.762zm0 0"/></svg>