<svg xmlns="http://www.w3.org/2000/svg" width="480" height="445"><path d="M337.31 117.32h42.078L317.011 9.121C311.985.354 300.85-2.635 292.178 2.546c-8.672 5.081-11.628 16.34-6.504 25.107zM194.523 27.653c5.025-8.768 2.168-20.026-6.504-25.107-8.672-5.081-19.807-2.192-24.833 6.576L100.81 117.419h42.077zm254.535 122.843H30.844C13.796 150.496 0 164.444 0 181.68v34.571c0 17.236 13.796 31.184 30.844 31.184H40.5l29.76 163.093C74.005 429.757 91.349 445 109.382 445H364.41c18.033 0 35.376-15.243 39.121-34.472l29.957-163.193h15.668c17.048 0 30.844-13.948 30.844-31.184V181.58c-.099-17.136-13.894-31.084-30.942-31.084zM170.28 313.489v70.339c0 10.062-8.08 17.634-17.442 17.634-9.953 0-17.442-8.17-17.442-17.634v-98.633c0-10.063 8.08-17.635 17.442-17.635 9.953 0 17.442 8.17 17.442 17.635zm55.972 0v70.339c0 10.062-8.08 17.634-17.442 17.634-9.952 0-17.442-8.17-17.442-17.634v-98.633c0-10.063 8.08-17.635 17.442-17.635s17.442 8.17 17.442 17.635zm56.268 40.848v29.49c0 9.465-7.49 17.635-17.442 17.635-9.361 0-17.442-7.572-17.442-17.634v-98.633c0-9.465 8.08-17.635 17.442-17.635s17.442 7.572 17.442 17.635zm55.972 0v29.49c0 9.465-7.49 17.635-17.442 17.635-9.361 0-17.442-7.572-17.442-17.634v-98.633c0-9.465 7.49-17.635 17.442-17.635 9.362 0 17.442 7.572 17.442 17.635z" stroke-width="1.009"/></svg>