<svg xmlns="http://www.w3.org/2000/svg" width="50" height="50"><g stroke-width="1.027"><path d="M20.58 9.981h-.677c-.794 0-1.436.603-1.436 1.348v5.707h3.55V11.33c0-.744-.643-1.348-1.437-1.348zm9.518 0h-.678c-.792 0-1.435.603-1.435 1.348v5.707h3.551V11.33c-.002-.744-.644-1.348-1.438-1.348z"/><path d="M25.001 0C11.215 0 0 11.47 0 25.569c0 6.807 2.585 13.212 7.28 18.037 2.78 2.857 6.22 5.028 9.948 6.27.249.085.501.124.749.124 1.013 0 1.956-.66 2.288-1.7.413-1.293-.277-2.683-1.541-3.104a20.201 20.201 0 0 1-8.03-5.065c-3.79-3.895-5.877-9.067-5.877-14.562 0-11.383 9.055-20.644 20.185-20.644 11.13 0 20.185 9.26 20.185 20.644 0 5.516-2.099 10.696-5.908 14.594-1.463 1.342-5.091 4.043-7.271 4.043-1.12 0-1.955-.36-2.635-1.133-1.723-1.963-2.102-5.938-2.085-8.708 4.179-.215 7.505-3.739 7.505-8.065v-7.664H15.208V26.3c0 4.242 3.196 7.715 7.26 8.054-.025 3.3.427 8.708 3.312 12.003 1.591 1.818 3.747 2.776 6.228 2.776 4.658 0 9.961-4.812 10.549-5.358l.077-.075C47.386 38.866 50 32.429 50 25.573 50.002 11.47 38.787 0 25.001 0z"/></g></svg>