<svg xmlns="http://www.w3.org/2000/svg" viewBox="0 0 449.353 449.353"><circle cx="224.676" cy="39.729" r="39.184"/><path d="M239.86 88.33c-.185-.005-.37-.01-.555-.013h-29.257c-30.003.564-53.867 25.344-53.303 55.347.003.185.008.37.013.555v8.359c0 4.18 1.567 8.882 6.269 8.882h123.298c4.702 0 6.269-4.702 6.269-8.882v-8.359c.871-29.995-22.739-55.018-52.734-55.889zM54.88 260.725a7.837 7.837 0 0 0 7.837-7.837 161.44 161.44 0 0 1 60.604-126.433 7.314 7.314 0 0 0 1.045-10.971 7.837 7.837 0 0 0-10.971-1.045 177.634 177.634 0 0 0-66.351 138.449 7.836 7.836 0 0 0 7.836 7.837zm221.519 145.763a165.095 165.095 0 0 1-102.922 0 7.838 7.838 0 0 0-9.927 5.224 8.36 8.36 0 0 0 5.224 9.927 181.317 181.317 0 0 0 55.902 8.882 176.074 176.074 0 0 0 56.947-9.404 7.837 7.837 0 0 0-5.224-14.629zm41.695-285.848l.101.069a162.482 162.482 0 0 1 68.441 132.18 7.837 7.837 0 0 0 15.674 0 178.675 178.675 0 0 0-75.233-145.241 8.359 8.359 0 0 0-10.971 2.09 7.834 7.834 0 0 0 1.988 10.902z"/><circle cx="67.941" cy="327.076" r="39.184"/><path d="M83.125 375.677c-.185-.005-.37-.01-.555-.013H53.313C23.31 376.228-.555 401.008.01 431.011c.003.185.008.37.013.555v8.359c0 4.18 1.567 8.882 6.269 8.882H129.59c4.702 0 6.269-4.702 6.269-8.882v-8.359c.872-29.996-22.738-55.018-52.734-55.889z"/><circle cx="381.411" cy="327.076" r="39.184"/><path d="M396.594 375.677c-.185-.005-.37-.01-.555-.013h-29.257c-30.003.564-53.867 25.344-53.303 55.347.003.185.008.37.013.555v8.359c0 4.18 1.567 8.882 6.269 8.882H443.06c4.702 0 6.269-4.702 6.269-8.882v-8.359c.871-29.996-22.739-55.018-52.735-55.889z"/></svg>