<svg xmlns="http://www.w3.org/2000/svg" width="490" height="370"><g transform="matrix(1.00143 0 0 1.0004 0 -59.75)" stroke-width=".999"><path d="M79.55 229.675c-10.2 10.2-10.2 26.8 0 37.1 10.2 10.2 26.8 10.2 37.1 0 70.6-70.6 185.5-70.6 256.1 0 5.1 5.1 11.8 7.7 18.5 7.7 6.7 0 13.4-2.6 18.5-7.7 10.2-10.2 10.2-26.8 0-37.1-91-91.1-239.2-91.1-330.2 0z"/><path d="M150.35 300.475c-10.2 10.2-10.2 26.8 0 37.1 10.2 10.2 26.8 10.2 37.1 0 31.5-31.6 82.9-31.6 114.4 0 5.1 5.1 11.8 7.7 18.5 7.7 6.7 0 13.4-2.6 18.5-7.7 10.2-10.2 10.2-26.8 0-37-51.9-52.1-136.5-52.1-188.5-.1z"/><circle cx="244.65" cy="394.675" r="34.9"/><path d="M481.65 157.675c-130.7-130.6-343.3-130.6-474 0-10.2 10.2-10.2 26.8 0 37.1 10.2 10.2 26.8 10.2 37.1 0 110.2-110.3 289.6-110.3 399.9 0 5.1 5.1 11.8 7.7 18.5 7.7 6.7 0 13.4-2.6 18.5-7.7 10.2-10.2 10.2-26.8 0-37.1z"/></g></svg>