<svg xmlns="http://www.w3.org/2000/svg" viewBox="0 0 512 512"><path d="M256 0C114.615 0 0 114.615 0 256s114.615 256 256 256 256-114.615 256-256C511.835 114.683 397.317.165 256 0zM125.163 306.432a104.022 104.022 0 0 1-66.944-51.691 83.197 83.197 0 0 1-.619-82.922 142.601 142.601 0 0 1 54.208-54.272c39.872-23.019 76.565-21.333 91.328 4.267a100.266 100.266 0 0 1 9.451 48.299 74.156 74.156 0 0 0 5.717 34.432c-28.433 20.518-34.849 60.201-14.331 88.635a63.481 63.481 0 0 0 5.926 7.067 159.333 159.333 0 0 1-84.736 6.185zm228.65 121.493v-.021a83.202 83.202 0 0 1-71.488 42.027 142.593 142.593 0 0 1-74.133-19.797c-39.872-23.061-56.725-55.701-41.984-81.259a100.27 100.27 0 0 1 37.099-32.363 74.656 74.656 0 0 0 26.901-22.059c31.985 14.308 69.514-.022 83.822-32.008a63.36 63.36 0 0 0 3.175-8.781 159.438 159.438 0 0 1 47.893 70.4 104.019 104.019 0 0 1-11.285 83.861zm44.843-150.592a100.274 100.274 0 0 1-46.571-15.957 73.613 73.613 0 0 0-32.768-12.267c-3.247-34.593-33.923-60.005-68.516-56.758a62.816 62.816 0 0 0-10.076 1.782 159.358 159.358 0 0 1 37.013-76.565 104.025 104.025 0 0 1 78.251-32.235 83.2 83.2 0 0 1 72.149 40.896 142.585 142.585 0 0 1 19.861 74.133c.001 46.038-19.839 76.971-49.343 76.971z"/></svg>