<?xml version="1.0" encoding="UTF-8" standalone="no"?>
<!-- Generator: Adobe Illustrator 16.0.0, SVG Export Plug-In . SVG Version: 6.00 Build 0)  -->

<svg
   xmlns:dc="http://purl.org/dc/elements/1.1/"
   xmlns:cc="http://creativecommons.org/ns#"
   xmlns:rdf="http://www.w3.org/1999/02/22-rdf-syntax-ns#"
   xmlns:svg="http://www.w3.org/2000/svg"
   xmlns="http://www.w3.org/2000/svg"
   xmlns:sodipodi="http://sodipodi.sourceforge.net/DTD/sodipodi-0.dtd"
   xmlns:inkscape="http://www.inkscape.org/namespaces/inkscape"
   version="1.1"
   id="Capa_1"
   x="0px"
   y="0px"
   width="50"
   height="50"
   viewBox="0 0 50.000002 50.000002"
   xml:space="preserve"
   sodipodi:docname="power-cord.svg"
   inkscape:version="0.92.1 r15371"><metadata
     id="metadata49"><rdf:RDF><cc:Work
         rdf:about=""><dc:format>image/svg+xml</dc:format><dc:type
           rdf:resource="http://purl.org/dc/dcmitype/StillImage" /><dc:title></dc:title></cc:Work></rdf:RDF></metadata><defs
     id="defs47" /><sodipodi:namedview
     pagecolor="#ffffff"
     bordercolor="#666666"
     borderopacity="1"
     objecttolerance="10"
     gridtolerance="10"
     guidetolerance="10"
     inkscape:pageopacity="0"
     inkscape:pageshadow="2"
     inkscape:window-width="1920"
     inkscape:window-height="1027"
     id="namedview45"
     showgrid="false"
     inkscape:zoom="4.5460676"
     inkscape:cx="25.956499"
     inkscape:cy="25.956499"
     inkscape:window-x="-8"
     inkscape:window-y="-8"
     inkscape:window-maximized="1"
     inkscape:current-layer="Capa_1" /><g
     id="g12"
     transform="matrix(0.96316843,0,0,0.98504699,0,-0.5683721)"
     style="stroke-width:1.0266453"><g
       id="g10"
       style="stroke-width:1.0266453"><g
         id="g8"
         style="stroke-width:1.0266453"><path
           d="m 21.367,10.71 h -0.703 c -0.824,0 -1.491,0.612 -1.491,1.368 v 5.794 h 3.686 V 12.078 C 22.858,11.323 22.191,10.71 21.367,10.71 Z"
           id="path2"
           inkscape:connector-curvature="0"
           style="stroke-width:1.0266453" /><path
           d="m 31.249,10.71 h -0.704 c -0.822,0 -1.49,0.612 -1.49,1.368 v 5.794 h 3.687 V 12.078 C 32.74,11.323 32.073,10.71 31.249,10.71 Z"
           id="path4"
           inkscape:connector-curvature="0"
           style="stroke-width:1.0266453" /><path
           d="M 25.957,0.577 C 11.644,0.577 0,12.221 0,26.534 c 0,6.91 2.684,13.413 7.558,18.311 2.886,2.9 6.458,5.104 10.329,6.366 0.258,0.085 0.52,0.125 0.777,0.125 1.052,0 2.031,-0.67 2.376,-1.725 0.429,-1.313 -0.288,-2.725 -1.6,-3.152 C 16.317,45.438 13.434,43.66 11.103,41.317 7.168,37.363 5.001,32.113 5.001,26.534 c 0,-11.556 9.401,-20.957 20.957,-20.957 11.556,0 20.957,9.401 20.957,20.957 0,5.6 -2.179,10.859 -6.134,14.816 -1.519,1.362 -5.286,4.104 -7.549,4.104 -1.162,0 -2.03,-0.366 -2.736,-1.15 -1.789,-1.993 -2.182,-6.028 -2.165,-8.84 4.339,-0.219 7.793,-3.796 7.793,-8.188 v -7.78 H 15.79 v 7.78 c 0,4.307 3.318,7.832 7.537,8.177 -0.026,3.35 0.444,8.84 3.439,12.185 1.652,1.845 3.89,2.818 6.466,2.818 4.836,0 10.342,-4.885 10.952,-5.44 l 0.08,-0.076 C 49.198,40.033 51.912,33.498 51.912,26.538 51.914,12.221 40.27,0.577 25.957,0.577 Z"
           id="path6"
           inkscape:connector-curvature="0"
           style="stroke-width:1.0266453" /></g></g></g><g
     id="g14"
     transform="translate(0,-1.9129982)" /><g
     id="g16"
     transform="translate(0,-1.9129982)" /><g
     id="g18"
     transform="translate(0,-1.9129982)" /><g
     id="g20"
     transform="translate(0,-1.9129982)" /><g
     id="g22"
     transform="translate(0,-1.9129982)" /><g
     id="g24"
     transform="translate(0,-1.9129982)" /><g
     id="g26"
     transform="translate(0,-1.9129982)" /><g
     id="g28"
     transform="translate(0,-1.9129982)" /><g
     id="g30"
     transform="translate(0,-1.9129982)" /><g
     id="g32"
     transform="translate(0,-1.9129982)" /><g
     id="g34"
     transform="translate(0,-1.9129982)" /><g
     id="g36"
     transform="translate(0,-1.9129982)" /><g
     id="g38"
     transform="translate(0,-1.9129982)" /><g
     id="g40"
     transform="translate(0,-1.9129982)" /><g
     id="g42"
     transform="translate(0,-1.9129982)" /></svg>