<?xml version="1.0" encoding="UTF-8" standalone="no"?>
<!-- Generator: Adobe Illustrator 16.0.0, SVG Export Plug-In . SVG Version: 6.00 Build 0)  -->

<svg
   xmlns:dc="http://purl.org/dc/elements/1.1/"
   xmlns:cc="http://creativecommons.org/ns#"
   xmlns:rdf="http://www.w3.org/1999/02/22-rdf-syntax-ns#"
   xmlns:svg="http://www.w3.org/2000/svg"
   xmlns="http://www.w3.org/2000/svg"
   xmlns:sodipodi="http://sodipodi.sourceforge.net/DTD/sodipodi-0.dtd"
   xmlns:inkscape="http://www.inkscape.org/namespaces/inkscape"
   version="1.1"
   id="Capa_1"
   x="0px"
   y="0px"
   width="78"
   height="78"
   viewBox="0 0 77.999998 77.999998"
   xml:space="preserve"
   sodipodi:docname="nuclear-plant.svg"
   inkscape:version="0.92.1 r15371"><metadata
     id="metadata41"><rdf:RDF><cc:Work
         rdf:about=""><dc:format>image/svg+xml</dc:format><dc:type
           rdf:resource="http://purl.org/dc/dcmitype/StillImage" /><dc:title></dc:title></cc:Work></rdf:RDF></metadata><defs
     id="defs39" /><sodipodi:namedview
     pagecolor="#ffffff"
     bordercolor="#666666"
     borderopacity="1"
     objecttolerance="10"
     gridtolerance="10"
     guidetolerance="10"
     inkscape:pageopacity="0"
     inkscape:pageshadow="2"
     inkscape:window-width="1920"
     inkscape:window-height="1027"
     id="namedview37"
     showgrid="false"
     inkscape:zoom="3.0219991"
     inkscape:cx="39.047001"
     inkscape:cy="39.047001"
     inkscape:window-x="-8"
     inkscape:window-y="-8"
     inkscape:window-maximized="1"
     inkscape:current-layer="Capa_1" /><g
     id="g4"
     transform="matrix(0.99879632,0,0,1.0117519,0,-0.50587594)"
     style="stroke-width:0.99477422"><path
       d="M 64.419,0.5 H 11.574 C 11.574,74.552 0,77.594 0,77.594 h 78.094 c 0,0 -13.675,-4.291 -13.675,-77.094 z M 46.603,24.865 c 0.445,0.207 0.877,0.438 1.301,0.676 l -5.325,11.483 c -0.369,-0.315 -0.776,-0.596 -1.235,-0.81 -1.772,-0.819 -3.742,-0.605 -5.277,0.368 L 31.728,24.755 c 4.58,-2.032 9.969,-2.164 14.875,0.11 z M 27.062,54.898 c -3.763,-3.299 -6.153,-8.138 -6.153,-13.545 0,-0.493 0.029,-0.976 0.07,-1.458 h 12.653 c -0.128,0.469 -0.212,0.951 -0.212,1.458 0,1.954 1.018,3.655 2.546,4.634 z M 38.883,44.149 c -1.559,0 -2.834,-1.27 -2.834,-2.83 0,-1.558 1.271,-2.823 2.834,-2.823 1.563,0 2.821,1.266 2.821,2.823 0,1.561 -1.261,2.83 -2.821,2.83 z m 12.155,10.749 -8.904,-8.911 c 1.529,-0.979 2.549,-2.68 2.549,-4.634 0,-0.507 -0.078,-0.989 -0.215,-1.458 h 12.655 c 0.041,0.482 0.068,0.965 0.068,1.458 0,5.411 -2.381,10.247 -6.153,13.545 z"
       id="path2"
       inkscape:connector-curvature="0"
       style="stroke-width:0.99477422" /></g><g
     id="g6"
     transform="translate(0,-0.09400177)" /><g
     id="g8"
     transform="translate(0,-0.09400177)" /><g
     id="g10"
     transform="translate(0,-0.09400177)" /><g
     id="g12"
     transform="translate(0,-0.09400177)" /><g
     id="g14"
     transform="translate(0,-0.09400177)" /><g
     id="g16"
     transform="translate(0,-0.09400177)" /><g
     id="g18"
     transform="translate(0,-0.09400177)" /><g
     id="g20"
     transform="translate(0,-0.09400177)" /><g
     id="g22"
     transform="translate(0,-0.09400177)" /><g
     id="g24"
     transform="translate(0,-0.09400177)" /><g
     id="g26"
     transform="translate(0,-0.09400177)" /><g
     id="g28"
     transform="translate(0,-0.09400177)" /><g
     id="g30"
     transform="translate(0,-0.09400177)" /><g
     id="g32"
     transform="translate(0,-0.09400177)" /><g
     id="g34"
     transform="translate(0,-0.09400177)" /></svg>