<svg xmlns="http://www.w3.org/2000/svg" width="78" height="78"><path d="M64.341 0h-52.78C11.56 74.922 0 78 0 78h78S64.341 73.659 64.341 0zM46.547 24.651c.444.21.876.443 1.3.684l-5.32 11.618a5.446 5.446 0 0 0-1.233-.82c-1.77-.828-3.737-.611-5.27.373L31.69 24.54c4.574-2.056 9.957-2.19 14.857.111zM27.029 55.037a18.278 18.278 0 0 1-6.145-13.704c0-.499.029-.987.07-1.475h12.638a5.632 5.632 0 0 0-.212 1.475 5.572 5.572 0 0 0 2.543 4.689zm11.807-10.875c-1.557 0-2.83-1.285-2.83-2.863 0-1.577 1.27-2.856 2.83-2.856 1.561 0 2.818 1.28 2.818 2.856 0 1.579-1.26 2.863-2.818 2.863zm12.14 10.875l-8.893-9.015a5.572 5.572 0 0 0 2.546-4.689c0-.513-.078-1-.215-1.475h12.64c.041.488.068.976.068 1.475a18.238 18.238 0 0 1-6.145 13.704z" stroke-width=".995"/></svg>