<svg xmlns="http://www.w3.org/2000/svg" width="550" height="365"><path d="M119.17 292.001h311.665c12.604 0 23.39-4.464 32.364-13.405 8.979-8.939 13.467-19.675 13.467-32.22V45.625c0-12.548-4.488-23.285-13.467-32.222C454.224 4.466 443.44 0 430.835 0H119.169c-12.604 0-23.395 4.466-32.371 13.402-8.977 8.936-13.463 19.674-13.463 32.222v200.754c0 12.544 4.486 23.283 13.463 32.219C95.774 287.53 106.565 292 119.169 292zm-9.171-246.377c0-2.471.908-4.614 2.722-6.415 1.817-1.804 3.966-2.71 6.448-2.71h311.659c2.486 0 4.634.904 6.448 2.71 1.81 1.806 2.716 3.944 2.716 6.415v200.754c0 2.468-.907 4.611-2.716 6.412-1.814 1.806-3.962 2.71-6.448 2.71H119.166c-2.483 0-4.632-.901-6.448-2.71-1.811-1.808-2.72-3.944-2.72-6.412zm394.169 264.63H0v27.371c0 7.609 4.486 14.07 13.462 19.39 8.98 5.322 19.767 7.985 32.371 7.985h458.335c12.602 0 23.39-2.663 32.365-7.984 8.976-5.322 13.467-11.782 13.467-19.39v-27.372zm-206.252 27.371h-45.833c-3.052 0-4.58-1.524-4.58-4.562 0-3.043 1.528-4.57 4.58-4.57h45.833c3.055 0 4.586 1.527 4.586 4.57 0 3.038-1.53 4.562-4.586 4.562z" stroke-width=".999"/></svg>