<svg xmlns="http://www.w3.org/2000/svg" width="100mm" height="100mm" viewBox="0 0 10000 10000" shape-rendering="geometricPrecision" text-rendering="geometricPrecision" image-rendering="optimizeQuality" fill-rule="evenodd" clip-rule="evenodd"><defs><style>.fil0{fill:#006463}</style></defs><g id="Слой_x0020_1"><g id="_2889145978400"><path class="fil0" d="M7257.34 7505.49l-1109.49-229.71c-102.62-21.25-177.11-112.73-177.11-217.54v-295.55c417.6-300.53 690.27-790.35 690.27-1342.95V4252.8c0-912.01-741.97-1653.98-1653.98-1653.98-912 0-1653.97 741.97-1653.97 1653.98v1166.94c0 548.87 268.95 1035.86 681.76 1336.87v301.84c0 104.73-74.43 196.21-176.97 217.5L2755.67 7504.9c-755.19 156.9-1303.32 830.59-1303.32 1601.92v715.47c0 107.87 87.44 195.31 195.31 195.31h4335.93c107.87 0 195.31-87.44 195.31-195.31s-87.44-195.31-195.31-195.31l-4140.61-.01v-520.16c0-587.17 417.27-1100 992.15-1219.43l1102.17-228.95c65.29-13.55 126.37-37.54 181.82-69.8l718.26 1144.04c35.74 56.91 98.2 91.46 165.4 91.46 67.21 0 129.69-34.55 165.41-91.46l718.36-1144.2c55.53 32.29 116.72 56.27 182.11 69.82L7178.15 7888c575.35 119.12 992.95 632.03 992.95 1219.59l-.01 519.38h-312.5c-107.87 0-195.31 87.44-195.31 195.31s87.44 195.31 195.31 195.31l507.81.01c107.87 0 195.31-87.44 195.31-195.31V9107.6c.01-771.84-548.57-1445.63-1304.37-1602.11zM3743.68 4252.82c0-696.64 566.74-1263.38 1263.35-1263.38 567.75 0 1049.14 376.5 1207.85 892.93l-75.8 75.8c-438.11 438.09-1020.55 679.36-1640.09 679.36h-755.31v-384.71zm1259.09 4008.67l-618.13-984.57c26.33-68.34 40.8-142.09 40.8-218.46v-90.61c181.05 68.24 376.99 105.86 581.59 105.86 201.39 0 394.43-36.29 573.09-102.5v87.01c0 76.43 14.49 150.21 40.84 218.61l-618.19 984.66zm4.26-1578.36c-696.61 0-1263.35-566.76-1263.35-1263.38v-391.6h755.31c657.53 0 1279.31-232.63 1771.4-658.9v1050.52c0 696.62-566.74 1263.36-1263.36 1263.36z"/><path class="fil0" d="M7117.77 9684.2c-36.33-36.33-86.72-57.23-138.09-57.23-51.37 0-101.76 20.9-138.09 57.23s-57.23 86.72-57.23 138.09c0 51.37 20.9 101.76 57.23 138.09s86.72 57.23 138.09 57.23c51.37 0 101.76-20.9 138.09-57.23s57.23-86.72 57.23-138.09c0-51.37-20.9-101.76-57.23-138.09zM5866.4 17.61H4147.66c-107.87 0-195.31 87.44-195.31 195.31v1875c0 107.87 87.44 195.31 195.31 195.31H5866.4c107.87 0 195.31-87.44 195.31-195.31l.01-1875c0-107.87-87.44-195.31-195.32-195.31zm-195.31 1875H4342.98V408.24h1328.11v1484.37zM1921.1 17.61H202.35C94.48 17.61 7.04 105.05 7.04 212.92v1875c0 107.87 87.44 195.31 195.31 195.31H1921.1c107.87 0 195.31-87.44 195.31-195.31v-1875c0-107.87-87.44-195.31-195.31-195.31zm-195.31 1875H397.67V408.24h1328.12v1484.37zm8085.93-1875H8092.97c-107.87 0-195.31 87.44-195.31 195.31v1875c0 107.87 87.44 195.31 195.31 195.31h1718.75c107.87 0 195.31-87.44 195.31-195.31v-1875c0-107.87-87.44-195.31-195.31-195.31zm-195.32 1875H8288.28V408.24H9616.4v1484.37zM2595.28 3828.35l-536.07-536.07c-76.27-76.29-199.94-76.29-276.21 0-76.27 76.27-76.27 199.94 0 276.23l536.07 536.07c38.14 38.14 88.13 57.21 138.11 57.21 49.98 0 99.98-19.06 138.11-57.21 76.26-76.27 76.26-199.94-.01-276.23zM1426.96 2659.99c-36.33-36.33-86.72-57.03-138.09-57.03-51.37 0-101.76 20.7-138.09 57.03-36.33 36.52-57.23 86.72-57.23 138.28 0 51.37 20.9 101.56 57.23 138.09 36.33 36.33 86.72 57.03 138.09 57.03 51.37 0 101.76-20.7 138.09-57.03 36.33-36.52 57.23-86.72 57.23-138.09 0-51.56-20.9-101.75-57.23-138.28zm7031.55 404.83c-76.27-76.27-199.94-76.27-276.23 0l-763.52 763.52c-76.27 76.27-76.27 199.94 0 276.23 38.16 38.14 88.14 57.21 138.13 57.21 49.98 0 99.98-19.06 138.11-57.21l763.52-763.52c76.26-76.27 76.26-199.94-.01-276.23z"/></g></g></svg>