<svg xmlns="http://www.w3.org/2000/svg" width="100mm" height="100mm" viewBox="0 0 10000 10000" shape-rendering="geometricPrecision" text-rendering="geometricPrecision" image-rendering="optimizeQuality" fill-rule="evenodd" clip-rule="evenodd"><defs><style>.fil0{fill:#006463}</style></defs><g id="Слой_x0020_1"><g id="_2889616507136"><path class="fil0" d="M3428.86 3149.05c53.3 0 106.66-20.35 147.32-61.05l88.38-88.42c81.33-81.37 81.31-213.26-.06-294.61-81.35-81.33-213.28-81.35-294.61.06l-88.38 88.42c-81.33 81.37-81.31 213.26.06 294.61 40.69 40.65 94.01 60.99 147.29 60.99z"/><path class="fil0" d="M5178.66 8587.34l183.3 183.32c40.68 40.66 94 61.02 147.32 61.02 26.64 0 53.3-5.08 78.42-15.27 25.06-10.18 48.57-25.43 68.89-45.74l4279.82-4279.79c81.37-81.35 81.37-213.26 0-294.63L6054.85 314.65c-406.15-406.07-1066.93-406.07-1473.02 0l-4278.93 4279c-.29.29-.57.53-.86.82-.57.57-1.15 1.15-1.68 1.74a794.055 794.055 0 0 0-17.13 17.6c-5.72 6.04-11.33 12.11-16.91 18.22l-.06.06c-.25.27-.49.51-.7.76-5.92 6.52-11.72 13.16-17.44 19.8-1.31 1.48-2.34 3.11-3.61 4.63C85.08 4844.82-2.03 5080.9-2.03 5331.1c.02 278.89 108.01 540.41 304.04 736.41l441.89 441.97-684.96 684.98c-59.55 59.57-77.4 149.18-45.16 227.03 32.25 77.83 108.2 128.59 192.48 128.59l970.14.01v970.1c0 84.28 50.76 160.21 128.59 192.44a207.888 207.888 0 0 0 79.69 15.88c54.2 0 107.5-21.17 147.34-61.02L2217 7982.53l1610.94 1610.9h-913.51c-115.04 0-208.32 93.26-208.32 208.32 0 115.04 93.28 208.32 208.32 208.32h4166.45c115.04 0 208.32-93.28 208.32-208.32 0-115.06-93.28-208.32-208.32-208.32H4554.06c57.99-407.23 283.98-772.56 624.6-1006.09zM4876.44 609.28c243.66-243.63 640.15-243.63 883.78 0l3734.26 3734.26-3985.2 3985.18-3586.9-3586.94L3045.9 3618.36c81.37-81.35 81.37-213.24.02-294.61-81.35-81.35-213.24-81.35-294.61-.02L1612.97 4461.97c-128.42-85-273.95-139.92-427.79-161.33L4876.44 609.28zm-3283.4 7407.96v-675.51c0-115.04-93.26-208.3-208.32-208.3H709.21l918.54-918.52 883.87 883.81-918.58 918.52zm2583.54 1335.58l-1664.96-1664.9 294.59-294.57 502.89 502.93c40.68 40.66 94 61.02 147.3 61.02 53.3 0 106.62-20.35 147.3-61.02 81.35-81.35 81.35-213.24 0-294.63l-650.02-650.04c-.06-.08-.12-.16-.2-.23l-1178.43-1178.4c-81.35-81.31-213.22-81.33-294.63 0l-441.89 441.89-441.89-442.01c-117.34-117.3-181.97-274.22-181.99-441.8 0-167.62 64.63-324.55 182.01-441.9l2.83-2.85c117.05-115.64 272.83-179.26 439.08-179.26 167.56 0 324.49 64.67 441.88 182.03l3399.79 3399.79c-352.32 263.35-600.19 640.2-703.66 1063.95z"/><path class="fil0" d="M3864.08 8451.2c40.68 40.66 94 61 147.29 61 53.34 0 106.64-20.35 147.32-61.04 81.33-81.37 81.31-213.26-.04-294.61l-85.96-85.98c-81.39-81.35-213.26-81.31-294.63.04-81.33 81.37-81.31 213.26.04 294.63l85.98 85.96zm2857.04-2009.82c53.3 0 106.64-20.35 147.32-61.05l88.38-88.42c81.33-81.37 81.29-213.26-.08-294.61-81.33-81.35-213.28-81.33-294.59.06l-88.38 88.42c-81.33 81.37-81.33 213.26.04 294.61 40.71 40.66 94.01 60.99 147.31 60.99zm618.71-618.67c53.36 0 106.64-20.35 147.32-61.02l1270.78-1270.83c81.33-81.35 81.33-213.26 0-294.63-81.37-81.33-213.28-81.33-294.63 0L7192.52 5467.06c-81.37 81.35-81.37 213.26 0 294.63 40.69 40.67 94.01 61.02 147.31 61.02z"/></g></g></svg>