<svg xmlns="http://www.w3.org/2000/svg" width="100mm" height="100mm" viewBox="0 0 10000 10000" shape-rendering="geometricPrecision" text-rendering="geometricPrecision" image-rendering="optimizeQuality" fill-rule="evenodd" clip-rule="evenodd"><defs><style>.fil0{fill:#006463}</style></defs><g id="Слой_x0020_1"><g id="_2241382463280"><path class="fil0" d="M2387.84 665.82v2258.06l5161.3.01V665.82h-5161.3zm4838.71 1935.49H2710.43V988.4h4516.12v1612.91zm-967.74 4516.12v2258.06l1290.33.01V7117.43H6258.81zm967.74 1935.49h-645.16v-1612.9l645.16-.01v1612.91zm-967.74-3225.81v967.74h1290.33v-967.74H6258.81zm967.74 645.16h-645.16v-322.58h645.16v322.58zM5452.36 8407.76c-266.77 0-483.87 217.1-483.87 483.87s217.1 483.87 483.87 483.87 483.87-217.1 483.87-483.87-217.09-483.87-483.87-483.87zm0 645.16c-89.03 0-161.29-72.42-161.29-161.29 0-88.87 72.26-161.29 161.29-161.29 89.03 0 161.29 72.42 161.29 161.29 0 88.87-72.26 161.29-161.29 161.29zm-1290.32-645.16c-266.77 0-483.87 217.1-483.87 483.87s217.1 483.87 483.87 483.87 483.87-217.1 483.87-483.87-217.1-483.87-483.87-483.87zm0 645.16c-89.03 0-161.29-72.42-161.29-161.29 0-88.87 72.26-161.29 161.29-161.29 89.03 0 161.29 72.42 161.29 161.29 0 88.87-72.26 161.29-161.29 161.29zm-1290.32-645.16c-266.77 0-483.87 217.1-483.87 483.87s217.1 483.87 483.87 483.87 483.87-217.1 483.87-483.87-217.1-483.87-483.87-483.87zm0 645.16c-89.03 0-161.29-72.42-161.29-161.29 0-88.87 72.26-161.29 161.29-161.29 89.03 0 161.29 72.42 161.29 161.29 0 88.87-72.26 161.29-161.29 161.29zm2096.77-1935.49v967.74l967.74.01v-967.74l-967.74-.01zm645.16 645.17h-322.58v-322.58l322.58-.01v322.59zm-1935.48-645.17v967.74l967.74.01v-967.74l-967.74-.01zm645.16 645.17h-322.58v-322.58l322.58-.01v322.59zm-1935.49-645.17v967.74l967.75.01v-967.74l-967.75-.01zm645.17 645.17h-322.58v-322.58l322.58-.01v322.59zm1935.48-1935.49v967.74h967.74v-967.74h-967.74zm645.16 645.16h-322.58v-322.58h322.58v322.58zm-1935.48-645.16v967.74h967.74v-967.74h-967.74zm645.16 645.16h-322.58v-322.58h322.58v322.58zm-1935.49-645.16v967.74h967.75v-967.74h-967.75zm645.17 645.16h-322.58v-322.58h322.58v322.58zm1935.48-1935.48v967.74h967.74v-967.74h-967.74zm645.16 645.16h-322.58v-322.58h322.58v322.58zm-1935.48-645.16v967.74h967.74v-967.74h-967.74zm645.16 645.16h-322.58v-322.58h322.58v322.58zm-1935.49-645.16v967.74h967.75v-967.74h-967.75zm645.17 645.16h-322.58v-322.58h322.58v322.58zm3225.8-645.16v967.74h1290.33v-967.74H6258.81zm967.74 645.16h-645.16v-322.58h645.16v322.58zM2387.84 3246.47v967.74h1290.33v-967.74H2387.84zm967.75 645.16h-645.16v-322.58h645.16v322.58zm645.16-645.16v967.74h1290.32v-967.74H4000.75zm967.74 645.16h-645.16v-322.58h645.16v322.58zm645.16-645.16h1935.48v322.58H5613.65zm0 645.16h1935.48v322.58H5613.65z"/><path class="fil0" d="M8355.59 4214.21H8194.3V504.53c0-266.77-217.1-483.87-483.87-483.87H2226.55c-266.77 0-483.87 217.1-483.87 483.87v3709.68h-161.29c-266.77 0-483.87 217.1-483.87 483.87v4193.55c0 266.77 217.1 483.87 483.87 483.87h161.29v161.29c0 266.77 217.1 483.87 483.87 483.87h5483.88c266.77 0 483.87-217.1 483.87-483.87V9375.5h161.29c266.77 0 483.87-217.1 483.87-483.87V4698.08c0-266.77-217.1-483.87-483.87-483.87zM1742.68 9052.92h-161.29c-89.03 0-161.29-72.42-161.29-161.29V4698.08c0-88.87 72.26-161.29 161.29-161.29h161.29v4516.13zm6774.2-161.29c0 88.87-72.26 161.29-161.29 161.29H8194.3V5181.95h-322.58v4354.84c0 88.87-72.26 161.29-161.29 161.29H2226.55c-89.03 0-161.29-72.42-161.29-161.29V504.53c0-88.87 72.26-161.29 161.29-161.29h5483.88c89.03 0 161.29 72.42 161.29 161.29v4354.84h322.58v-322.58h161.29c89.03 0 161.29 72.42 161.29 161.29v4193.55z"/><path class="fil0" d="M3033.01 1310.98h3225.81v322.58H3033.01zm3548.38 0h322.58v322.58h-322.58z"/></g></g></svg>