<svg xmlns="http://www.w3.org/2000/svg" width="100mm" height="100mm" viewBox="0 0 10000 10000" shape-rendering="geometricPrecision" text-rendering="geometricPrecision" image-rendering="optimizeQuality" fill-rule="evenodd" clip-rule="evenodd"><defs><style>.fil0{fill:#006463}</style></defs><g id="Слой_x0020_1"><g id="_2241382511568"><path class="fil0" d="M9370.85 4188.13h-645.16V705.23c0-349.24-289.35-633.25-645.16-633.25H661.17c-355.81 0-645.16 284.01-645.16 633.25V5138c0 349.25 289.35 633.25 645.16 633.25h645.16v3482.9c0 349.24 289.35 633.25 645.16 633.25h7419.36c355.81 0 645.16-284.01 645.16-633.25V4821.38c0-349.25-289.35-633.25-645.16-633.25zM661.17 5454.63c-177.9 0-322.58-142.01-322.58-316.63V705.23c0-174.61 144.68-316.62 322.58-316.62h7419.36c177.9 0 322.58 142.01 322.58 316.62V5138c0 174.62-144.68 316.63-322.58 316.63H661.17zm9032.26 3799.52c0 174.61-144.68 316.62-322.58 316.62H1951.49c-177.9 0-322.58-142.01-322.58-316.62V7037.76h8064.52v2216.39zm0-2533.02H1628.91v-316.62h8064.52v316.62zm0-633.25H1628.91v-316.63h6451.62c355.81 0 645.16-284 645.16-633.25v-633.25h645.16c177.9 0 322.58 142.01 322.58 316.63v1266.5z"/><path class="fil0" d="M8564.4 7671.02c-175.16 0-344.84 57.47-483.87 161.16-139.03-103.7-308.71-161.16-483.87-161.16-444.68 0-806.45 355.09-806.45 791.56 0 436.48 361.77 791.57 806.45 791.57 175.16 0 344.84-57.47 483.87-161.16 139.03 103.7 308.71 161.16 483.87 161.16 444.68 0 806.45-355.09 806.45-791.57 0-436.47-361.78-791.56-806.45-791.56zm0 1266.5c-139.35 0-268.06-58.42-362.42-164.33l-121.45-136.15-121.45 136.31c-94.36 105.75-223.07 164.17-362.42 164.17-266.77 0-483.87-213.09-483.87-474.94 0-261.84 217.1-474.93 483.87-474.93 139.35 0 268.06 58.42 362.42 164.32l121.45 136.15 121.45-136.3c94.35-105.76 223.06-164.17 362.42-164.17 266.77 0 483.87 213.09 483.87 474.93 0 261.85-217.1 474.94-483.87 474.94zM661.17 863.54v2216.39l2258.07.01V863.54H661.17zm1935.49 949.88h-322.59v316.63h322.59v633.25l-645.17.01v-316.63l322.58-.01v-316.62h-967.74v316.62h322.58v316.63l-645.16.01v-633.25l322.58-.01v-316.63H983.75v-633.25h645.16v316.63h-322.58v316.62h967.74V1496.8h-322.58v-316.63h645.17v633.25zm2903.22 2216.39h322.58V5138h-322.58zm645.16 0h322.58V5138h-322.58zm645.16 0h322.58V5138H6790.2zm645.17 0h322.58V5138h-322.58zM4370.85 1971.73h3709.68v316.63H4370.85zM5983.75 2605h2096.77v316.63H5983.75zM4370.85 863.54h3064.52v316.63H4370.85zM661.16 3871.5h2580.65v316.63H661.16zM7757.95 863.54h322.58v316.63h-322.58zm-4032.26 0h322.58v316.63h-322.58zM3564.4 3871.5h322.58v316.63H3564.4z"/></g></g></svg>