<svg xmlns="http://www.w3.org/2000/svg" width="100mm" height="100mm" viewBox="0 0 10000 10000" shape-rendering="geometricPrecision" text-rendering="geometricPrecision" image-rendering="optimizeQuality" fill-rule="evenodd" clip-rule="evenodd"><defs><style>.fil0{fill:#006463}</style></defs><g id="Слой_x0020_1"><g id="_2889631048112"><path class="fil0" d="M1123.79 2397.96c-12.67 0-25.56-1.37-38.08-3.88-12.51-2.6-24.79-6.26-36.54-11.14-11.91-4.88-23.19-10.99-33.8-18.01a188.616 188.616 0 0 1-29.68-24.19c-36.32-36.31-57.22-86.74-57.22-138.09 0-12.66 1.38-25.55 3.89-38.3 2.36-12.28 6.26-24.57 11.14-36.54a199.25 199.25 0 0 1 18.01-33.57c7.01-10.76 15.18-20.68 24.18-29.68 9.01-9 19-17.17 29.68-24.41 10.61-7.02 21.89-13.13 33.64-18.01 11.91-4.88 24.19-8.54 36.7-11.06a191 191 0 0 1 76.14 0c12.51 2.52 24.8 6.18 36.55 11.06 11.9 4.88 23.27 10.98 33.79 18.01 10.76 7.25 20.68 15.41 29.68 24.41 9.01 9 17.17 18.92 24.42 29.68 7.01 10.53 13.12 21.89 18 33.57a206.45 206.45 0 0 1 11.06 36.54c2.6 12.75 3.74 25.64 3.74 38.3 0 51.35-20.9 101.78-57.22 138.09-9 9.01-18.92 17.17-29.68 24.19-10.52 7.02-21.89 13.13-33.79 18.01-11.75 4.88-24.04 8.54-36.55 11.14-12.51 2.51-25.33 3.88-38.07 3.88h.01zm0 0zm7224.64 6205.21c-12.74 0-25.63-1.3-38.15-3.89-12.51-2.52-24.79-6.18-36.46-11.06-11.98-4.88-23.27-10.98-33.8-18.01-10.76-7.01-20.76-15.26-29.68-24.18-9-9.01-17.24-19-24.26-29.76a192.432 192.432 0 0 1-17.93-33.72c-4.89-11.75-8.62-24.03-11.14-36.54-2.6-12.52-3.89-25.41-3.89-38.08 0-12.66 1.3-25.63 3.89-38.07 2.52-12.51 6.25-24.87 11.14-36.54 4.88-11.91 10.91-23.27 17.93-33.8 7.01-10.76 15.26-20.68 24.26-29.68 8.92-9 18.92-17.17 29.68-24.41 10.53-7.02 21.81-13.13 33.8-18.01 11.67-4.88 23.95-8.54 36.46-11.06 25.25-5.11 51.2-5.11 76.37 0 12.36 2.52 24.64 6.18 36.55 11.06 11.75 4.88 23.04 10.99 33.57 18.01 10.76 7.25 20.75 15.41 29.68 24.41 9 9 17.24 18.92 24.41 29.68 7.1 10.53 13.13 21.89 18.01 33.8 4.88 11.75 8.62 24.03 11.14 36.54 2.51 12.52 3.73 25.41 3.73 38.07 0 12.67-1.22 25.56-3.73 38.08a196.678 196.678 0 0 1-11.14 36.54 187.584 187.584 0 0 1-18.01 33.72c-7.17 10.76-15.41 20.75-24.41 29.76-8.93 8.92-18.92 17.17-29.68 24.18-10.53 7.02-21.82 13.13-33.57 18.01-11.91 4.88-24.19 8.54-36.7 11.06-12.51 2.52-25.4 3.89-38.07 3.89zm0 0zm-839.84 0H3301.44c-107.87 0-195.31-87.43-195.31-195.31 0-107.81 87.43-195.32 195.31-195.32h4207.15c107.88 0 195.31 87.51 195.31 195.32 0 107.87-87.43 195.31-195.31 195.31zm0 0zm-438.31-5508.95c-12.89 0-25.56-1.14-38.3-3.74-12.51-2.52-24.79-6.18-36.54-11.06-11.67-4.88-23.05-10.98-33.72-18.01-10.61-7.01-20.76-15.18-29.76-24.18-8.93-9-17.17-19.15-24.19-29.68-7.01-10.76-13.12-22.13-18-33.8-4.88-11.75-8.55-24.03-11.06-36.54-2.6-12.67-3.74-25.41-3.74-38.3 0-51.35 20.67-101.7 56.99-138.09 9-8.93 19.15-16.94 29.76-24.19 10.67-7.02 22.05-13.13 33.72-18.01 11.75-4.88 24.03-8.54 36.54-11.06 63.48-12.74 130.85 8.01 176.39 53.33 36.32 36.32 57.22 86.67 57.22 138.1 0 12.89-1.37 25.55-3.89 38.22-2.59 12.51-6.25 24.79-11.13 36.54-4.89 11.75-10.99 23.04-18.01 33.8-7.17 10.53-15.18 20.75-24.19 29.68-36.31 36.32-86.74 56.99-138.09 56.99zm0 0z"/><path class="fil0" d="M9765.51 1529.67H7891.43L7348.76 439.35c-32.96-66.3-100.71-108.26-174.87-108.26l-207.52-.01c-74.08 0-141.83 41.96-174.79 108.26l-542.67 1090.32-844.66.01V526.4c0-107.87-87.43-195.31-195.31-195.31l-1452.33-.01c-107.87 0-195.31 87.43-195.31 195.32v1003.26l-1456.15.01c-194.93-350.65-569.23-588.53-998.07-588.53-304.8 0-601.05 125.35-812.61 343.93-209.88 216.68-320.51 500.8-311.81 800.17v6357.41c-.61 21.51-.53 43.11.08 64.85-6.18 299.22 107.95 584.18 321.58 802.53 219.95 224.99 526.35 354.01 840.45 354.01h8642.11c107.87 0 195.31-87.51 195.31-195.32V1746.26c0-119.4-97.2-216.59-216.68-216.59zM7575.27 5667.54h-309.75V3738.83c0-107.81-87.51-195.32-195.32-195.32-107.87 0-195.31 87.51-195.31 195.32v1928.71h-309.82v-3427.2h1010.2v3427.2zm-1010.2 390.62h1010.2v317.31l-1010.2-.01v-317.3zm1010.2-4287.11v78.66h-1010.2v-78.66l209.27-420.45H7366l209.27 420.45zm-1010.2 4995.04h1010.2v745.62h-1010.2v-745.62zm505.14-6009.81l101.32 203.7h-202.72l101.4-203.7zm-3118.28-34.57h1061.7v1025.01h-194.4c-107.88 0-195.31 87.43-195.31 195.31 0 107.81 87.43 195.31 195.31 195.31h194.4v1126.1h-194.4c-107.88 0-195.31 87.43-195.31 195.31 0 107.81 87.43 195.32 195.31 195.32h194.4v1126.09h-194.4c-107.88 0-195.31 87.43-195.31 195.31s87.43 195.32 195.31 195.32h194.4v1126.09h-194.4c-107.88 0-195.31 87.43-195.31 195.31s87.43 195.32 195.31 195.32h194.4v824.12h-1061.7V721.71zM575 1556.83c140.54-145.11 329.44-225.07 532.08-225.07 413.82 0 750.5 336.68 750.5 750.5V7646.6c-150.07-131.38-334.85-224.08-538.48-262.45V2978.41c0-107.88-87.43-195.32-195.31-195.32s-195.32 87.43-195.32 195.32v4400.32c-204.16 32.95-397.34 121.53-555.19 255.66V2082.26c0-2.06 0-4.12-.08-6.26-6.25-193.93 65.46-378.34 201.8-519.17zm9016.56 7716.58h-8446.8c-209.73 0-414.2-86.21-561.22-236.51-139.92-143.05-214.61-328.6-210.26-522.46 0-2.14 0-4.2-.08-6.34.08-.84.08-1.75.08-2.67v-55.69c6.4-175.7 76.98-340.96 201.72-469.74 140.53-145.11 329.43-225.07 532.07-225.07 413.82 0 750.5 336.68 750.5 750.5 0 107.88 87.43 195.32 195.32 195.32 107.87 0 195.31-87.43 195.31-195.32V2082.25c0-54.92-3.97-109.02-11.6-161.97l1324.7.01v5786.66c0 107.87 87.43 195.31 195.31 195.31h1452.33c107.88 0 195.31-87.43 195.31-195.31V1920.29h770.19v5786.66c0 107.87 87.51 195.31 195.31 195.31h1400.83c107.88 0 195.31-87.43 195.31-195.31V1920.29h1625.67v7353.12zm0 0z"/></g></g></svg>