<svg xmlns="http://www.w3.org/2000/svg" width="100mm" height="100mm" viewBox="0 0 10000 10000" shape-rendering="geometricPrecision" text-rendering="geometricPrecision" image-rendering="optimizeQuality" fill-rule="evenodd" clip-rule="evenodd"><defs><style>.fil0{fill:#006463}</style></defs><g id="Слой_x0020_1"><g id="_2889056013072"><path class="fil0" d="M1462.05 3539.13H4118.3c107.88 0 195.31-87.43 195.31-195.31v-1562.5c0-107.88-87.43-195.31-195.31-195.31l-2656.25-.01c-107.88 0-195.31 87.43-195.31 195.31v1562.5c0 107.88 87.43 195.31 195.31 195.31v.01zm195.31-1562.5h2265.63v1171.88l-2265.63-.01V1976.63zm0 0zm3535.16 1562.5h1582.03c107.88 0 195.31-87.43 195.31-195.31s-87.43-195.31-195.31-195.31l-1582.03-.01c-107.88 0-195.31 87.43-195.31 195.31s87.43 195.31 195.31 195.31v.01zm0 0zm1310.73 1172.33c-51.42 0-101.78 20.9-138.09 57.22-36.32 36.32-57.22 86.67-57.22 138.09 0 51.35 20.9 101.7 57.22 138.09 36.32 36.32 86.67 57.22 138.09 57.22 51.35 0 101.7-20.9 138.09-57.22 36.32-36.39 57.22-86.75 57.22-138.09 0-51.42-20.9-101.78-57.22-138.09-36.39-36.32-86.75-57.22-138.09-57.22zm0 0zm-5041.2 390.62h4240.42c107.88 0 195.31-87.43 195.31-195.31s-87.43-195.31-195.31-195.31H1462.05c-107.88 0-195.31 87.43-195.31 195.31s87.43 195.31 195.31 195.31zm0 0zm3029.79 2734.38H2321.43c-107.88 0-195.31 87.43-195.31 195.31s87.43 195.31 195.31 195.31h2170.41c107.88 0 195.31-87.43 195.31-195.31s-87.43-195.31-195.31-195.31zm0 0zm-3006.98 0c-51.35 0-101.78 20.9-138.09 57.22s-57.22 86.67-57.22 138.09c0 51.35 20.9 101.7 57.22 138.09 36.32 36.32 86.75 57.22 138.09 57.22 51.35 0 101.78-20.9 138.09-57.22 36.32-36.39 57.22-86.75 57.22-138.09 0-51.42-20.9-101.78-57.22-138.09s-86.75-57.22-138.09-57.22zm0 0zm-22.81-1171.88H5055.8c107.88 0 195.31-87.43 195.31-195.31s-87.43-195.31-195.31-195.31H1462.05c-107.88 0-195.31 87.43-195.31 195.31s87.43 195.31 195.31 195.31zm0 0z"/><path class="fil0" d="M10016.74 5285.88c0-222.93-86.82-432.51-244.45-590.13L9341 4264.46c-157.7-157.62-367.28-244.45-590.21-244.45-195.01 0-379.71 66.38-528.49 188.52V2253.42c0-51.8-20.52-101.47-57.14-138.09L6133.91 81.64a195.095 195.095 0 0 0-138.17-57.3H839.49c-452.35 0-820.31 367.97-820.31 820.31v8359.37c0 452.35 367.97 820.31 820.31 820.31l6562.5.01c452.35 0 820.31-367.97 820.31-820.31V7438.89c0-4.12-.38-8.24-.61-12.28l1550.52-1550.6c157.7-157.62 244.52-367.2 244.52-590.13h.01zM6948.5 8147.36l-391.46-391.46 2129.82-2129.82 391.46 391.46L6948.5 8147.36zm-1522.06 178.83l284.12 284.12-415.65 131.38 131.53-415.5zm703.81 151.37l-571.06-571.06 143.2-452.88 440.22 440.29c.08 0 .08 0 .08.08.08 0 .08.08.15.08l440.22 440.22-452.81 143.27zm150.6-997.93l-391.46-391.46 2129.82-2129.82 391.46 391.46-2129.82 2129.82zm-92.24-6790.54l1366.5 1368.18H6618.3c-236.97 0-429.69-192.79-429.69-429.69V689.09zm1643.07 8514.94c0 236.97-192.72 429.69-429.69 429.69l-6562.5-.01c-236.97 0-429.69-192.72-429.69-429.69V844.65c0-236.97 192.72-429.69 429.69-429.69l4958.42.01v1171.04l-605.47-.01c-107.8 0-195.31 87.43-195.31 195.31s87.51 195.31 195.31 195.31l683.67.01c131.38 278.24 414.58 471.27 742.11 471.27l1213.46-.01v2145.54L5475.04 6950.07c-1.22 1.14-2.21 2.52-3.43 3.74-2.98 3.2-5.95 6.33-8.77 9.77-1.68 1.98-3.13 4.04-4.73 6.18-2.29 2.98-4.58 5.87-6.64 9-1.91 2.75-3.59 5.57-5.26 8.39-1.53 2.59-3.13 5.11-4.58 7.71-1.91 3.59-3.66 7.25-5.34 10.91-.99 2.06-1.98 4.12-2.9 6.26-1.83 4.35-3.43 8.77-4.96 13.2-.46 1.37-1.07 2.67-1.45 4.04l-.84 2.75c-.15.23-.23.53-.31.84l-616.68 1949.62c-21.97 69.5-3.43 145.42 48.14 196.99a195.293 195.293 0 0 0 138.09 57.22c19.68 0 39.52-2.98 58.9-9.16l1949.69-616.68c.23 0 .38-.15.61-.15l2.9-.92c1.37-.46 2.75-1.07 4.12-1.53 4.43-1.53 8.77-3.05 13.05-4.88 2.14-.92 4.27-1.98 6.41-2.98 3.59-1.68 7.25-3.36 10.76-5.26 2.67-1.45 5.19-3.05 7.78-4.58 2.82-1.75 5.57-3.43 8.32-5.26 3.13-2.06 6.1-4.35 9.08-6.64 2.06-1.53 4.12-3.05 6.18-4.73 3.36-2.82 6.49-5.8 9.69-8.77 1.22-1.14 2.59-2.21 3.81-3.43l745.01-745.01-.01 1387.32zm1664.35-3604.2l-141.45 141.45-1059.19-1059.11 141.53-141.53c83.85-83.85 195.31-130 313.87-130 118.64 0 230.1 46.16 313.95 130l431.29 431.29c83.85 83.85 130.08 195.31 130.08 313.95 0 118.56-46.23 230.1-130.08 313.95zm0 0z"/></g></g></svg>