<svg xmlns="http://www.w3.org/2000/svg" width="100mm" height="100mm" viewBox="0 0 10000 10000" shape-rendering="geometricPrecision" text-rendering="geometricPrecision" image-rendering="optimizeQuality" fill-rule="evenodd" clip-rule="evenodd"><defs><style>.fil0{fill:#00928d}</style></defs><g id="Слой_x0020_1"><g id="_2967024804688"><path class="fil0" d="M1471.94 9.86v10000h7096.78V9.86H1471.94zm6774.19 9677.41h-6451.6V332.45h6451.6v9354.82z"/><path class="fil0" d="M7923.58 5171.15H2117.11v4193.57h5806.47V5171.15zM4859.07 9042.13H2439.7V5493.74h2419.37v3548.39zm2741.92 0H5181.62V5493.74h2419.37v3548.39zm322.59-8387.1H2117.11V4848.6h5806.47V655.03zM4859.07 4525.98H2439.7V977.59h2419.37v3548.39zm2741.92 0H5181.62V977.59h2419.37v3548.39z"/><path class="fil0" d="M6955.82 6945.35h322.59v645.17h-322.59zm-4193.56 0h322.59v645.17h-322.59zm1774.19-5645.18h-1774.2v2903.22h1774.2V1300.17zm-322.59 2580.67H3084.84v-483.88h1129.02v483.88zm.04-806.44H3084.84v-645.17H4213.9v645.17zm0-967.76H3084.84v-483.88H4213.9v483.88zm3064.51-806.47h-1774.2v2903.22h1774.2V1300.17zm-322.59 2580.67H5826.8V1622.76h1129.02v2258.08z"/></g></g></svg>