<svg xmlns="http://www.w3.org/2000/svg" width="100mm" height="100mm" viewBox="0 0 10000 10000" shape-rendering="geometricPrecision" text-rendering="geometricPrecision" image-rendering="optimizeQuality" fill-rule="evenodd" clip-rule="evenodd"><path d="M1274.29 2729C551.03 2786.57-42.8 3420.12 24.87 4164.3c58.08 638.78 622.79 1162.93 1283.7 1092.78 554.19-58.79 1008.83-555.07 935.27-1132.95-59.79-469.45-488.63-855.31-983.91-776.49-384.53 61.19-702.49 424.73-614.75 838.24 31.8 149.82 117.83 279.83 240.33 368.01 122.5 88.18 293.27 131.42 459.64 78.45 108.99-34.69 195.98-104.32 254.96-204.39 58.97-100.1 78.11-256.07-.74-379.9-63.56-99.88-121.91-119.65-213.46-135.05-45.76-7.7-109.76-10.55-177.88 33.76-68.12 44.31-104.21 135.94-104.21 200.72-.63 49.46 18.51 97.1 53.23 132.31-18.18-5.22-36.21-12.55-55.31-26.32-44.61-32.13-83.04-90.44-94.51-144.45-39.2-184.8 119.57-365.28 310.78-395.74 272.02-43.31 523.61 183.29 558.56 457.53 45.57 358.02-249.63 680.13-607.13 718.04-443.31 47.05-835.8-317.26-875.89-758.17-48.05-528.16 385.6-990.91 910.1-1032.63 4.66-.37 9.37-.59 14.03-.85h7403.97c4.66.37 9.33.52 13.96.85 524.5 41.72 958.15 504.47 910.1 1032.71-40.09 440.94-432.58 805.22-875.89 758.17-357.54-37.95-652.73-360.06-607.13-718.04 34.91-274.28 286.5-500.84 558.56-457.53 191.21 30.43 349.99 210.9 310.75 395.74-11.48 54.01-49.9 112.36-94.51 144.45-19.1 13.73-37.02 21.1-55.16 26.32 34.65-35.24 53.75-82.89 53.09-132.31 0-64.78-36.02-156.41-104.1-200.72-68.12-44.31-132.09-41.46-177.88-33.76-91.55 15.4-149.93 35.21-213.53 135.05-78.82 123.79-59.64 279.8-.67 379.9 58.97 100.1 145.97 169.74 254.96 204.39 166.37 52.94 337.07 9.74 459.57-78.45s208.53-218.2 240.33-368.01c87.74-413.48-230.23-777.01-614.72-838.24-495.29-78.82-924.16 307.04-983.91 776.49-73.6 577.88 381.16 1074.12 935.34 1132.95 660.88 70.12 1225.54-454 1283.63-1092.82 67.67-744.17-526.16-1377.77-1249.42-1435.3-15.03-2.3-28.91-1.37-43.31-1.67h-7404c-14.4-.89-29.62.78-43.39 1.74l-.03-.11zM577.24 877.08c-102.21 0-185.1 82.89-185.1 185.1v370.2c0 49.09 19.51 96.18 54.23 130.87l740.4 740.4a185.064 185.064 0 0 0 130.87 54.23h7403.97c49.09 0 96.18-19.51 130.87-54.23l740.4-740.4a185.064 185.064 0 0 0 54.23-130.87v-370.2c0-102.21-82.89-185.1-185.1-185.1H577.24zm185.1 370.2h8514.57v108.39l-632 632-7250.64.01-631.93-632v-108.4zm2036.09 2591.39c-102.21 0-185.1 82.89-185.1 185.1v5182.78c.04 102.25 82.92 185.1 185.17 185.06 36.54 0 72.23-10.81 102.62-31.06L3954 8658.54c50.57-33.69 81.37-90.07 82.44-150.82l57.64-3370.25v-3.11c0-121.42 372.34-124.86 370.19-3.33v2964.92c.04 102.25 82.92 185.1 185.17 185.06 36.54 0 72.23-10.81 102.62-31.06l1110.6-740.4c51.49-34.32 82.41-92.11 82.44-154V5134.36c0-123.6 370.2-123.6 370.2 0v1850.99c.04 102.25 82.96 185.1 185.21 185.03 28.69 0 57.01-6.7 82.7-19.55l740.4-370.2c62.67-31.36 102.29-95.4 102.32-165.52V4023.73c0-102.21-82.89-185.1-185.1-185.1l-4442.36.01h-.04v.03zm185.1 370.2h4072.18v2291.82l-370.2 185.1V5134.36c0-617.04-1110.6-617.04-1110.6 0v2122.13l-740.4 493.62V5134.36v3.26c10.99-619.11-1110.51-622.48-1110.51-3.26v-3.18l-55.97 3273.23-684.42 456.31V4208.87h-.08z" fill="#00928d"/></svg>