<svg xmlns="http://www.w3.org/2000/svg" width="100mm" height="100mm" viewBox="0 0 10000 10000" shape-rendering="geometricPrecision" text-rendering="geometricPrecision" image-rendering="optimizeQuality" fill-rule="evenodd" clip-rule="evenodd"><defs><style>.fil0{fill:#006463}</style></defs><g id="Слой_x0020_1"><g id="_2889142717488"><path class="fil0" d="M5157.35 470.4c-36.33-36.33-86.72-57.23-138.09-57.23-51.37 0-101.76 20.88-138.09 57.23-36.32 36.33-57.22 86.52-57.22 138.09 0 51.37 20.9 101.76 57.23 138.07 36.32 36.34 86.71 57.24 138.08 57.24 51.37 0 101.76-20.9 138.09-57.25 36.32-36.31 57.22-86.7 57.22-138.06s-20.9-101.76-57.22-138.09z"/><path class="fil0" d="M10019.26 4143.64c0-452.32-367.99-820.31-820.31-820.31-245.9 0-466.7 108.91-617.17 280.82l310.66-1012.56c158.36-516.13 65.14-1061.13-255.78-1495.29-320.92-434.12-814.61-683.13-1354.49-683.13H5859.1c-107.87 0-195.31 87.46-195.31 195.31 0 107.85 87.44 195.31 195.31 195.31l1423.07.01c414.67 0 793.87 191.25 1040.37 524.71 246.48 333.46 318.09 752.07 196.46 1148.5l-425.47 1386.7c-46.97-8.4-95.23-13.03-144.59-13.03l-5859.37-.01c-49.36 0-97.62 4.63-144.59 13.03L1519.51 2477c-121.64-396.43-50.04-815.02 196.46-1148.5 246.49-333.45 625.69-524.7 1040.38-524.7h1403.53c107.87 0 195.31-87.46 195.31-195.31 0-107.85-87.44-195.31-195.31-195.31l-1403.53-.01c-539.88 0-1033.57 249-1354.49 683.14-320.92 434.16-414.14 979.16-255.78 1495.29l310.66 1012.56c-150.47-171.92-371.27-280.83-617.17-280.83-452.32 0-820.31 367.99-820.31 820.31 0 187.23 63.05 360.02 169.04 498.22 198.89 651.74 299.69 1327.46 299.65 2009.02l-.08 1457.42v.36l-.06 1054.49c0 51.8 20.57 101.48 57.21 138.13a195.344 195.344 0 0 0 138.11 57.21h781.44c107.87 0 195.31-87.46 195.31-195.31v-859.37l6718.75-.01v859.38c0 107.85 87.44 195.31 195.31 195.31h781.45c51.8 0 101.48-20.59 138.11-57.21 36.62-36.64 57.21-86.33 57.21-138.13l-.06-1054.49v-.36l-.08-1457.42c-.04-681.56 100.76-1357.29 299.65-2009.02 105.99-138.2 169.04-310.99 169.04-498.22zm-8750 4824.22h-390.8l.04-664.06h390.76v664.06zm0-4296.87v3242.19l-390.74-.01.06-1262.25c.02-574.96-67.83-1145.94-202.13-1703.26 52.75 10.69 107.28 16.3 163.12 16.3 107.87 0 195.31-87.46 195.31-195.31 0-107.85-87.44-195.31-195.31-195.31-236.93 0-429.69-192.75-429.69-429.69s192.75-429.69 429.69-429.69 429.69 192.75 429.69 429.69v527.34zm7109.37 3242.18H1659.88V6702.23c0-236.93 192.75-429.69 429.69-429.69l5859.38.01c236.93 0 429.69 192.75 429.69 429.69l-.01 1210.93zm0-2460.93c0 236.93-192.75 429.69-429.69 429.69l-5859.37-.01c-223.75 0-408.03-171.93-427.83-390.62h1804.3c107.87 0 195.31-87.46 195.31-195.31 0-107.85-87.44-195.31-195.31-195.31l-1806.16-.01v-429.69c0-236.93 192.75-429.69 429.69-429.69l5859.38.01c236.93 0 429.69 192.75 429.69 429.69l-.01 781.25zm390.63 3515.62V8303.8h390.76l.04 664.06h-390.8zm429.69-4394.53c-107.87 0-195.31 87.46-195.31 195.31 0 107.85 87.44 195.31 195.31 195.31 55.84 0 110.37-5.61 163.13-16.29-134.3 557.32-202.17 1128.3-202.13 1703.26l.05 1262.25h-390.74V4143.64c0-236.93 192.75-429.69 429.69-429.69 236.93 0 429.69 192.75 429.69 429.69s-192.76 429.69-429.69 429.69z"/><path class="fil0" d="M4314.18 5157.9c-36.52-36.33-86.72-57.23-138.09-57.23-51.56 0-101.76 20.88-138.28 57.23-36.33 36.33-57.03 86.72-57.03 138.09 0 51.37 20.7 101.76 57.03 138.07 36.33 36.35 86.72 57.25 138.28 57.25 51.37 0 101.76-20.9 138.09-57.25 36.33-36.31 57.23-86.7 57.23-138.07 0-51.37-20.9-101.76-57.23-138.09z"/></g></g></svg>