<svg xmlns="http://www.w3.org/2000/svg" width="100mm" height="100mm" viewBox="0 0 10000 10000" shape-rendering="geometricPrecision" text-rendering="geometricPrecision" image-rendering="optimizeQuality" fill-rule="evenodd" clip-rule="evenodd"><defs><style>.fil0{fill:#00928d}</style></defs><g id="Слой_x0020_1"><g id="_2967023149040"><path class="fil0" d="M5939.43 5390.21c-31.97-215.16-147.24-409.09-320.83-539.97V1117.08c236.23-267.87 219.23-674.44-38.55-921.65-257.79-247.3-664.76-247.3-922.55 0-257.79 247.21-274.79 653.78-38.48 921.65v3733.16c-173.67 130.88-288.94 324.81-320.91 539.97-1354.74 236.64-2343.59 1412.42-2344.64 2787.67v333.19c0 276.01 223.7 499.79 499.78 499.79h1512.64c82.4 573.41 573.57 999.1 1152.92 999.1 579.26 0 1070.44-425.69 1152.84-999.1h1512.72c276 0 499.78-223.78 499.78-499.79v-333.19c-1.14-1375.25-989.98-2551.03-2344.73-2787.67h.01zm-1320.41 120.88c0-276 223.7-499.79 499.79-499.79 276 0 499.79 223.79 499.79 499.79v2.2c0 276.01-223.79 499.79-499.79 499.79-276.09 0-499.79-223.78-499.79-499.79v-2.2zM5118.81 347.8c184 0 333.19 149.19 333.19 333.19s-149.19 333.2-333.19 333.2c-184.09 0-333.2-149.2-333.2-333.2s149.11-333.19 333.2-333.19zm-166.6 975.91c108.76 31.56 224.36 31.56 333.2 0V4696a832.637 832.637 0 0 0-333.2 0V1323.71zm166.6 8353.54c-395.75-.49-736.67-278.86-816.39-666.39h1632.7c-79.72 387.53-420.64 665.9-816.31 666.39zm2832.16-1166.18c0 92-74.6 166.6-166.6 166.6H2453.25c-92.09 0-166.6-74.6-166.6-166.6v-333.19c1.06-1198.65 852.68-2227.84 2029.92-2453.17 94.77 365.57 424.63 620.84 802.24 620.84 377.53 0 707.39-255.27 802.16-620.84 1177.25 225.33 2028.86 1254.53 2030 2453.17v333.19zm0 0z"/><path class="fil0" d="M4251.17 6078.73a2140.47 2140.47 0 0 0-368.42 130.32c-70.77 32.86-109.24 110.55-92.49 186.85 16.76 76.22 84.2 130.64 162.37 130.81 23.83.16 47.5-4.88 69.22-14.81 100.3-45.88 204.43-82.73 311.23-109.98 58.9-13.5 105.84-57.84 122.76-115.92 16.83-58 .89-120.64-41.57-163.59s-104.94-59.54-163.1-43.35v-.33zm0 0zm-726.26 338c-567.39 407.3-904.16 1062.71-905.06 1761.15 0 92 74.51 166.59 166.59 166.59 92.01 0 166.6-74.59 166.6-166.59.9-591.15 286.01-1145.77 766.28-1490.43 49.95-34.01 77.52-92.49 72.07-152.69-5.53-60.19-43.12-112.66-98.43-137.15-55.23-24.57-119.41-17.16-167.73 19.12h-.32zm0 0z"/></g></g></svg>