<svg xmlns="http://www.w3.org/2000/svg" width="100mm" height="100mm" viewBox="0 0 10000 10000" shape-rendering="geometricPrecision" text-rendering="geometricPrecision" image-rendering="optimizeQuality" fill-rule="evenodd" clip-rule="evenodd"><path d="M4881.29 3516.56c35.72 17.85 71.43 35.72 107.15 35.72s71.43-17.85 107.15-35.72l1250-892.85c35.72-35.72 71.43-89.28 71.43-142.85 0-53.57-17.85-107.15-71.43-142.85l-1250-892.85c-71.43-35.72-160.72-35.72-214.28 0l-1250 892.85c-35.72 35.72-71.43 89.28-71.43 142.85 0 53.57 35.72 107.15 71.43 142.85l1249.98 892.85zm107.15-1714.28l946.43 678.57-946.43 678.56-946.43-678.57 946.43-678.56zm357.15 1928.56c0 53.57 35.72 107.15 71.43 142.85l1250 892.85c35.72 17.85 71.43 35.72 107.15 35.72s71.43-17.85 107.15-35.72l1250-892.85c35.72-35.72 71.43-89.28 71.43-142.85 0-53.57-17.85-107.15-71.43-142.85l-1250-892.85c-71.43-35.72-160.72-35.72-214.28 0l-1250 892.85c-35.75 35.72-71.45 89.29-71.45 142.85zm1428.57-678.56l946.43 678.57-946.43 678.57-946.43-678.57 946.43-678.57zM3095.6 4766.56c35.72 17.85 71.43 35.72 107.15 35.72s71.43-17.85 107.15-35.72l1249.99-892.85c35.72-35.72 71.43-89.28 71.43-142.85 0-53.57-17.85-107.15-71.43-142.85L3309.9 2695.16c-71.43-35.72-160.72-35.72-214.28 0l-1250 892.85c-35.72 35.72-71.43 89.28-71.43 142.85 0 53.57 35.72 107.15 71.43 142.85l1249.98 892.85zm107.13-1714.28l946.42 678.57-946.42 678.57-946.43-678.57 946.43-678.57zm1892.86 892.85c-71.43-35.72-160.72-35.72-214.28 0l-1250 892.85c-35.72 35.72-71.43 89.27-71.43 142.84 0 53.57 35.72 107.15 71.43 142.85l1250 892.85c35.72 17.85 71.43 35.72 107.15 35.72s71.43-17.85 107.15-35.72l1250-892.85c35.72-35.72 71.43-89.28 71.43-142.85 0-53.57-17.85-107.14-71.43-142.84l-1250.02-892.85zM4988.44 5659.4l-946.43-678.57 946.43-678.55 946.43 678.56-946.43 678.56zm1357.15 1678.58l-1250-892.85c-71.43-35.72-160.72-35.72-214.28 0l-1250 892.85c-35.72 35.72-71.43 89.28-71.43 142.85 0 53.57 35.72 107.15 71.43 142.85l1250 892.85c35.72 17.85 71.43 35.72 107.15 35.72s71.43-17.85 107.15-35.72l1250-892.85c35.72-35.72 71.43-89.28 71.43-142.85 0-53.57-17.88-107.13-71.45-142.85zM4988.44 8159.4l-946.43-678.57 946.43-678.56 946.43 678.57-946.43 678.56zm4928.57-3321.41l-1250-892.85c-71.43-35.72-160.72-35.72-214.28 0l-1250 892.85c-35.72 35.72-71.43 89.27-71.43 142.84 0 53.57 35.72 107.15 71.43 142.85l1250 892.85c35.72 17.85 71.43 35.72 107.15 35.72s71.43-17.85 107.15-35.72l1250-892.85c35.72-35.72 71.43-89.28 71.43-142.85 0-53.57-17.87-107.12-71.45-142.84zM8559.87 5659.4l-946.43-678.57 946.43-678.56 946.43 678.56-946.43 678.57zm-428.58 428.58l-1250-892.85c-71.43-35.72-160.72-35.72-214.28 0l-1250 892.85c-35.72 35.72-71.43 89.28-71.43 142.85 0 53.57 35.72 107.15 71.43 142.85l1250 892.85c35.72 17.85 71.43 35.72 107.15 35.72s71.43-17.85 107.15-35.72l1250-892.85c35.72-35.72 71.43-89.28 71.43-142.85 0-53.57-17.87-107.13-71.45-142.85zM6774.16 6909.4l-946.43-678.57 946.43-678.57 946.43 678.57-946.43 678.57zM2845.6 4980.83c0-53.57-17.85-107.14-71.43-142.84l-1250-892.85c-71.43-35.72-160.72-35.72-214.28 0l-1250 892.85c-35.72 35.72-71.44 89.28-71.44 142.84s35.72 107.15 71.43 142.85l1250 892.85c35.72 17.85 71.43 35.72 107.15 35.72s71.43-17.85 107.15-35.72l1250-892.85c35.7-35.7 71.42-89.28 71.42-142.85zM1417.02 5659.4l-946.43-678.57 946.43-678.56 946.43 678.56-946.43 678.57zm3214.27 571.43c0-53.57-17.85-107.15-71.43-142.85l-1249.99-892.85c-71.43-35.72-160.72-35.72-214.28 0l-1250 892.85c-35.72 35.72-71.43 89.28-71.43 142.85 0 53.57 35.72 107.15 71.43 142.85l1250 892.85c35.72 17.85 71.43 35.72 107.15 35.72s71.43-17.85 107.15-35.72l1249.99-892.85c35.71-35.7 71.41-89.28 71.41-142.85zM3202.73 6909.4l-946.43-678.57 946.43-678.57 946.42 678.57-946.42 678.57z" fill="#00928d"/></svg>