<svg xmlns="http://www.w3.org/2000/svg" width="100mm" height="100mm" viewBox="0 0 10000 10000" shape-rendering="geometricPrecision" text-rendering="geometricPrecision" image-rendering="optimizeQuality" fill-rule="evenodd" clip-rule="evenodd"><defs><style>.fil0{fill:#006463}</style></defs><g id="Слой_x0020_1"><g id="_2889056009680"><path class="fil0" d="M3333.69 7502.97c-76.91-76.89-201.54-76.89-278.48 0L2033.3 8524.88c-76.89 76.89-76.89 201.56 0 278.48 38.46 38.46 88.85 57.68 139.22 57.68 50.39 0 100.78-19.22 139.22-57.68l1021.93-1021.91c76.92-76.9 76.92-201.57.02-278.48zm225.67-422.58c-253.38 0-253.81 393.79 0 393.79 253.37 0 253.78-393.79 0-393.79z"/><path class="fil0" d="M9926.08 2124.15L7851.18 49.25c-36.95-36.92-87.01-57.68-139.24-57.68-52.23 0-102.29 20.76-139.22 57.68l-1369.3 1369.3-.02.02s0 .02-.02.02L4834.13 2787.85l-.04.04-.04.04L726.07 6895.9s0 .02-.02.02l-684.62 684.6c-36.9 36.94-57.66 87.02-57.66 139.22s20.76 102.3 57.68 139.22l2074.92 2074.92c38.46 38.46 88.85 57.68 139.22 57.68 50.39 0 100.76-19.22 139.22-57.68L9926.09 2402.6c36.91-36.91 57.68-87.01 57.68-139.22a196.996 196.996 0 0 0-57.69-139.23zM2255.59 9516.19L459.14 7719.74l406.13-406.13 344.94 344.94c38.46 38.46 88.85 57.68 139.22 57.68 50.39 0 100.76-19.22 139.22-57.68 76.89-76.89 76.89-201.56 0-278.48l-344.92-344.94 406.25-406.25 629.16 629.16c38.46 38.46 88.85 57.68 139.22 57.68 50.39 0 100.76-19.24 139.22-57.68 76.89-76.89 76.89-201.56 0-278.46l-629.16-629.16 406.23-406.23 344.94 344.94c38.46 38.46 88.85 57.68 139.22 57.68 50.37 0 100.76-19.22 139.22-57.68 76.89-76.89 76.89-201.56 0-278.48l-344.94-344.94 406.15-406.15 629.24 629.26c38.46 38.46 88.85 57.68 139.22 57.68 50.39 0 100.78-19.24 139.22-57.68 76.89-76.89 76.89-201.56 0-278.46l-629.26-629.26 406.17-406.16 344.94 344.8c38.44 38.43 88.83 57.63 139.18 57.63 50.41 0 100.8-19.24 139.24-57.69 76.88-76.91 76.86-201.58-.06-278.48l-344.88-344.73 406.31-406.31 629.26 629.26c38.45 38.46 88.84 57.68 139.21 57.68 50.37 0 100.78-19.22 139.22-57.68 76.89-76.89 76.89-201.56 0-278.48L4567 3611.68l406.12-406.13 344.94 344.94c38.46 38.46 88.85 57.68 139.22 57.68 50.37 0 100.78-19.24 139.22-57.68 76.89-76.89 76.89-201.56 0-278.46l-344.81-344.91 406.15-406.15 629.24 629.26c38.46 38.46 88.85 57.68 139.22 57.68 50.39 0 100.76-19.24 139.22-57.68 76.89-76.89 76.89-201.56 0-278.46l-629.26-629.28 406.23-406.23 344.84 344.84c38.46 38.46 88.85 57.68 139.22 57.68 50.37 0 100.76-19.22 139.22-57.68 76.89-76.89 76.89-201.56 0-278.48l-344.8-344.84 406.25-406.25 629.26 629.26c38.46 38.46 88.85 57.68 139.22 57.68 50.37 0 100.78-19.24 139.22-57.68 76.89-76.89 76.89-201.56 0-278.46L7305.8 873.07l406.13-406.13 1796.45 1796.45-7252.79 7252.8z"/></g></g></svg>