<svg xmlns="http://www.w3.org/2000/svg" width="100mm" height="100mm" viewBox="0 0 10000 10000" shape-rendering="geometricPrecision" text-rendering="geometricPrecision" image-rendering="optimizeQuality" fill-rule="evenodd" clip-rule="evenodd"><defs><style>.fil0{fill:#006463}</style></defs><g id="Слой_x0020_1"><g id="_2889631056048"><path class="fil0" d="M6946.81-9.75H3060.09c-1098.49 0-1992.18 893.69-1992.18 1992.19 0 1032.6 789.73 1884.22 1796.87 1982.7v693.08c0 78.98 47.6 150.21 120.57 180.45 72.99 30.23 156.99 13.54 212.85-42.32l821.7-821.73h1986.64l821.7 821.7c37.36 37.36 87.3 57.21 138.14 57.21 25.16 0 50.55-4.88 74.71-14.88 72.99-30.23 120.57-101.45 120.57-180.45v-695.14c454.43-48.48 875.21-250.21 1200.92-579.14C8734.29 3008.53 8939 2510.8 8939 1982.44 8939 883.94 8045.31-9.75 6946.81-9.75zm17.46 3593.52c-107.05 1.13-193.24 88.24-193.24 195.29v407.64l-545.49-545.49a195.321 195.321 0 0 0-138.1-57.21H3939c-51.8 0-101.48 20.59-138.11 57.21l-545.48 545.49v-407.39c0-107.87-87.44-195.31-195.31-195.31-883.11 0-1601.56-718.46-1601.56-1601.56 0-883.11 718.46-1601.56 1601.56-1601.56h3886.71c883.11 0 1601.56 718.46 1601.56 1601.56.01 873.65-710.62 1592.01-1584.1 1601.33z"/><path class="fil0" d="M6342.73 1043.55c-76.27-76.29-199.94-76.29-276.21 0l-141.04 141.04c-222.1-252.95-547.49-413.09-909.78-413.09-667.71 0-1210.94 543.22-1210.94 1210.94s543.22 1210.94 1210.94 1210.94 1210.94-543.22 1210.94-1210.94c0-161.58-32.05-315.76-89.75-456.82l205.84-205.84c76.27-76.27 76.27-199.94 0-276.23zM5015.7 2802.75c-452.32 0-820.31-367.99-820.31-820.31 0-452.32 367.99-820.31 820.31-820.31 254.59 0 482.48 116.6 633.05 299.2l-469.51 469.51-203.69-203.69c-76.27-76.27-199.94-76.27-276.23 0-76.27 76.27-76.27 199.94 0 276.23l341.8 341.8c38.14 38.14 88.13 57.21 138.11 57.21 49.98 0 99.98-19.06 138.11-57.21l505.9-505.9c8.26 46.52 12.79 94.32 12.79 143.16-.02 452.32-368.01 820.31-820.33 820.31zM2785.7 6593c142.32-173.87 227.89-395.92 227.89-637.62v-346.05c0-555.92-452.27-1008.18-1008.18-1008.18S997.23 5053.42 997.23 5609.33v346.05c0 241.7 85.57 463.75 227.89 637.62-686.67 114.38-1211.9 712.33-1211.9 1430.96v1770.98c0 107.87 87.44 195.31 195.31 195.31h3593.75c107.87 0 195.31-87.44 195.31-195.31V8023.96c0-718.63-525.23-1316.58-1211.89-1430.96zm-1397.85-983.67c0-340.53 277.03-617.56 617.56-617.56s617.56 277.03 617.56 617.56v346.05c0 340.53-277.03 617.56-617.56 617.56s-617.56-277.03-617.56-617.56v-346.05zm2219.12 3990.29H403.85V8023.96c0-584.69 475.68-1060.37 1060.37-1060.37h345.87v492.83c0 107.87 87.44 195.31 195.31 195.31s195.31-87.44 195.31-195.31v-492.83h345.89c584.69 0 1060.37 475.68 1060.37 1060.37v1575.66zM8801.33 6593c142.32-173.87 227.89-395.92 227.89-637.62v-346.05c0-555.92-452.27-1008.18-1008.18-1008.18-555.92 0-1008.18 452.27-1008.18 1008.18v346.05c0 241.7 85.57 463.75 227.89 637.62-686.67 114.38-1211.91 712.33-1211.91 1430.96v1770.98c0 107.87 87.44 195.31 195.31 195.31h3593.76c107.87 0 195.31-87.44 195.31-195.31V8023.96c0-718.63-525.23-1316.58-1211.89-1430.96zm-1397.86-983.67c0-340.53 277.03-617.56 617.56-617.56s617.56 277.03 617.56 617.56v346.05c0 340.53-277.03 617.56-617.56 617.56s-617.56-277.03-617.56-617.56v-346.05zm2219.12 3990.29H6419.47V8023.96c0-584.69 475.68-1060.37 1060.37-1060.37h345.88v492.83c0 107.87 87.44 195.31 195.31 195.31s195.31-87.44 195.31-195.31v-492.83h345.88c584.69 0 1060.37 475.68 1060.37 1060.37v1575.66z"/><path class="fil0" d="M8159.12 8026.19c-36.33-36.33-86.72-57.03-138.09-57.03-51.37 0-101.76 20.7-138.09 57.03s-57.23 86.72-57.23 138.09c0 51.56 20.9 101.76 57.23 138.28 36.33 36.33 86.72 57.03 138.09 57.03 51.37 0 101.76-20.7 138.09-57.03 36.33-36.52 57.23-86.72 57.23-138.28-.01-51.37-20.9-101.57-57.23-138.09zm-6015.63 0c-36.33-36.33-86.72-57.03-138.09-57.03-51.37 0-101.76 20.7-138.09 57.03s-57.23 86.72-57.23 138.09c0 51.56 20.9 101.76 57.23 138.28 36.33 36.33 86.72 57.03 138.09 57.03 51.37 0 101.76-20.7 138.09-57.03 36.33-36.52 57.23-86.72 57.23-138.28 0-51.37-20.9-101.57-57.23-138.09z"/></g></g></svg>