<svg xmlns="http://www.w3.org/2000/svg" width="100mm" height="100mm" viewBox="0 0 10000 10000" shape-rendering="geometricPrecision" text-rendering="geometricPrecision" image-rendering="optimizeQuality" fill-rule="evenodd" clip-rule="evenodd"><path d="M7277.04 7207.71v-35.03h945.9c210.2 0 385.37-175.17 385.37-385.37v-998.46c0-210.2-175.17-385.37-385.37-385.37h-945.9V4370c0-210.2-175.17-385.37-385.37-385.37H4544.42c-87.58 0-157.65 17.52-210.2 70.07-70.07-35.03-140.13-70.07-210.2-70.07H1776.77c-210.2 0-385.37 175.17-385.37 385.37v998.45c0 210.2 175.17 385.37 385.37 385.37l945.9-.01v1068.52l-945.9.01c-210.2 0-385.37 175.17-385.37 385.37v998.46c0 210.2 175.17 385.37 385.37 385.37h945.9v1033.49c0 210.2 175.17 385.37 385.37 385.37H5455.3c87.58 0 157.65-17.52 210.2-70.07 70.07 35.03 140.13 70.07 210.2 70.07h2347.24c210.2 0 385.37-175.17 385.37-385.37v-998.46c0-210.2-175.17-385.37-385.37-385.37h-945.9V7207.71zM4544.42 4317.44h2347.25c17.52 0 35.03 17.52 35.03 35.03v998.45c0 17.52-17.52 35.03-35.03 35.03l-1015.97.01H4561.94c-17.52 0-35.03-17.52-35.03-35.03v-998.45c-17.52-17.52 0-35.04 17.51-35.04zm0 1453.89h893.36c17.52 0 35.03 17.52 35.03 35.03v998.46c0 17.52-17.52 35.03-35.03 35.03l-893.36.01H3108.04c-17.52 0-35.03-17.52-35.03-35.03v-998.46c0-17.52 17.52-35.03 35.03-35.03l1015.98-.01h420.4zm-2767.65-367.85c-17.52 0-35.03-17.52-35.03-35.03V4370c0-17.52 17.52-35.03 35.03-35.03l2347.25-.01c17.52 0 35.03 17.52 35.03 35.03v998.45c0 17.52-17.52 35.03-35.03 35.03l-1015.98.01H1776.77zm0 2872.76c-17.52 0-35.03-17.52-35.03-35.03v-998.46c0-17.52 17.52-35.03 35.03-35.03l1331.27-.01h1015.98c17.52 0 35.03 17.52 35.03 35.03v998.46c0 17.52-17.52 35.03-35.03 35.03l-1015.98.01H1776.77zM5455.3 9712.61H3108.04c-17.52 0-35.03-17.52-35.03-35.03v-998.46c0-17.52 17.52-35.03 35.03-35.03h2329.74c17.52 0 35.03 17.52 35.03 35.03v998.46c17.52 17.52 0 35.03-17.51 35.03zm0-1453.89h-893.36c-17.52 0-35.03-17.52-35.03-35.03v-998.46c0-17.52 17.52-35.03 35.03-35.03l893.36-.01h1436.37c17.52 0 35.03 17.52 35.03 35.03v998.46c0 17.52-17.52 35.03-35.03 35.03l-1015.97.01h-420.4zm2767.64 367.85c17.52 0 35.03 17.52 35.03 35.03v998.46c0 17.52-17.52 35.03-35.03 35.03l-2347.24.01c-17.52 0-35.03-17.52-35.03-35.03v-998.46c0-17.52 17.52-35.03 35.03-35.03l1015.97-.01h1331.27zM6891.67 6839.86H5875.7c-17.52 0-35.03-17.52-35.03-35.03v-998.46c0-17.52 17.52-35.03 35.03-35.03l1015.97-.01h1331.27c17.52 0 35.03 17.52 35.03 35.03v998.46c0 17.52-17.52 35.03-35.03 35.03l-1331.27.01zM5210.06 3476.64l-525.5-2014.43c-17.52-52.55-70.07-105.1-122.62-122.62-52.55-17.52-122.62 0-175.17 52.55l-437.92 420.4v-297.79c0-52.55-17.52-105.1-70.07-140.13l-192.68-157.65c70.07-157.65 35.03-332.82-87.58-455.44l-718.19-648.12c-157.65-140.13-402.89-140.13-543.02 17.52l-35.03 35.03c-140.13 157.65-140.13 402.89 17.52 543.02l718.19 648.12c70.07 70.07 157.65 105.1 262.75 105.1h17.51c35.03 0 70.07-17.52 105.1-17.52l175.17 140.13v560.54l-665.64 665.64c-52.55 35.03-70.07 105.1-52.55 175.17 17.52 70.07 52.55 105.1 122.62 122.62l1979.4 595.57h52.55c52.55 0 87.58-17.52 122.62-52.55 52.54-52.54 70.06-105.1 52.54-175.16zM3353.28 1076.83l-35.03 35.03c-17.52 17.52-35.03 17.52-35.03 17.52s-17.52 0-35.03-17.52l-700.67-648.12c-17.52-17.52-17.52-35.03 0-52.55l35.03-35.03c17.52-17.52 35.03-17.52 52.55 0l718.19 648.12c17.51 17.52 17.51 35.04-.01 52.55zm35.03 1769.2l385.37-385.37L4141.53 2811c35.03 35.03 70.07 52.55 122.62 52.55 52.55 0 87.58-17.52 122.62-52.55 70.07-70.07 70.07-175.17 0-245.24l-367.85-332.82 385.37-385.37 385.37 1418.86-1401.35-420.4z" fill="#00928d"/></svg>