<svg xmlns="http://www.w3.org/2000/svg" width="100mm" height="100mm" viewBox="0 0 10000 10000" shape-rendering="geometricPrecision" text-rendering="geometricPrecision" image-rendering="optimizeQuality" fill-rule="evenodd" clip-rule="evenodd"><defs><style>.fil0{fill:#006463;fill-rule:nonzero}</style></defs><g id="Слой_x0020_1"><g id="_2746705518848"><g id="surface1"><path class="fil0" d="M8002.32 6649.91c348.08 252.73 512.54 998.62 546.76 1265.28l259.57 1958.03 271.22-35.59-259.35-1960.3c-5.47-43.35-142.79-1075.96-656.24-1446.4-172.01-114.97-356.31-210.53-549.74-284.66-11.63-8.91-24.17-15.98-38.1-20.77l-112.9-39.92c-170.63-65.91-348.77-127.51-519.84-180.89l-105.61-36.95c-10.5-3.88-21.22-6.15-32.39-7.29-286.05-90.56-537.2-157.4-671.77-192.53v-299.26c408.53-291.97 651.23-763.24 650.78-1265.29v-230.38c45.62 16.66 93.74 25.31 141.88 26.01 228.33 0 413.32-185 413.32-413.33v-368.61c0-100.14-36.95-196.63-103.33-270.98 44.01-70.27 66.38-151.93 64.55-234.5v-157.39c6.38-114.73-29.89-227.87-101.5-317.97-37.18-38.79-84.86-66.6-137.32-79.62-32.39-373.39-209.63-1469.66-1155.12-1898.04h-8.2C5652.64 52.97 5388.27-3.61 5120.7-7.94h-78.69c-255.93-5.25-510.73 34.9-752.97 118.38h-6.39c-1047 385.03-1235.62 1554.98-1265.28 1942.52-52.7 13.01-100.59 40.61-137.56 79.62-75.04 88.95-114.28 202.32-109.49 318.19v161.96c-2.04 82.57 20.31 163.99 64.11 233.8-65.93 75.04-103.11 171.54-103.11 271.66v369.3c0 228.33 185.23 413.1 413.33 413.1 48.58 0 96.26-8.9 141.65-26.01v231.3c.91 496.36 238.37 962.37 639.37 1254.79v307.25c-483.58 126.15-960.09 279.21-1426.54 459.18h-6.17c-206.67 77.32-403.75 178.37-587.82 300.18-513.45 374.09-650.54 1405.57-656.25 1446.62L989.53 9835.36l271.22 35.13 259.36-1961.45c34.66-265.98 198.67-1010.96 542.41-1265.75a2055.595 2055.595 0 0 1 346.26-185.44V7632.8c-199.8 73.45-451.87 278.98-451.87 712.83v1510.49c0 74.58 60.46 135.48 135.5 135.48h5890.98c75.04 0 135.27-60.9 135.27-135.48V8348.13c0-433.85-253.66-639.14-451.87-712.36V6460.81c117.92 52.01 229.92 115.43 335.53 189.1zm-931.11-3532.85v369.75c-5.93 78.01-74.6 136.41-152.61 130.25-69.34-5.7-124.54-60.91-130.24-130.25v-369.75c-5.94-78.24 52-146.44 130.24-153.05 78.01-6.17 146.68 52.23 152.61 130.24.91 7.53.91 15.29 0 22.81zM5227.22 269.66c164.93 12.55 327.56 48.36 482.89 105.38v686.35c-111.76 160.81-288.09 264.16-482.89 282.85V269.66zm-753.88 67.75c156.93-44.94 319.12-69.8 482.9-74.15v1084.63c-194.81-18.7-371.59-122.25-482.9-283.07V337.41zM3282.88 3485.67c-6.16 78.01-74.83 136.64-152.6 130.24-69.35-5.23-124.55-60.44-130.25-130.24v-368.61c-6.38-78.24 52-146.44 130.25-153.05 77.77-6.17 146.44 52.23 152.6 130.24.68 7.53.68 15.29 0 22.81v368.61zM3141 2703.06c-25.78 0-50.87 2.5-75.74 7.06-20.99-28.05-31.01-63.41-27.37-98.54v-164.22c-1.59-43.12 9.14-85.54 31.71-122.28 5.24-4.32 12.09-5.93 19.17-5.02H3141c74.81 0 135.72-60.9 135.72-135.95 0-63.17 17.78-1265.73 924.72-1737.67v651.22c0 20.08 4.56 39.7 13.23 57.72 9.35 18.93 230.39 470.13 875.91 470.13 645.31 0 867.26-451.88 876.16-470.13 8.2-18.02 12.99-37.64 12.31-57.72V511.67c794.94 507.3 813.87 1611.77 813.87 1672.44 0 75.05 60.9 135.95 135.5 135.95h52.46c13.45 0 16.41 0 18.93 5.02 23.03 37.65 33.75 80.98 31.7 125.24v161.26c3.64 35.59-6.85 71.17-28.96 98.54-132.98-26.23-270.54 15.75-365.89 112.45h-3202.1c-77.78-77.33-183.39-119.75-292.65-118.6l-.91-.91zm413.1 1402.82V3093.79h2964.87v1012.09c-1.15 710.77-577.56 1286.04-1288.1 1285.36h-390.5c-709.86-.24-1285.36-575.27-1286.27-1285.36zm2312.03 1420.16v200.51L5034.7 6789.73l-840.78-1063.18v-206.21c202.78 94.2 423.36 142.79 646.45 143.02h390.5c219.21 0 435.91-46.99 635.26-137.32zm-2455.74 570.5c258.44-78.93 481.07-139.15 596.49-169.26l1029.64 1301.77 1018.03-1301.77c117.01 30.79 343.29 90.33 607.44 172.67v1552.93H3407.43l2.96-1556.34zm4437.5 2251.59V9722.9H2227.91V8348.13c0-409.22 302.91-468.07 335.3-473.77 67.29-9.35 116.79-66.84 116.79-134.35V6347.68c148.96-57.94 307.25-112.93 461-162.64v1603.55c0 75.05 60.67 135.95 135.72 135.95h3525.1c74.81 0 135.71-60.9 135.71-135.95V6187.77l456.43 159.91v1392.33c0 67.75 50.41 125.68 117.48 134.35 13.91 1.82 336.45 50.18 336.45 473.77zm0 0z"/><path class="fil0" d="M2541.78 8177.29h731.97v243.15h-731.97v-243.15zm0 0zm4255.69 0h732.44v243.15h-732.44v-243.15zm0 0z"/></g></g></g></svg>