<svg xmlns="http://www.w3.org/2000/svg" width="100mm" height="100mm" viewBox="0 0 10000 10000" shape-rendering="geometricPrecision" text-rendering="geometricPrecision" image-rendering="optimizeQuality" fill-rule="evenodd" clip-rule="evenodd"><defs><style>.fil0{fill:#006463;fill-rule:nonzero}</style></defs><g id="Слой_x0020_1"><path class="fil0" d="M5025.11 46.06c646.06 0 1143.1 147.25 1523.38 407.73 382.97 262.3 643.28 635.85 814.93 1087.16l68.78 180.84H2618l68.79-180.84c171.65-451.31 431.96-824.86 814.93-1087.16 380.29-260.47 877.33-407.73 1523.39-407.73zM6398.4 673.73C6061.86 443.22 5614.36 312.9 5025.11 312.9s-1036.75 130.31-1373.3 360.83c-282.43 193.45-489.78 460.06-639.62 781.22h4025.83c-149.84-321.16-357.19-587.77-639.62-781.22zm785.7 4956.84c-240.14 463.47-560.9 846.09-935.3 1111.02-366.11 259.05-782.21 405.39-1223.69 405.39-441.49 0-857.58-146.34-1223.7-405.39-374.4-264.93-695.17-647.55-935.3-1111.02l-100.72-194.4h4519.42l-100.71 194.4zm-1088.53 894.22c285.76-202.21 538.4-482.89 743.09-821.78H3211.55c204.69 338.89 457.33 619.57 743.09 821.78 320.93 227.07 684.96 355.36 1070.47 355.36 385.5 0 749.54-128.29 1070.46-355.36zM2844.83 2036.98h4275.81c330.34 0 630.58 135.05 848.14 352.62 217.57 217.57 352.62 517.8 352.62 848.14v675.21c0 330.34-135.05 630.58-352.62 848.14-217.56 217.57-517.8 352.62-848.14 352.62H2844.83c-330.34 0-630.57-135.05-848.14-352.62-217.57-217.56-352.62-517.8-352.62-848.14v-675.21c0-330.34 135.05-630.57 352.62-848.14 217.57-217.57 517.8-352.62 848.14-352.62zm4275.81 266.84H2844.83c-256.68 0-490.14 105.11-659.48 274.44-169.33 169.34-274.44 402.8-274.44 659.48v675.21c0 256.69 105.11 490.15 274.44 659.48 169.34 169.33 402.8 274.44 659.48 274.44h4275.81c256.69 0 490.15-105.11 659.48-274.44 169.33-169.33 274.45-402.79 274.45-659.48v-675.21c0-256.68-105.12-490.14-274.45-659.48-169.33-169.33-402.79-274.44-659.48-274.44zm-4517.1 612.81h934.73v1068.15H2470.12V2916.63h133.42zm667.9 266.84h-534.48v534.48h534.48v-534.48z"/><path class="fil0" d="M280.07 9668.88h9447.74V8489.13l.53-3.12c3.84-145.82-59.91-316.28-170.49-466.03-104.01-140.84-247.6-260.43-413.71-321.57l-2116.8-655.52c-309.9 270.98-625.67 477.49-947.4 618.3-344.57 150.79-695.15 225.61-1051.79 222.98-349.05-2.57-701.9-79.05-1058.57-230.75-334.09-142.11-671.62-350-1012.6-624.69l-1799.03 599.69c-263.45 76.49-478.38 182.83-629.59 328.27-142.59 137.13-229.71 312.79-248.29 535.99v1176.2zm9581.16 266.83H13.24V8489.13l.52-9.9c22.82-296.23 138.85-530.39 330.1-714.32 183.98-176.94 436.08-303.59 740.08-391.86l1929.19-643.07 56.61 46.8c340.94 281.81 675.62 491.98 1004.08 631.68 324.56 138.05 643 207.62 955.38 209.93 318.91 2.33 633.71-65.13 944.43-201.11 313.98-137.41 624.68-345.45 932.11-622.73l56-50.51 2260.82 700.12 5.73 2.08c221.06 79.41 409.42 234.08 543.24 415.31 144 194.98 227.12 424.17 222.66 627.58h.46v1446.58h-133.42z"/></g></svg>