<svg xmlns="http://www.w3.org/2000/svg" version="1.0" width="726.378" height="496.098"><path d="M352.038 165.374l-27.612 22.075 32.998-18.89-5.386-3.185m7.662-.683l-5.69-3.413 7.13-126.303-1.44 129.716m6.22 3.793l111.055 67.665-104.304-71.458-6.751 3.793" fill="#211d1e" stroke-width=".3" stroke-miterlimit="10"/><path d="M339.066 152.175l8.117 4.93L360.99 22.458c.076-.455.455-.834.986-.758.38.076.683.379.683.834l.91 142.537 22.075-12.593L364.48 21.851l-2.352-2.2-2.427 2.276-20.634 130.248m-3.035 3.868l8.572 5.007-110.752 79.423c-.455.152-.531.834-.228 1.138.304.303.759.303.986 0l124.938-69.562-.228 25.413-124.71 46.349-5.006.758 3.338-4.93 103.09-83.596m51.659.304l-8.724 4.93 109.994 82.23c.303.152.455.455.303.759-.151.38-.834.53-1.062.227l-124.558-72.368.152 25.26 123.875 49.08 3.641-.758-.91-3.186-102.711-86.174" fill="#211d1e" stroke-width=".3" stroke-miterlimit="10"/><path d="M202.674 169.394c0-87.767 71.155-158.921 158.922-158.921s158.922 71.154 158.922 158.921c0 87.768-71.155 158.922-158.922 158.922s-158.922-71.154-158.922-158.922zm12.062 0c0-81.091 65.768-146.86 146.86-146.86 81.092 0 146.86 65.769 146.86 146.86 0 81.092-65.768 146.785-146.86 146.785-81.092 0-146.86-65.693-146.86-146.785z" fill="none" stroke="#211d1e" stroke-width="3.224" stroke-miterlimit="3.864"/><path d="M209.88 172.125C208.44 84.13 276.788 17.603 361.9 17.603c87.918.228 154.521 77.679 157.631 155.66 0 85.567-72.823 155.053-157.935 155.053-86.781-.607-149.743-70.548-151.715-156.19zm4.856-.303c0-84.05 62.962-150.122 147.24-150.122 82.684 4.096 151.866 64.706 152.928 149.667 0 83.974-68.272 152.094-152.474 152.094-87.16 0-155.128-73.127-147.694-151.64z" fill="none" stroke="#211d1e" stroke-width=".903" stroke-miterlimit="3.864"/><path d="M49.518 483.824h1.517l24.806-69.637 1.061 62.279v1.138c0 4.627-2.2 6.144-9.633 6.448v2.351c7.206-.683 9.71-.91 13.502-.91 3.717 0 6.296.227 13.427.91v-2.351c-8.04-.531-9.482-1.593-9.558-7.586L83.35 417.6v-1.062c0-4.703 1.821-5.992 9.558-6.523v-2.276c-3.944.227-5.689.38-8.192.38-2.807 0-4.78-.153-10.165-.608l-22.378 62.204-21.999-62.204c-3.944.455-6.22.607-10.013.607-2.58 0-4.4-.152-8.344-.38v2.277c7.813.53 9.634 1.744 9.634 6.675v.91l-2.959 58.866c-.38 5.84-1.745 7.055-9.634 7.586v2.351c6.22-.455 8.572-.683 11.53-.683 2.883 0 5.159.228 11.455.683v-2.351c-7.965-.531-9.634-1.745-9.634-6.676v-.91l2.807-62.28 24.502 69.638" fill="#211d1e" stroke-width=".119" stroke-miterlimit="3.864"/><path d="M128.41 483.596c-10.848 0-15.93-8.647-15.93-27.005h35.273v-.986c0-16.613-7.358-26.095-20.481-26.095-13.73 0-22.15 11.151-22.15 29.433 0 18.206 8.344 28.295 23.06 28.295 11.227 0 18.585-7.131 19.647-19.344h-4.551c-1.366 10.317-6.448 15.702-14.868 15.702zm-15.703-31.253c1.593-12.896 6.6-19.875 14.413-19.875 8.193 0 12.744 6.676 13.503 19.875h-27.916" fill="#211d1e" fill-rule="evenodd" stroke-width=".119" stroke-miterlimit="3.864"/><path d="M156.325 433.151c5.917.228 6.524.683 6.676 5.614v39.673c0 4.703-1.441 5.614-8.42 5.993v1.972c6.068-.607 8.42-.683 11.985-.683 3.641 0 5.993.076 12.062.683v-1.972c-6.98-.38-8.42-1.29-8.42-5.993v-23.516c0-12.516 4.096-20.86 10.468-20.86 2.2 0 3.717 1.289 3.717 2.958v.683l-.38 1.213c0 .304-.075.531-.075.91 0 2.2 1.82 3.945 4.323 3.945 2.807 0 4.552-2.2 4.552-5.462 0-5.158-4.096-8.799-9.71-8.799-6.22 0-11.379 4.096-13.35 10.772l-.077-1.29c-.151-3.641-.303-4.703-.607-8.42l-.227-1.745c-4.552 1.29-8.344 2.124-14.034 2.655v1.67h1.517m80.334-4.704l-2.883 5.841c-3.49-3.49-6.448-4.779-11.227-4.779-13.275 0-22.302 11.834-22.302 29.433 0 16.916 8.8 28.295 22.074 28.295 10.014 0 16.386-6.903 17.751-19.192h-4.703c-1.517 10.62-5.462 15.55-12.744 15.55-9.33 0-14.034-8.344-14.034-24.653 0-16.689 5.386-26.475 14.413-26.475 6.752 0 11.227 4.704 13.351 14.262h2.352v-18.282h-2.048" fill="#211d1e" stroke-width=".119" stroke-miterlimit="3.864"/><path d="M274.056 483.596c-10.847 0-15.854-8.647-15.854-27.005H293.4v-.986c0-16.613-7.358-26.095-20.482-26.095-13.654 0-22.074 11.151-22.074 29.433 0 18.206 8.268 28.295 22.985 28.295 11.303 0 18.66-7.131 19.723-19.344h-4.628c-1.365 10.317-6.372 15.702-14.868 15.702zm-15.626-31.253c1.517-12.896 6.523-19.875 14.413-19.875 8.192 0 12.744 6.676 13.426 19.875h-27.84m94.519 30.343l-1.593-.152c-5.082-.075-5.84-1.29-5.84-7.965v-67.513c-5.083 1.29-9.407 2.124-15.627 2.731v1.593c7.51.152 8.344.683 8.344 6.296v22.606c-3.793-7.434-7.814-10.544-14.489-10.544-12.213 0-20.633 11.758-20.633 28.825 0 16.84 8.572 28.447 20.86 28.447 6.676 0 11.455-3.262 14.717-10.165.228 4.172.607 6.372 1.29 10.165 4.02-1.29 5.765-1.669 11.91-2.503l2.047-.228v-1.593h-.986zm-28.143 1.138c-8.8 0-13.882-9.103-13.882-25.26 0-16.765 4.627-25.489 13.503-25.489 9.027 0 13.882 9.33 13.882 26.323 0 15.778-4.78 24.426-13.503 24.426m60.686-.228c-10.923 0-15.93-8.647-15.93-27.005h35.198v-.986c0-16.613-7.358-26.095-20.482-26.095-13.654 0-22.074 11.151-22.074 29.433 0 18.206 8.268 28.295 22.985 28.295 11.302 0 18.66-7.131 19.723-19.344h-4.552c-1.441 10.317-6.448 15.702-14.868 15.702zm-15.702-31.253c1.517-12.896 6.523-19.875 14.413-19.875 8.192 0 12.744 6.676 13.426 19.875h-27.84" fill="#211d1e" fill-rule="evenodd" stroke-width=".119" stroke-miterlimit="3.864"/><path d="M417.2 487.238l2.73-4.704c4.173 3.035 8.648 4.476 13.807 4.476 10.62 0 18.357-6.903 18.357-16.537 0-6.979-2.958-10.544-11.985-14.11l-5.235-2.123c-10.544-4.248-12.668-6.069-12.668-11.151 0-5.842 5.083-10.393 11.53-10.393 7.359 0 11.303 4.551 12.365 13.958h2.2v-17.675h-1.972l-1.517 4.172c-4.097-2.351-7.358-3.413-11.606-3.413-9.938 0-16.84 6.447-16.84 15.55 0 6.98 2.578 10.09 11.378 13.73l5.613 2.352c11 4.552 12.668 6.069 12.668 11.227 0 6.296-5.537 11.227-12.895 11.227-8.572 0-13.2-4.779-15.551-15.55h-2.352l.076 18.964h1.897m40.128-30.647h29.66v-4.93h-29.66v4.93z" fill="#211d1e" stroke-width=".119" stroke-miterlimit="3.864"/><path d="M545.095 426.93c0-5.84-2.351-11.074-6.447-14.488-3.87-3.186-8.42-4.476-15.855-4.476h-29.508v2.352c8.496.759 9.634 1.669 9.634 7.662v58.107c0 6.144-1.138 6.903-9.634 7.737v2.276h28.75c8.95 0 13.427-1.214 18.13-4.628 5.234-3.944 8.647-10.847 8.647-17.75 0-6.22-2.73-11.986-7.282-15.475-2.579-1.972-4.324-2.655-8.875-3.717 8.04-3.338 12.44-9.407 12.44-17.6zm-34.363-15.626h10.923c10.317 0 14.944 4.855 14.944 15.854 0 5.31-1.365 9.407-4.172 12.441-2.806 3.034-5.993 3.945-12.971 3.945h-8.724v-32.24zm12.213 35.577c6.296 0 10.09 1.138 12.896 3.945 2.807 2.807 4.551 7.813 4.551 13.35 0 11.683-6.6 18.586-17.447 18.586h-4.324c-6.827 0-7.889-.759-7.889-6.448v-29.433h12.213m60.762 36.715c-10.924 0-15.93-8.647-15.93-27.005h35.198v-.986c0-16.613-7.358-26.095-20.482-26.095-13.654 0-22.074 11.151-22.074 29.433 0 18.206 8.268 28.295 23.06 28.295 11.227 0 18.585-7.131 19.647-19.344h-4.551c-1.441 10.317-6.448 15.702-14.868 15.702zm-15.703-31.253c1.518-12.896 6.6-19.875 14.413-19.875 8.193 0 12.744 6.676 13.427 19.875h-27.84m45.439-18.737c3.945.152 4.855.38 5.69 1.062.606.455.834 1.517.91 4.248v39.522c0 4.703-1.366 5.614-8.42 5.993v1.972c6.068-.607 8.42-.683 12.06-.683 3.642 0 5.994.076 12.062.683v-1.972c-6.979-.38-8.42-1.29-8.42-5.993v-27.84c0-10.316 4.703-15.778 13.2-15.778 7.964 0 11.15 4.324 11.15 15.172v28.446c0 4.703-1.441 5.765-8.572 5.993v1.972c5.993-.607 8.345-.683 12.062-.683 3.793 0 6.068.076 12.213.683v-1.972c-7.055-.38-8.42-1.29-8.42-5.993v-28.522c0-4.476-.455-7.89-1.67-10.696-2.35-5.614-8.42-9.482-15.247-9.482-6.372 0-11.227 2.958-15.323 9.027v-1.518c-.227-4.551-.303-5.992-.758-8.799-4.628 1.82-8.269 2.58-14.11 3.565v1.593h1.593M713.65 486.1l2.808-15.93h-1.973c-3.261 10.24-6.6 13.199-14.185 13.199h-15.778l32.998-52.57h-37.702l-2.427 14.414h1.972l.835-1.973c3.11-7.965 5.386-9.71 12.137-9.71h15.096l-32.847 52.57h39.067" fill="#211d1e" fill-rule="evenodd" stroke-width=".119" stroke-miterlimit="3.864"/></svg>