<svg xmlns="http://www.w3.org/2000/svg" width="165.372" height="55"><path fill="#FFF" d="M0 37.401V.072l12.259 13.536 9.443-10.689L24.283 0v37.401H0zm2.947-2.95h18.384V7.789l-9.045 10.249L2.947 7.724v26.727zM88.921 9.745c-.021-.773-.09-.891-.211-.991a.622.622 0 0 0-.412-.15H87.01a.618.618 0 0 0-.416.16c-.12.104-.19.215-.206.332l-1.873 11.181h1.309l.48-2.674.214-1.438h-.004l.034-.188.003-.027.934-5.853.036-.114c.014-.05.051-.076.111-.076h.043c.037 0 .074.029.113.089.023.026.03.063.03.102l.998 6.067H87.31l-.192 1.306h1.889l.523 2.807h1.301l-1.91-10.533zM67.28 26.208a.574.574 0 0 0-.207-.346.643.643 0 0 0-.417-.149h-1.289a.596.596 0 0 0-.414.159.588.588 0 0 0-.21.336l-1.866 11.181h1.3l.485-2.679.218-1.438h-.006l.03-.188.007-.03.934-5.854.036-.113c.014-.046.048-.069.109-.069h.046c.032 0 .076.026.114.087a.17.17 0 0 1 .027.096l1.003 6.072h-1.51l-.194 1.305h1.886l.524 2.812h1.305L67.28 26.208zm30.699 0a.555.555 0 0 0-.207-.346.624.624 0 0 0-.414-.149h-1.289a.578.578 0 0 0-.408.159.566.566 0 0 0-.214.336l-1.872 11.181h1.309l.483-2.679.213-1.438h-.004l.03-.188.004-.03.936-5.854a.724.724 0 0 0 .038-.113c.013-.046.052-.069.111-.069h.038c.041 0 .078.026.117.087a.156.156 0 0 1 .027.096l1.002 6.072h-1.505l-.194 1.305h1.887l.522 2.812h1.308l-1.918-11.182zm44.792 0a.541.541 0 0 0-.209-.346.622.622 0 0 0-.411-.149h-1.289a.587.587 0 0 0-.411.159.571.571 0 0 0-.212.336l-1.868 11.181h1.303l.483-2.679.214-1.438h-.004l.033-.188.004-.03.938-5.854c.006-.025.019-.062.032-.113.017-.046.054-.069.108-.069h.041c.046 0 .084.026.121.087a.156.156 0 0 1 .027.096l1.002 6.072h-1.507l-.192 1.305h1.885l.523 2.812h1.303l-1.914-11.182zM31.139 8.637h2.304l1.242 8.534 1.161-8.534h2.315l.493 11.544h-1.123l-.569-10.607-1.687 10.602h-1.148l-1.88-10.582-.475 10.587h-1.123zm92.209 17.235h2.298l1.243 8.532 1.166-8.532h2.311l.495 11.538h-1.125l-.565-10.603-1.686 10.603h-1.148l-1.881-10.584-.48 10.584h-1.123zm-75.123 6.447a1.886 1.886 0 0 0 1.112-1.705v-2.945c0-.953-.781-1.729-1.731-1.729h-3.19v11.539h3.286c.952 0 1.733-.78 1.733-1.73v-1.705c0-.788-.502-1.469-1.21-1.725m-.087 3.43c0 .261-.162.429-.447.429h-1.979v-8.953h1.894c.276 0 .415.218.415.444v2.978c0 .312-.099.847-.489 1.021H46.5v1.298h1.015c.393.175.622.706.622 1.079v1.704zm12.703-3.43a1.892 1.892 0 0 0 1.111-1.705v-2.945c0-.953-.779-1.729-1.731-1.729h-3.189v11.539h3.291c.953 0 1.729-.78 1.729-1.73v-1.705c0-.788-.505-1.469-1.211-1.725m-.087 3.43c0 .261-.159.429-.45.429h-1.972v-8.953h1.889c.271 0 .418.218.418.444v2.978c0 .312-.101.847-.491 1.021h-1.029v1.298h1.017c.387.175.618.706.618 1.079v1.704zm8.939-20.675a1.865 1.865 0 0 0 1.112-1.699v-2.944c0-.953-.776-1.731-1.729-1.731h-3.192v11.538h3.291c.953 0 1.728-.777 1.728-1.73v-1.7c0-.794-.504-1.47-1.21-1.734m-.088 3.433c0 .261-.157.438-.444.438h-1.977v-8.96h1.892c.273 0 .417.219.417.445v2.971c0 .319-.102.854-.492 1.028h-1.029v1.295h1.017c.387.174.616.706.616 1.082v1.701zm-24.549-.24c0 1.15-.919 2.067-2.061 2.067h-.867a2.058 2.058 0 0 1-2.066-2.067v-7.581c0-1.146.92-2.065 2.066-2.065h.867c1.142 0 2.061.92 2.061 2.065v7.581zm-1.288-7.581c0-.456-.319-.773-.773-.773h-.867c-.46 0-.774.317-.774.773v7.581c0 .46.314.772.774.772h.867c.454 0 .773-.312.773-.772v-7.581zm12.623-.073c.849-1.418 1.715-1.818 2.5-1.905V10c-.175.044-.785.113-1.091.613l-1.878 3.171v.134l2.969 6.272h-1.347l-2.7-5.697h-.793v5.697h-1.275V8.708h1.275v4.507h.793l1.547-2.602zm25.335 0c.839-1.418 1.701-1.818 2.49-1.905V10c-.172.044-.789.113-1.088.613l-1.881 3.171v.134l2.969 6.272h-1.345l-2.7-5.697h-.789v5.697h-1.281V8.708h1.281v4.507h.789l1.555-2.602zm-17.341 7.654c0 1.15-.916 2.067-2.064 2.067h-.862a2.058 2.058 0 0 1-2.067-2.067v-7.581c0-1.146.92-2.065 2.067-2.065h.862c1.148 0 2.064.92 2.064 2.065v7.581zm-1.289-7.581c0-.456-.316-.773-.775-.773h-.862c-.459 0-.775.317-.775.773v7.581c0 .46.316.772.775.772h.862c.459 0 .775-.312.775-.772v-7.581zm12.689 5.02h1.291l.024 2.561c0 1.15-.918 2.067-2.064 2.067h-.861a2.057 2.057 0 0 1-2.066-2.067v-7.581c0-1.146.918-2.066 2.066-2.066h.861c1.146 0 2.064.921 2.064 2.066V12.5h-1.29v-1.814c0-.455-.317-.773-.774-.773h-.861c-.459 0-.776.318-.776.773v7.581c0 .46.317.772.776.772h.861c.746 0 .746-.312.746-.772V16l.003-.294zm-25.782 0h1.291l.027 2.561c0 1.15-.918 2.067-2.065 2.067h-.862a2.056 2.056 0 0 1-2.067-2.067v-7.581c0-1.146.916-2.066 2.067-2.066h.862c1.147 0 2.065.921 2.065 2.066V12.5h-1.293v-1.814c0-.455-.315-.773-.772-.773h-.862c-.46 0-.776.318-.776.773v7.581c0 .46.316.772.776.772h.862c.744 0 .744-.312.744-.772V16l.003-.294zm46.33 4.484h-1.291v-4.979h-.502l-2.025 4.979h-1.321l2.024-4.996a2.053 2.053 0 0 1-1.82-2.053v-2.455c0-1.147.92-1.979 2.064-1.979h2.871V20.19zM93.462 9.999c-.459 0-.775.244-.775.688v2.455c0 .459.316.779.775.779h1.58V9.999h-1.58zm-57.905 15.93V37.41h-1.294V27.2h-2.367v10.21h-1.292V25.929zm5.955 11.481V29.4l-2.944 7.533v.477h-1.287V25.929h1.287v7.995l2.944-7.536v-.459h1.291V37.41zm14.221-1.922a2.06 2.06 0 0 1-2.066 2.067h-.861a2.058 2.058 0 0 1-2.067-2.067v-7.577c0-1.148.915-2.069 2.067-2.069h.861a2.06 2.06 0 0 1 2.066 2.069v7.577zm-1.29-7.577c0-.462-.316-.777-.776-.777h-.861c-.457 0-.775.315-.775.777v7.577c0 .459.318.771.775.771h.861c.46 0 .776-.312.776-.771v-7.577zM86.1 25.929V37.41h-1.291v-4.549h-2.371v4.549h-1.289V25.929h1.289v5.652h2.371v-5.652zm6.526 0V37.41h-1.293v-4.549h-2.369v4.549h-1.293V25.929h1.293v5.652h2.369v-5.652zm57.811 0V37.41h-1.293v-4.549h-2.37v4.549h-1.291V25.929h1.291v5.652h2.37v-5.652zM105.462 37.41h-1.295v-4.977h-.5l-2.026 4.977h-1.322l2.026-4.996a2.054 2.054 0 0 1-1.823-2.05v-2.453c0-1.148.92-1.981 2.067-1.981h2.873v11.48zm-2.873-10.191c-.463 0-.777.246-.777.692v2.453c0 .458.314.776.777.776h1.578v-3.922h-1.578zm10.797.616c.843-1.417 1.705-1.821 2.496-1.905v1.289c-.174.046-.791.117-1.092.616l-1.881 3.176v.13l2.973 6.27h-1.353l-2.694-5.696h-.789v5.696h-1.283V25.93h1.283v4.505h.789l1.551-2.6zm7.987 7.653a2.055 2.055 0 0 1-2.063 2.067h-.859a2.06 2.06 0 0 1-2.068-2.067v-7.577a2.06 2.06 0 0 1 2.068-2.069h.859c1.15 0 2.063.921 2.063 2.069v7.577zm-1.288-7.577c0-.462-.318-.777-.775-.777h-.859c-.459 0-.779.315-.779.777v7.577c0 .459.32.771.779.771h.859c.457 0 .775-.312.775-.771v-7.577zm17.424-1.982V37.41h-1.296V27.2h-2.366v10.21h-1.292V25.929zm18.886 11.481V29.4l-2.947 7.533v.477h-1.291V25.929h1.291v7.995l2.947-7.536v-.459h1.287V37.41zm7.719 0h-1.296v-4.977h-.496l-2.03 4.977h-1.318l2.025-4.996a2.049 2.049 0 0 1-1.822-2.05v-2.453c0-1.148.914-1.981 2.066-1.981h2.871v11.48zm-2.871-10.191c-.462 0-.773.246-.773.692v2.453c0 .458.312.776.773.776h1.575v-3.922h-1.575zm-88.444-1.29h-2.871V37.41h1.288v-4.908h.011v-1.294h-.011v-3.99h1.583c.457 0 .775.246.775.693v2.86c0 .462-.318.779-.775.779h-.636v1.289h.636a2.058 2.058 0 0 0 2.069-2.068v-2.86c0-1.149-.921-1.982-2.069-1.982m4.464 1.215v4.408h2.466v1.295h-2.466v3.241h2.856v1.299h-4.154V25.846h4.154v1.298zM.548 49.624v1.602c0 .181.009.462.172.642.225.237.762.255 1.134.255.343 0 .76-.023 1.097-.052v-2.446h.552v5.218h-.551v-2.304c-.268.015-.829.053-1.144.053-.766 0-1.236-.09-1.49-.321-.298-.268-.319-.706-.319-.997v-1.648h.549zm12.877 2.281v.47h-2.79v1.999h3.141v.469h-3.693v-5.219h3.603v.47h-3.051v1.811zm10.831 1.237c-.059.502-.276.978-.604 1.307-.485.483-1.056.551-1.573.551-.537 0-1.162-.09-1.699-.647-.532-.554-.725-1.38-.725-2.124 0-.727.165-1.569.732-2.127.343-.336.864-.635 1.67-.635.551 0 1.222.149 1.632.553.261.254.477.678.508 1.171h-.559a1.38 1.38 0 0 0-.373-.835c-.209-.218-.568-.419-1.163-.419-.419 0-.86.083-1.245.454-.418.403-.611 1.023-.611 1.755 0 .684.169 1.46.641 1.916.231.229.625.468 1.23.468.565 0 .924-.224 1.125-.41.15-.141.416-.455.454-.978h.56zm5.472-3.049v-.469h4.01v.469H32.01v4.749h-.552v-4.749zm10.504 4.749h-.552v-5.218h.552v2.23h2.803v-2.23h.551v5.218h-.551v-2.52h-2.803zm9.87 0h-.597l1.982-5.218h.619l1.985 5.218h-.605l-.551-1.497h-2.274l-.559 1.497zm2.669-1.968l-.977-2.722-.977 2.722h1.954zm8.82-.179l-1.298 2.146h-.664l1.385-2.199c-.365-.029-.751-.186-.982-.409-.216-.209-.403-.566-.403-1.073 0-.536.195-.888.418-1.104.401-.388.931-.433 1.364-.433h2.117v5.218h-.552v-2.146h-1.385zm-.165-2.602c-.232 0-.651.022-.925.283-.195.179-.307.477-.307.775s.099.575.254.746c.173.179.491.33 1.06.33h1.468v-2.135h-1.55zm16.185 4.749h-.55v-5.218h3.908v5.218h-.554v-4.749h-2.804zm13.451-5.218h.565v5.218h-.552v-4.451l-2.959 4.451h-.567v-5.218h.552v4.43zm9.332-.001c.312 0 .85.023 1.201.374.201.2.341.536.341.931 0 .353-.11.62-.325.843a1.123 1.123 0 0 1-.553.306v.018c.262.035.561.163.76.363.164.165.342.454.342.94 0 .499-.184.811-.371.998-.426.433-1.088.447-1.461.447H98.21v-5.22h2.184zm-1.634 2.274h1.5c.19 0 .604 0 .864-.253a.95.95 0 0 0 .255-.671c0-.299-.112-.5-.234-.618-.192-.189-.528-.263-.842-.263H98.76v1.805zm0 2.477h1.535c.642 0 .901-.166 1.001-.246.253-.209.299-.51.299-.738 0-.456-.18-.694-.344-.814-.285-.201-.836-.208-.961-.208h-1.53v2.006zm10.399-4.28c.314-.306.85-.626 1.678-.626.745 0 1.327.244 1.699.604.464.439.77 1.214.77 2.197 0 1.039-.336 1.738-.77 2.141-.514.484-1.164.589-1.699.589-.582 0-1.193-.126-1.685-.61-.382-.372-.755-1.066-.755-2.154 0-1.038.345-1.732.762-2.141m.387 3.928c.331.336.77.507 1.321.507.617 0 1.015-.239 1.251-.476.516-.509.604-1.337.604-1.88 0-1.134-.49-1.662-.655-1.812-.372-.351-.826-.426-1.214-.426-.478 0-.873.137-1.202.433-.581.531-.669 1.359-.669 1.798-.001 1.066.296 1.59.564 1.856m12.33-4.399c.313 0 .851.023 1.201.374.201.2.342.536.342.931 0 .353-.109.62-.327.843a1.117 1.117 0 0 1-.552.306v.018c.259.035.561.163.76.363.166.165.345.454.345.94 0 .499-.187.811-.373.998-.426.433-1.091.447-1.463.447h-2.118v-5.22h2.185zm-1.633 2.274h1.498c.195 0 .604 0 .865-.253a.96.96 0 0 0 .256-.671c0-.299-.115-.5-.231-.618-.195-.189-.53-.263-.845-.263h-1.543v1.805zm0 2.477h1.535c.643 0 .903-.166 1-.246.252-.209.299-.51.299-.738 0-.456-.18-.694-.345-.814-.28-.201-.833-.208-.959-.208h-1.53v2.006zm9.766.468h-.596l1.983-5.218h.619l1.981 5.218h-.604l-.551-1.497h-2.275l-.557 1.497zm2.671-1.968l-.979-2.722-.976 2.722h1.955zm9.266-3.25c.373 0 .871 0 1.267.343.215.187.469.537.469 1.154 0 .614-.247.963-.426 1.135-.416.396-1.021.41-1.326.41h-1.462v2.176h-.552v-5.218h2.03zm-1.478 2.574h1.366c.28 0 .678-.024.938-.232.178-.143.344-.403.344-.83 0-.41-.174-.7-.357-.841-.238-.18-.607-.202-.925-.202h-1.366v2.105zm9.961 2.644h-.552v-5.218h.552v2.23h2.802v-2.23h.552v5.218h-.552v-2.52h-2.802zm11.748-2.147l-1.298 2.146h-.662l1.386-2.199c-.363-.029-.754-.186-.984-.409-.217-.209-.401-.566-.401-1.073 0-.536.192-.888.416-1.104.401-.388.933-.433 1.364-.433h2.119v5.218h-.555v-2.146h-1.385zm-.163-2.602c-.231 0-.651.022-.925.283-.195.179-.307.477-.307.775s.097.575.252.746c.172.179.494.33 1.061.33h1.467v-2.135h-1.548zM0 44.86h164.114v.472H0z"/></svg>