<svg xmlns="http://www.w3.org/2000/svg" viewBox="0 0 1443.2 595"><linearGradient id="a" gradientUnits="userSpaceOnUse" x1="847.876" y1="-1.767" x2="847.876" y2="207.941" gradientTransform="matrix(1 0 0 -1 0 593.156)"><stop offset="0" stop-color="#d52b1e"/><stop offset=".081" stop-color="#db3719"/><stop offset=".316" stop-color="#eb540e"/><stop offset=".549" stop-color="#f66806"/><stop offset=".778" stop-color="#fd7502"/><stop offset="1" stop-color="#ff7900"/></linearGradient><path d="M847.7 594.9c-25.5 0-47-9.1-62-26.4-13.4-15.4-20.8-38.9-20.8-66.1V478c0-27.2 7.4-50.7 20.8-66.1 15.2-17.5 36.7-26.7 62-26.7 25 0 47.1 9.5 62.2 26.7 13.5 15.4 21 38.9 21 66.1v24.4c0 27.7-7.6 50.9-22 67.2-14.7 16.6-35.8 25.3-61.2 25.3zm0-168.6c-13.1 0-23.1 4.3-29.6 12.6-6.7 8.6-10.1 21.8-10.1 39.1v24.4c0 17.3 3.4 30.4 10.1 38.9 6.5 8.3 16.5 12.5 29.7 12.5 11.3 0 24.4-3.1 32.3-16.4 5.1-8.6 7.8-20.4 7.8-35V478c-.1-25.4-7.9-40.3-19.8-47.1-5.6-3.1-12.5-4.6-20.4-4.6z" fill="url(#a)"/><linearGradient id="b" gradientUnits="userSpaceOnUse" x1="1199.842" y1="-1.811" x2="1199.842" y2="207.898" gradientTransform="matrix(1 0 0 -1 0 593.156)"><stop offset="0" stop-color="#d52b1e"/><stop offset=".081" stop-color="#db3719"/><stop offset=".316" stop-color="#eb540e"/><stop offset=".549" stop-color="#f66806"/><stop offset=".778" stop-color="#fd7502"/><stop offset="1" stop-color="#ff7900"/></linearGradient><path d="M1199.7 595c-25.5 0-47-9.1-62-26.4-13.4-15.4-20.8-38.9-20.8-66.1v-24.4c0-27.2 7.4-50.7 20.8-66.1 15.2-17.5 36.7-26.7 62-26.7 25 0 47.1 9.5 62.2 26.7 13.5 15.4 21 38.9 21 66.1v24.4c0 27.7-7.6 50.9-22 67.2-14.7 16.5-35.9 25.3-61.2 25.3zm0-168.7c-13.1 0-23.1 4.3-29.6 12.6-6.7 8.6-10.1 21.8-10.1 39.1v24.4c0 17.3 3.4 30.4 10.1 38.9 6.5 8.3 16.5 12.5 29.7 12.5 11.3 0 24.4-3.1 32.3-16.4 5.1-8.6 7.8-20.4 7.8-35V478c-.1-25.4-7.9-40.3-19.8-47.1-5.6-3-12.5-4.6-20.4-4.6z" fill="url(#b)"/><linearGradient id="c" gradientUnits="userSpaceOnUse" x1="1023.875" y1="-1.876" x2="1023.875" y2="204.077" gradientTransform="matrix(1 0 0 -1 0 593.156)"><stop offset="0" stop-color="#d52b1e"/><stop offset=".081" stop-color="#db3719"/><stop offset=".316" stop-color="#eb540e"/><stop offset=".549" stop-color="#f66806"/><stop offset=".778" stop-color="#fd7502"/><stop offset="1" stop-color="#ff7900"/></linearGradient><path d="M1114.2 389.1h-44.8L1024 553.7l-45.4-164.6h-44.8L987 570.8c2.8 9.6 8.3 16.4 16.4 20.3 7.3 3.5 15.3 3.9 20.6 3.9 5.4 0 13.3-.4 20.6-3.9 8.1-3.9 13.6-10.7 16.4-20.3l53.2-181.7z" fill="url(#c)"/><linearGradient id="d" gradientUnits="userSpaceOnUse" x1="470.81" y1="-1.826" x2="470.81" y2="207.965" gradientTransform="matrix(1 0 0 -1 0 593.156)"><stop offset="0" stop-color="#d52b1e"/><stop offset=".081" stop-color="#db3719"/><stop offset=".316" stop-color="#eb540e"/><stop offset=".549" stop-color="#f66806"/><stop offset=".778" stop-color="#fd7502"/><stop offset="1" stop-color="#ff7900"/></linearGradient><path d="M552.9 475.3c0-21.4-5-47.3-21.4-65.2-5.9-6.4-15.3-13.5-25.5-18-8.1-3.6-20.6-6.9-33.9-6.9-26.1 0-46.5 8.8-61.1 24.5-14.8 15.9-21.4 37.8-22.4 65v30c0 31.8 8.5 55.7 26.3 71.1 14.6 12.7 38.4 19.1 62.9 19.1 20.4 0 35.2-2.9 54.1-6.5l10.8-2.4v-39l-10.8 1.8c-14.4 2.3-34.2 5.7-54.1 5.7-14.6 0-28.9-3.3-35.1-10.6-6.4-7.4-11.3-17.5-11.5-35.2H532c11.5-.3 20.8-9.7 20.8-21.3v-12.1zm-121.5-3.7c.5-12 .3-21.5 5.3-29.3 1.5-2.7 3.7-5.3 6.4-7.7 3.4-3 7.2-5.1 10.8-6.1 4.8-1.7 10.6-2.3 18.2-2.3 14.9 0 24.5 5.3 29.4 10.9 8.5 9.9 8.8 20.7 9.4 34.4l-79.5.1z" fill="url(#d)"/><linearGradient id="e" gradientUnits="userSpaceOnUse" x1="658.924" y1="2.099" x2="658.924" y2="207.942" gradientTransform="matrix(1 0 0 -1 0 593.156)"><stop offset="0" stop-color="#d52b1e"/><stop offset=".081" stop-color="#db3719"/><stop offset=".316" stop-color="#eb540e"/><stop offset=".549" stop-color="#f66806"/><stop offset=".778" stop-color="#fd7502"/><stop offset="1" stop-color="#ff7900"/></linearGradient><path d="M741.9 478c0-27.2-7.5-50.7-21-66.1-15.1-17.2-37.2-26.7-62.2-26.7-25.3 0-46.8 9.2-62 26.7-13.4 15.4-20.8 38.9-20.8 66.1v113H619V478c0-17.3 3.4-30.5 10.1-39.1 6.5-8.4 16.5-12.5 29.6-12.6 13.1-.1 24 4.8 29.9 12.4 6.7 8.7 10.3 21.6 10.3 39.3v113H742c-.1.1-.1-113-.1-113z" fill="url(#e)"/><linearGradient id="f" gradientUnits="userSpaceOnUse" x1="1371.113" y1="-1.722" x2="1371.113" y2="207.474" gradientTransform="matrix(1 0 0 -1 0 593.156)"><stop offset="0" stop-color="#d52b1e"/><stop offset=".081" stop-color="#db3719"/><stop offset=".316" stop-color="#eb540e"/><stop offset=".549" stop-color="#f66806"/><stop offset=".778" stop-color="#fd7502"/><stop offset="1" stop-color="#ff7900"/></linearGradient><path d="M1400.7 478.7l-35.4-19.5c-16.1-9.2-20.2-15.5-20.2-20.6 0-6.9 2.9-13.6 25.3-13.5 21.5.2 54.2 5.9 54.2 5.9 4.3.7 7.5 1.5 9.7 1.8v-39.1c-.6-.1-4.2-.9-7.3-1.4-18.3-3.3-37.5-6.5-56.7-6.5-21.8 0-38 3.5-49.7 10.6-14.4 8.8-21.7 23-21.7 42.3 0 11.8 3.9 22.7 11.4 32.3 6.4 8.1 15.6 15.6 28.2 23.1l36 19.9c20 11.6 23.6 17.8 23.6 23.6 0 9.4-4.7 17.9-28.6 17.9-19.6 0-66.4-8.7-66.4-8.7v39.7s42 8.6 66.4 8.6c22.2 0 39.8-4.4 52.3-13.1 14.1-9.8 21.2-25.6 21.2-44.9.2-24.2-12.1-41-42.3-58.4z" fill="url(#f)"/><path d="M228.2 130.4c-3.6 0-8.9-.3-13.9-2.7-5.8-2.8-9.7-7.6-11.6-14.3L169.6 0h34.2s17.3 69.9 24.5 96.1L252.7 0h34.1l-33.1 113.4c-2 6.7-5.9 11.6-11.6 14.3-5 2.5-10.3 2.7-13.9 2.7zm0 195.7c3.6 0 8.9.3 13.9 2.7 5.8 2.8 9.7 7.6 11.6 14.3l33.1 113.4h-34.2s-17.3-69.9-24.5-96.1l-24.5 96.1h-34.1l33.2-113.4c2-6.7 5.9-11.6 11.6-14.3 5.1-2.4 10.4-2.7 13.9-2.7zm97.9-97.8c0-3.6.3-8.9 2.7-13.9 2.8-5.8 7.6-9.7 14.3-11.7l113.4-33.1v34.2s-69.9 17.3-96.1 24.5l96.1 24.5V287l-113.4-33.2c-6.7-2-11.6-5.9-14.3-11.6-2.4-5.1-2.7-10.4-2.7-13.9zm-195.7 0c0 3.6-.3 8.9-2.7 13.9-2.8 5.8-7.6 9.7-14.3 11.6L0 286.9v-34.2s69.9-17.3 96.1-24.5L0 203.8v-34.1l113.4 33.2c6.7 2 11.6 5.9 14.3 11.6 2.5 4.9 2.7 10.2 2.7 13.8zm167 69.1c2.5-2.5 6.5-6.1 11.7-7.9 6-2.1 12.2-1.5 18.4 1.9l103.6 56.8-24.1 24.1s-61.6-37.2-85.3-50.7l50.7 85.3-24.1 24.1-56.8-103.7c-3.4-6.1-4-12.3-1.9-18.4 1.8-5 5.3-8.9 7.8-11.5zM159.1 159.1c-2.5 2.5-6.5 6.1-11.7 7.9-6 2.1-12.2 1.5-18.4-1.9L25.4 108.3l24.2-24.1s61.6 37.2 85.3 50.7L84.2 49.5l24.1-24.1L165.1 129c3.4 6.1 4 12.3 1.9 18.4-1.9 5.2-5.4 9.2-7.9 11.7zm-.1 138.3c2.5 2.5 6.1 6.5 7.9 11.7 2.1 6 1.5 12.2-1.9 18.4l-56.8 103.6L84.1 407s37.2-61.6 50.7-85.3l-85.3 50.7-24.1-24.1L129 291.4c6.1-3.4 12.3-4 18.4-1.9 5.2 1.9 9.1 5.4 11.6 7.9zm138.4-138.3c-2.5-2.5-6.1-6.5-7.9-11.7-2.1-6-1.5-12.2 1.9-18.4l56.8-103.6 24.2 24.2s-37.2 61.6-50.7 85.3L407 84.2l24.1 24.1-103.7 56.8c-6.1 3.4-12.3 4-18.4 1.9-5.1-1.8-9.1-5.4-11.6-7.9z" fill="#ff7900"/></svg>