<svg xmlns="http://www.w3.org/2000/svg" width="96mm" height="96mm" viewBox="0 0 9600 9600" shape-rendering="geometricPrecision" text-rendering="geometricPrecision" image-rendering="optimizeQuality" fill-rule="evenodd" clip-rule="evenodd"><g fill="#ff0009"><path d="M279.25 74.18h9213.93v9408.94H84.24V74.18h195.01zm8823.92 390.01H474.25v8628.92h8628.92V464.19z" fill-rule="nonzero"/><path d="M5074.71 5083.78l-188.97-2.58-26.74 143.06-153.89 2.13c.05-51.72 142.08-655.65 176.11-757.1l200.78.46 179.66 754.61-158.37.11c-7.66-26.91-33.88-124.76-28.58-140.69zm-846.22 1568.29c575.76 330.93 1303.57 611.31 1973.3 662.56 341.55 25.42 590.77 12.41 933.79-15.59 84.1-14.7 211.29-18.44 270.58-58.75-24.54-18.19-272.91-11.31-333.16-15-276.4.36-529.69-66.89-793.16-133.88-83.31-21.17-370.84-103.88-400.47-159.04l.79-1137.91 2153.34.74.3-2050.94-2154.6.07-3.23-2154.89-2075.57-3.82 10.47 2158.63-777.46-.81c-119.05-57.59-52.18-826.63-23.84-938.35 43.19-170.23 133.93-402.12 241.38-551.56 51.97-72.27 345.52-387.71 345.53-387.77-510.65 245.16-756.91 470.12-1040.28 932.73-92.29 150.69-125.7 288.78-175.73 449.67-64.78 208.32-86.1 627.76-52.16 859.09 152.59 1040.28 1014.6 2035.82 1900.18 2544.82zm90.4-1427.34l-110.29-.45-140.14-511.72-.08 511.8-133.95.13.05-755.7 213.44.5 114.19 488.08 124.54-488.19 227.17.76-6.64 755.16-141.79-.72-13.35-521.07-133.15 521.42zm600.35-268.39l124.9-.24-63.63-330.97-61.27 331.21zm954.2-355.81l-1.03-131.7 438.28-1.91 2.65 132.05-101.38 1.18-42.9.35-.77 625.78h-156.37l.97-626.04-139.45.29zm-364.11 199.46l78.15 2.12c106.36-29.33 116.44-210.27-76.26-201.16l-1.89 199.04zM3833.85 6733.91c-38.99 14.83-22.3 35.9-22.28 145.18l-.73 1105.71 2068.37-.22.34-631.91c-1.21-35.87-23.18-33.25-45.39-38.99-153.37-8.96-650.52-88.51-829.05-142.66-266.14-80.71-461.84-123.93-731.92-250.94l-333.5-157.92c-24.83-13.05-54.57-39.3-84.94-39.76-50.17-.76-17.93 2.33-20.9 11.51zM2663.7 5795.69l-328.46-411.08c-253-332.71-481.19-878.44-542.99-1299.76-13.79-94.1-4.92-329.25-92.5-343.24-82.34 19.89-66.19 114.21-66.19 323.23l-.7 1731.1 1030.84-.25zm3056.85-916.57c12.14 100.33 106.3 252.26 121.91 345.24l-163.71 1.8c-22.82-64.43-87.19-272.66-116.48-309.71l-51.04-2.68-2.12 310.59-156.18 2.03v-759.52c158.32 0 516.42-62.36 467.16 266.41-13.69 91.37-38.54 98.8-99.54 145.84zm-1987.17-253.99c-160.72-97.5-272.85 48.38-63.18 161.78 107.76 58.27 141.85 107.83 141.63 227.39-.42 235.45-266.85 284.6-432.99 153.27l75.31-121.89c98.33 59.66 217.49 90.67 198.17-73.39-77.51-124.25-292.36-71.82-242.14-359.51 30.52-174.91 302.86-224.06 402.35-102.19l-79.15 114.54z"/></g></svg>