<svg xmlns="http://www.w3.org/2000/svg" style="display:none"><symbol id="001-close-envelope" viewBox="0 0 14 10"><style id="style2">.st0{fill:#030104}</style><g id="g14" transform="translate(0 -2)"><g id="g12"><path class="st0" d="M7 9L5.3 7.5l-5 4.2c.2.2.4.3.7.3h12c.3 0 .5-.1.7-.3l-5-4.2z" id="path4"/><path class="st0" d="M13.7 2.3c-.2-.2-.4-.3-.7-.3H1c-.3 0-.5.1-.7.3L7 8z" id="path6"/><path class="st0" id="polygon8" d="M0 2.9v8.3l4.8-4.1z"/><path class="st0" id="polygon10" d="M9.2 7.1l4.8 4.1V2.9z"/></g></g></symbol><symbol id="001-projection-screen" viewBox="0 0 47 46.999"><path d="M44.595 2.137C44.595.957 43.638 0 42.459 0H5.074c-1.18 0-2.136.957-2.136 2.137 0 .789.432 1.47 1.068 1.84v24.608l2.136-1.953V4.273H41.39v23.499H13.861l-1.954 2.138h1.885l-3.84 14.402a2.135 2.135 0 1 0 4.128 1.1l3.85-14.437h11.671l3.851 14.437a2.137 2.137 0 0 0 4.129-1.1L33.74 29.909h8.72c.59 0 1.067-.478 1.067-1.068V3.977a2.125 2.125 0 0 0 1.068-1.84z"/><path d="M25.369 23.768v-8.011a2.137 2.137 0 0 0-4.272 0v8.011a2.137 2.137 0 1 0 4.272 0zM32.312 23.768V8.278a2.136 2.136 0 0 0-4.272 0v15.49a2.136 2.136 0 1 0 4.272 0zM39.254 23.768V12.551a2.136 2.136 0 1 0-4.273 0v11.217a2.137 2.137 0 1 0 4.273 0zM17.917 19.435a.523.523 0 0 0-.737 0S2.88 32.508 2.811 32.577a1.39 1.39 0 0 0 1.965 1.965c.069-.067 13.141-14.368 13.141-14.368a.524.524 0 0 0 0-.739z"/></symbol><symbol id="001-rich" viewBox="0 0 58 60"><g stroke-width="1.001"><path d="M48.011 32.999c-.668 0-1.336.04-1.995.111a20.088 20.088 0 0 0-5.858-7.214l-7.194-4.894C31.774 20.088 29.9 19 27.724 19h-7.768a8.616 8.616 0 0 0-5.294 1.822l-7.07 5.156c-7.369 5.8-9.701 15.964-5.545 24.169 2 3.947 4.66 6.227 7.493 6.418.27.018.544.028.82.028h19.132C30.94 58.65 33.326 60 36.025 60a7.926 7.926 0 0 0 3.877-1.011c1.737.633 4.755 1.011 8.11 1.011 9.26 0 9.986-2.22 9.988-2.903V37.096c0-2.03-5.041-4.097-9.989-4.097zm-26.97-5c-5.264 0-11.986 7.29-11.986 13a1 1 0 1 1-1.997 0c0-6.869 7.58-15 13.984-15a1 1 0 0 1 0 2zm34.961 11.01v1.853a2.13 2.13 0 0 1-.33.165l-.021.01a5.784 5.784 0 0 1-.5.171l-.055.017a11.21 11.21 0 0 1-.658.17l-.095.022c-.247.055-.518.11-.813.16l-.129.022c-.3.051-.625.098-.973.142l-.146.018c-.357.043-.737.082-1.141.116l-.148.011c-.42.033-.86.06-1.326.08l-.11.002c-.49.018-1.002.03-1.544.03-4.545 0-7.344-.71-7.99-1.137v-1.368c1.104.092 2.268.183 3.373.262 1.24.15 2.747.244 4.617.244.552 0 1.068-.009 1.56-.024.163-.005.31-.014.465-.02.318-.013.631-.027.924-.046.172-.01.33-.025.494-.038a23.853 23.853 0 0 0 1.199-.119 20.837 20.837 0 0 0 1.563-.248c.12-.024.24-.049.353-.075.164-.037.316-.077.464-.116.098-.026.2-.052.291-.079a9.68 9.68 0 0 0 .415-.135c.072-.026.152-.05.221-.076.012-.006.028-.01.04-.015zm-6.431 4.966c.163-.005.31-.014.467-.02.317-.013.631-.027.923-.046.17-.01.328-.025.49-.038.254-.02.506-.04.742-.066.157-.016.306-.035.455-.053a21.306 21.306 0 0 0 1.03-.149c.19-.032.37-.066.542-.1.117-.025.233-.048.343-.073.169-.038.325-.079.477-.12.094-.025.191-.05.279-.076.155-.046.296-.094.434-.142.066-.023.14-.046.202-.07l.048-.016v1.854a2.13 2.13 0 0 1-.33.165l-.021.01a5.784 5.784 0 0 1-.5.171l-.055.017a11.21 11.21 0 0 1-.658.17l-.095.022c-.247.055-.518.11-.813.16l-.129.022c-.3.051-.625.098-.973.142l-.146.018c-.357.043-.737.082-1.141.116-.048.004-.1.007-.148.012-.42.033-.86.06-1.326.079l-.11.003c-.49.018-1.002.03-1.544.03-4.545 0-7.344-.712-7.99-1.138v-1.362c1.295.107 2.666.211 3.928.297 1.263.132 2.643.202 4.062.202.549.003 1.064-.006 1.557-.02zm0 4c.163-.004.31-.013.467-.02.317-.012.631-.026.923-.045.17-.011.328-.025.49-.038.254-.02.506-.041.742-.066.157-.016.306-.035.455-.053a21.306 21.306 0 0 0 1.03-.15c.19-.031.37-.065.542-.1.117-.024.233-.047.343-.072.169-.038.325-.08.477-.12.094-.025.191-.05.279-.076.155-.046.296-.094.434-.142.066-.023.14-.046.202-.07l.048-.016v1.854a2.13 2.13 0 0 1-.33.165l-.021.009a5.784 5.784 0 0 1-.5.172c-.019.006-.036.01-.055.017a11.21 11.21 0 0 1-.658.17l-.095.022c-.247.055-.518.109-.813.16l-.129.022c-.3.05-.625.098-.973.142l-.146.018c-.357.043-.737.082-1.141.116l-.148.01c-.42.034-.86.06-1.326.08l-.11.003a41.098 41.098 0 0 1-2.819.009c-.132-.004-.262-.012-.394-.017a43.94 43.94 0 0 1-.842-.042c-.15-.01-.297-.022-.443-.033a27.438 27.438 0 0 1-1.18-.112c-.064-.007-.125-.016-.188-.024a7.956 7.956 0 0 0-.957-2.085c1.347.203 3.06.334 5.28.334.548.003 1.063-.006 1.556-.021zm0 4c.163-.004.31-.013.467-.02.317-.012.631-.026.923-.045.17-.011.328-.025.49-.038.254-.02.506-.041.742-.066.157-.016.306-.035.455-.053a21.306 21.306 0 0 0 1.03-.15c.19-.031.37-.065.542-.1.117-.024.233-.047.343-.072.169-.038.325-.08.477-.12.094-.025.191-.05.279-.076.155-.046.296-.094.434-.142.066-.023.14-.046.202-.07l.048-.016v1.854a2.13 2.13 0 0 1-.33.165l-.021.009a5.784 5.784 0 0 1-.5.172c-.019.006-.036.01-.055.017a11.21 11.21 0 0 1-.658.17l-.095.022c-.247.055-.518.109-.813.16l-.129.022c-.3.05-.625.098-.973.142l-.146.018c-.357.043-.737.082-1.141.116l-.148.01c-.42.034-.86.06-1.326.08l-.11.003c-.49.018-1.002.03-1.544.03a40.313 40.313 0 0 1-2.327-.071 33.19 33.19 0 0 1-1.744-.143l-.043-.006c.08-.454.12-.913.12-1.372 0-.075-.007-.151-.01-.227.002-.061.01-.12.01-.181 0-.066-.008-.13-.01-.196a37.85 37.85 0 0 0 2.574.16c.405.023.86.036 1.431.036.548.003 1.063-.006 1.556-.021zm6.172-14.979l-.035.015a4.54 4.54 0 0 1-.393.147l-.05.015c-.155.05-.329.1-.522.15l-.057.014c-.202.051-.427.1-.669.15l-.13.025a20.58 20.58 0 0 1-.796.138l-.124.018c-.29.043-.596.083-.922.12l-.06.007a30.676 30.676 0 0 1-1.264.111c-.368.026-.754.047-1.156.062l-.221.007a40.421 40.421 0 0 1-2.663 0l-.221-.007a34.922 34.922 0 0 1-1.157-.062l-.204-.015c-.371-.028-.728-.06-1.06-.096l-.06-.007a26.857 26.857 0 0 1-.921-.12l-.124-.018a20.58 20.58 0 0 1-.797-.138l-.13-.026a16.5 16.5 0 0 1-.668-.149l-.057-.015c-.194-.05-.369-.1-.523-.149l-.05-.015a4.67 4.67 0 0 1-.392-.147l-.035-.015c.926-.705 3.77-1.997 7.731-1.997 3.96 0 6.804 1.292 7.73 1.997zm-24.86 18.07a6.136 6.136 0 0 1-.444-.906l-.024-.066a5.933 5.933 0 0 1-.27-.937l-.01-.066a5.85 5.85 0 0 1-.093-.897c-.001-.041-.006-.082-.006-.124-.003-.303.02-.61.063-.915a5.813 5.813 0 0 1 .212-.961c.007-.027.02-.052.028-.078a5.855 5.855 0 0 1 .335-.801 6.165 6.165 0 0 1 2.421-2.543l.007-.004c.235-.134.483-.247.734-.347l.188-.07a5.73 5.73 0 0 1 .7-.204l.076-.02a6.074 6.074 0 0 1 1.047-.118 5.87 5.87 0 0 1 .86.032c.027.003.053.009.081.012.295.038.586.096.874.179l.027.007c.305.089.604.203.896.342A6.003 6.003 0 0 1 42.022 52c0 3.309-2.688 6-5.993 6a5.992 5.992 0 0 1-5.146-2.933zm25.12 1.797C55.354 57.29 52.553 58 48.01 58c-2.212 0-4.295-.174-5.851-.475a7.939 7.939 0 0 0 1.134-1.802c.09.01.186.019.278.03.15.018.301.033.453.049.265.027.535.052.81.073.159.012.316.025.476.036.297.019.599.034.903.047.143.006.284.014.429.019a43.973 43.973 0 0 0 2.928-.001c.163-.005.31-.014.467-.02.317-.013.631-.027.923-.046.17-.011.328-.025.49-.038.254-.02.506-.041.742-.066.157-.016.306-.035.455-.053a21.306 21.306 0 0 0 1.03-.15c.19-.031.37-.065.542-.1.117-.024.233-.047.343-.072.169-.038.325-.08.477-.12.094-.025.191-.05.279-.076.155-.046.296-.094.434-.142.066-.023.14-.046.202-.07l.048-.016v1.856zM31.03 16.305v-2.307a1 1 0 0 0-.998-1H18.045a1 1 0 0 0 0 2h10.988v1H18.045a1 1 0 0 0 0 2h11.912c.895.747 1.997 1.174 3.175 1.174a4.96 4.96 0 0 0 3.532-1.466 1 1 0 0 0-1.412-1.415c-1.129 1.13-3.086 1.133-4.222.014zM17.101 10.028c.407 1.178 1.503 1.97 2.727 1.97h7.423c1.224 0 2.32-.792 2.727-1.97.387-1.126 1.605-3.645 2.55-4.445a2.992 2.992 0 0 0 1.013-2.842A2.845 2.845 0 0 0 31.615.559c-2.996-.993-5.66-.658-7.69.967a.97.97 0 0 1-1.218 0C20.677-.1 18.01-.434 15.019.559a2.845 2.845 0 0 0-1.927 2.182 2.992 2.992 0 0 0 1.013 2.842c1.068.907 2.707 3.605 2.996 4.445z"/></g></symbol><symbol id="001-robot" viewBox="0 0 512 512"><path d="M421 188.789V87.237C438.422 81.024 451 64.53 451 45c0-24.814-20.186-45-45-45-25.228 0-45 20.577-45 45 0 19.53 12.578 36.024 30 42.237v101.552l-63.252 63.252 34.834 69.668 26.836-13.418-25.166-50.332L406 216.211l41.748 41.748-25.166 50.332 26.836 13.418 34.834-69.668L421 188.789zM142.119 101.514v-.015c-14.333-28.651-45.782-46.655-81.753-40.063C25.386 68.35 0 99.302 0 135c0 40.994 32.924 74.914 75 75 55.536 0 92.047-58.533 67.119-108.486zM90 150H60v-30h30v30zM481 482V360h-60v60h-30v-60h-60v122h-61v-30h-30v-63.749C220.92 407.783 194.392 420 165 420h-.059c-28.896-.064-55.556-11.797-74.941-31.679V452H60v60h452v-30h-31z"/><path d="M232.119 281.499l-39.322-78.635-72.107 26.371C106.859 235.939 93.107 240 75 240h-.059c-11.953-.026-23.45-2.245-34.305-5.989l57.244 114.49c12.774 25.547 38.438 41.44 67.12 41.499 56.149 0 91.62-59.31 67.119-108.501zM363.772 106.906C344.013 93.386 331 70.695 331 45c0-12.059 3.096-23.469 8.286-33.701L133.834 48.164c14.597 9.899 26.843 23.375 35.121 39.917 13.991 28.134 15.007 61.591 1.23 91.232l193.587-72.407z"/></symbol><symbol id="001-world" viewBox="0 0 31.416 31.416"><path d="M28.755 6.968l-.47.149-2.503.223-.707 1.129-.513-.163L22.57 6.51l-.289-.934-.387-.996-1.252-1.123-1.477-.289-.034.676 1.447 1.412.708.834-.796.416-.648-.191-.971-.405.033-.783-1.274-.524-.423 1.841-1.284.291.127 1.027 1.673.322.289-1.641 1.381.204.642.376h1.03l.705 1.412 1.869 1.896-.137.737-1.507-.192-2.604 1.315-1.875 2.249-.244.996h-.673l-1.254-.578-1.218.578.303 1.285.53-.611.932-.029-.065 1.154.772.226.771.866 1.259-.354 1.438.227 1.67.449.834.098 1.414 1.605 2.729 1.605-1.765 3.372-1.863.866-.707 1.927-2.696 1.8-.287 1.038c6.892-1.66 12.019-7.851 12.019-15.253a15.639 15.639 0 0 0-2.66-8.739z"/><path d="M17.515 23.917l-1.144-2.121 1.05-2.188-1.05-.314-1.179-1.184-2.612-.586-.867-1.814v1.077h-.382L9.08 13.735v-2.507L7.43 8.545l-2.62.467H3.045l-.888-.582 1.133-.898-1.13.261a15.61 15.61 0 0 0-2.156 7.916c0 8.673 7.031 15.707 15.705 15.707.668 0 1.323-.059 1.971-.137l-.164-1.903s.721-2.826.721-2.922c-.001-.097-.722-2.537-.722-2.537zM5.84 5.065l2.79-.389 1.286-.705 1.447.417 2.312-.128.792-1.245 1.155.19 2.805-.263.773-.852 1.09-.728 1.542.232.562-.085A15.65 15.65 0 0 0 15.708 0 15.662 15.662 0 0 0 3.596 5.711h.008l2.236-.646zm10.532-3.503l1.604-.883 1.03.595-1.491 1.135-1.424.143-.641-.416.922-.574zm-4.751.129l.708.295.927-.295.505.875-2.14.562-1.029-.602c-.001 0 1.006-.648 1.029-.835z"/></symbol><symbol id="002-business-and-finance" viewBox="0 -63 480 350.00002"><path d="M72 127.91a23.827 23.827 0 0 0 19.684-10.053 23.53 23.53 0 0 0 2.828-21.82l77.175-51.165c9.422 5.764 21.598 4.276 29.336-3.581l71.258 25.767c1.106 9.306 7.606 17.101 16.602 19.91 8.992 2.804 18.805.1 25.066-6.907a23.694 23.694 0 0 0 3.93-25.564l79.433-72.388A23.778 23.778 0 0 0 408-15.273c13.254 0 24-10.685 24-23.863C432-52.315 421.254-63 408-63s-24 10.685-24 23.864a23.545 23.545 0 0 0 2.16 9.776l-79.433 72.387A23.775 23.775 0 0 0 296 40.409c-8.16.023-15.754 4.164-20.152 11l-68.078-24.61c.07-.796.23-1.51.23-2.299C208 11.321 197.254.636 184 .636S160 11.321 160 24.5a23.398 23.398 0 0 0 1.496 8.009L84.312 83.674A23.813 23.813 0 0 0 72 80.182c-13.254 0-24 10.685-24 23.864 0 13.178 10.746 23.863 24 23.863zm0 0"/><path d="M448 271.091V24.501c0-4.394-3.582-7.955-8-7.955h-64c-4.418 0-8 3.561-8 7.954v246.591h-32V119.955c0-4.393-3.582-7.955-8-7.955h-64c-4.418 0-8 3.562-8 7.955V271.09h-32V80.181c0-4.392-3.582-7.954-8-7.954h-64c-4.418 0-8 3.562-8 7.955V271.09h-32V159.727c0-4.393-3.582-7.954-8-7.954H40c-4.418 0-8 3.561-8 7.954v111.364H0V287h480v-15.909zm0 0"/></symbol><symbol id="002-cityscape" viewBox="0 0 512 512"><path d="M51.2 375.468a8.536 8.536 0 0 0-8.533 8.533v17.067a8.536 8.536 0 0 0 8.533 8.533 8.536 8.536 0 0 0 8.533-8.533v-17.067a8.536 8.536 0 0 0-8.533-8.533zM51.2 426.668a8.536 8.536 0 0 0-8.533 8.533v17.067a8.536 8.536 0 0 0 8.533 8.533 8.536 8.536 0 0 0 8.533-8.533v-17.067a8.536 8.536 0 0 0-8.533-8.533zM51.2 324.268a8.536 8.536 0 0 0-8.533 8.533v17.067a8.536 8.536 0 0 0 8.533 8.533 8.536 8.536 0 0 0 8.533-8.533v-17.067a8.536 8.536 0 0 0-8.533-8.533zM85.333 375.468a8.536 8.536 0 0 0-8.533 8.533v17.067c0 4.71 3.823 8.533 8.533 8.533s8.533-3.823 8.533-8.533v-17.067c.001-4.71-3.822-8.533-8.533-8.533zM85.333 324.268a8.536 8.536 0 0 0-8.533 8.533v17.067c0 4.71 3.823 8.533 8.533 8.533s8.533-3.823 8.533-8.533v-17.067c.001-4.71-3.822-8.533-8.533-8.533zM85.333 426.668a8.536 8.536 0 0 0-8.533 8.533v17.067c0 4.71 3.823 8.533 8.533 8.533s8.533-3.823 8.533-8.533v-17.067c.001-4.71-3.822-8.533-8.533-8.533z"/><path d="M494.933 93.867h-17.067v-25.6a8.536 8.536 0 0 0-8.533-8.533h-51.2a8.536 8.536 0 0 0-8.533 8.533v25.6h-17.067A8.536 8.536 0 0 0 384 102.4v136.533h-8.533v-25.6a8.536 8.536 0 0 0-8.533-8.533H358.4v-8.533c0-4.71-3.823-8.533-8.533-8.533s-8.533 3.823-8.533 8.533v8.533H332.8a8.536 8.536 0 0 0-8.533 8.533v25.6h-25.6V68.267a8.536 8.536 0 0 0-8.533-8.533h-25.6v-51.2C264.533 3.823 260.71 0 256 0H153.6a8.536 8.536 0 0 0-8.533 8.533v51.2h-25.6a8.536 8.536 0 0 0-8.533 8.533v221.867H93.867v-25.6A8.536 8.536 0 0 0 85.334 256h-51.2a8.536 8.536 0 0 0-8.533 8.533v25.6h-8.533a8.536 8.536 0 0 0-8.533 8.533v204.8a8.536 8.536 0 0 0 8.533 8.533H494.935a8.536 8.536 0 0 0 8.533-8.533V102.4a8.538 8.538 0 0 0-8.535-8.533zM247.467 102.4A8.536 8.536 0 0 1 256 93.867a8.536 8.536 0 0 1 8.533 8.533v136.533h-17.067V102.4zm-34.134-59.733a8.536 8.536 0 0 1 8.533-8.533 8.536 8.536 0 0 1 8.533 8.533v25.6a8.536 8.536 0 0 1-8.533 8.533 8.536 8.536 0 0 1-8.533-8.533v-25.6zm0 59.733a8.536 8.536 0 0 1 8.533-8.533 8.536 8.536 0 0 1 8.533 8.533v136.533h-17.067V102.4zM179.2 42.667c0-4.71 3.823-8.533 8.533-8.533s8.533 3.823 8.533 8.533v25.6c0 4.71-3.823 8.533-8.533 8.533s-8.533-3.823-8.533-8.533v-25.6zM145.067 102.4a8.536 8.536 0 0 1 8.533-8.533 8.536 8.536 0 0 1 8.533 8.533v187.733h-17.067V102.4zM179.2 477.867h-25.6c-4.71 0-8.533-3.823-8.533-8.533s3.823-8.533 8.533-8.533h25.6v17.066zm0-34.134h-25.6c-4.71 0-8.533-3.823-8.533-8.533s3.823-8.533 8.533-8.533h25.6v17.066zm0-34.133h-25.6a8.536 8.536 0 0 1-8.533-8.533 8.536 8.536 0 0 1 8.533-8.533h25.6V409.6zm0-34.133h-25.6c-4.71 0-8.533-3.823-8.533-8.533s3.823-8.533 8.533-8.533h25.6v17.066zm0-51.2h-59.733a8.536 8.536 0 0 0-8.533 8.533v162.133H25.6V307.2h153.6v17.067zm0-76.8V102.4c0-4.71 3.823-8.533 8.533-8.533s8.533 3.823 8.533 8.533v136.533h-8.533c-4.71 0-8.533 3.823-8.533 8.534zM384 494.933h-17.067V281.6c0-4.71-3.823-8.533-8.533-8.533s-8.533 3.823-8.533 8.533v213.333H332.8V281.6c0-4.71-3.823-8.533-8.533-8.533s-8.533 3.823-8.533 8.533v213.333h-17.067V281.6c0-4.71-3.823-8.533-8.533-8.533s-8.533 3.823-8.533 8.533v213.333h-17.067V281.6a8.536 8.536 0 0 0-8.533-8.533 8.536 8.536 0 0 0-8.533 8.533v213.333H230.4V281.6a8.536 8.536 0 0 0-8.533-8.533 8.536 8.536 0 0 0-8.533 8.533v213.333h-17.067V256H384v238.933zm51.2-32.469c0 4.71-3.823 8.533-8.533 8.533s-8.533-3.823-8.533-8.533v-17.067c0-4.71 3.823-8.533 8.533-8.533s8.533 3.823 8.533 8.533v17.067zm0-51.2c0 4.71-3.823 8.533-8.533 8.533s-8.533-3.823-8.533-8.533v-17.067c0-4.71 3.823-8.533 8.533-8.533s8.533 3.823 8.533 8.533v17.067zm0-51.2c0 4.71-3.823 8.533-8.533 8.533s-8.533-3.823-8.533-8.533v-17.067c0-4.71 3.823-8.533 8.533-8.533s8.533 3.823 8.533 8.533v17.067zm0-51.2c0 4.71-3.823 8.533-8.533 8.533s-8.533-3.823-8.533-8.533v-17.067c0-4.71 3.823-8.533 8.533-8.533s8.533 3.823 8.533 8.533v17.067zm0-51.2c0 4.71-3.823 8.533-8.533 8.533s-8.533-3.823-8.533-8.533v-17.067c0-4.71 3.823-8.533 8.533-8.533s8.533 3.823 8.533 8.533v17.067zm0-51.2c0 4.71-3.823 8.533-8.533 8.533s-8.533-3.823-8.533-8.533v-17.067c0-4.71 3.823-8.533 8.533-8.533s8.533 3.823 8.533 8.533v17.067zm0-51.2c0 4.71-3.823 8.533-8.533 8.533s-8.533-3.823-8.533-8.533v-17.067c0-4.71 3.823-8.533 8.533-8.533s8.533 3.823 8.533 8.533v17.067zm34.133 307.2a8.536 8.536 0 0 1-8.533 8.533 8.536 8.536 0 0 1-8.533-8.533v-17.067a8.536 8.536 0 0 1 8.533-8.533 8.536 8.536 0 0 1 8.533 8.533v17.067zm0-51.2a8.536 8.536 0 0 1-8.533 8.533 8.536 8.536 0 0 1-8.533-8.533v-17.067a8.536 8.536 0 0 1 8.533-8.533 8.536 8.536 0 0 1 8.533 8.533v17.067zm0-51.2a8.536 8.536 0 0 1-8.533 8.533 8.536 8.536 0 0 1-8.533-8.533v-17.067a8.536 8.536 0 0 1 8.533-8.533 8.536 8.536 0 0 1 8.533 8.533v17.067zm0-51.2a8.536 8.536 0 0 1-8.533 8.533 8.536 8.536 0 0 1-8.533-8.533v-17.067a8.536 8.536 0 0 1 8.533-8.533 8.536 8.536 0 0 1 8.533 8.533v17.067zm0-51.2a8.536 8.536 0 0 1-8.533 8.533 8.536 8.536 0 0 1-8.533-8.533v-17.067a8.536 8.536 0 0 1 8.533-8.533 8.536 8.536 0 0 1 8.533 8.533v17.067zm0-51.2a8.536 8.536 0 0 1-8.533 8.533 8.536 8.536 0 0 1-8.533-8.533v-17.067a8.536 8.536 0 0 1 8.533-8.533 8.536 8.536 0 0 1 8.533 8.533v17.067zm0-51.2a8.536 8.536 0 0 1-8.533 8.533 8.536 8.536 0 0 1-8.533-8.533v-17.067a8.536 8.536 0 0 1 8.533-8.533 8.536 8.536 0 0 1 8.533 8.533v17.067z"/></symbol><symbol id="002-hydro-power" viewBox="0 0 408 512"><path d="M320.909 136.686L333.906 0 217.097 191.851h86.332l-15.213 134.308L408 136.686z" stroke-width="1.001"/><path d="M383.134 232.075l-69.628 110.139-69.73 110.299 14.694-129.738 11.433-100.924h-106.14l27.779-45.625 65.566-107.689L199.806 0 46.65 183.188c-66.496 79.535-61.343 196.798 11.873 270.167C97.537 492.452 148.672 512 199.806 512c51.135 0 102.27-19.548 141.284-58.645 59.299-59.423 73.943-147.635 42.044-221.28zM93.824 417.98c-26.563-26.619-42.102-61.99-43.755-99.597-1.652-37.607 10.724-74.21 34.847-103.065l22.948 19.266c-19.305 23.092-29.21 52.383-27.887 82.479 1.323 30.096 13.758 58.402 35.015 79.704z" stroke-width="1.001"/></symbol><symbol id="002-maps-and-flags" viewBox="0 0 370 510"><path d="M185 0C83.02 0 0 82.883 0 184.694 0 311.11 165.542 496.7 172.627 504.47c6.586 7.372 18.16 7.372 24.746 0C204.458 496.601 370 311.111 370 184.694 370 82.884 286.98 0 185 0zm0 277.638c-51.29 0-93.099-41.74-93.099-92.944S133.711 91.749 185 91.749c51.29 0 93.099 41.74 93.099 92.945 0 51.204-41.81 92.944-93.099 92.944z" stroke-width="1.003"/></symbol><symbol id="002-ship" viewBox="0 0 222 286.5"><path d="M108.31 99.209a7.459 7.459 0 0 1 2.69-.143 7.458 7.458 0 0 1 2.688.143l57.08 13.78-6.2-60.653c-.392-3.826-3.608-6.835-7.448-6.835h-14.508V26.2c0-4.143-3.252-7.7-7.387-7.7h-17.57v-11c0-4.143-3.352-7.5-7.488-7.5-4.136 0-7.487 3.357-7.487 7.5v11H86.773c-4.136 0-8.052 3.558-8.052 7.7v19.3H64.876c-3.839 0-7.056 3.009-7.448 6.835l-6.202 60.654zM88.037 66.5h45.922c4.136 0 7.487 3.357 7.487 7.5s-3.351 7.5-7.487 7.5H88.038c-4.136 0-7.487-3.357-7.487-7.5s3.351-7.5 7.487-7.5zm128.499 206.961c-6.388 5.263-15.825 4.4-21.077-1.998l-.086.013c-2.228-2.719-4.924-3.976-7.593-3.976h-.007c-2.676 0-5.375 1.268-7.6 3.991-7.913 9.686-19.12 15-30.764 15.009h-.032c-11.629 0-22.828-5.407-30.73-15.045l-.08.021c-2.228-2.719-4.924-3.976-7.593-3.976h-.007c-2.676 0-5.374 1.268-7.597 3.99-.032.04-.065-.156-.098-.117-7.893 9.604-19.066 15.117-30.67 15.127h-.032c-11.629 0-22.828-5.402-30.73-15.039l-.11-.009c-2.216-2.704-4.91-3.952-7.581-3.952h-.003c-2.674 0-5.37 1.314-7.592 4.031-5.243 6.404-14.677 7.157-21.074 1.905a14.87 14.87 0 0 1-2.086-20.988c7.899-9.65 19.103-14.948 30.739-14.948h.017c11.629 0 22.829 5.28 30.73 14.917l.11-.114c2.215 2.704 4.91 4.196 7.58 4.196h.007c1.113-.001 2.227-.275 3.312-.774L2.835 150.294c-1.182-2.045-1.343-4.708-.435-6.901.931-2.25 2.872-3.867 5.235-4.438l95.044-22.932v121.889c2.995-.571 5.583-.412 8.26-.412h.032c2.707 0 5.683-.158 7.68.423v-121.9l95.376 22.994c2.364.571 4.555 2.251 5.486 4.501.906 2.193.789 4.731-.394 6.776l-73.045 105.45c1.075.489 2.2.756 3.3.756h.007c2.677-.002 5.375-1.268 7.6-3.991 7.913-9.686 19.12-15.009 30.764-15.009h.032c11.63 0 22.828 5.29 30.73 14.927l.08-.138c5.257 6.399 4.338 15.91-2.05 21.172z"/><path d="M108.31 99.209a7.459 7.459 0 0 1 2.69-.143 7.458 7.458 0 0 1 2.688.143l57.08 13.78-6.2-60.653c-.392-3.826-3.608-6.835-7.448-6.835h-14.508V26.2c0-4.143-3.252-7.7-7.387-7.7h-17.57v-11c0-4.143-3.352-7.5-7.488-7.5-4.136 0-7.487 3.357-7.487 7.5v11H86.773c-4.136 0-8.052 3.558-8.052 7.7v19.3H64.876c-3.839 0-7.056 3.009-7.448 6.835l-6.202 60.654zM88.037 66.5h45.922c4.136 0 7.487 3.357 7.487 7.5s-3.351 7.5-7.487 7.5H88.038c-4.136 0-7.487-3.357-7.487-7.5s3.351-7.5 7.487-7.5zm128.499 206.961c-6.388 5.263-15.825 4.4-21.077-1.998l-.086.013c-2.228-2.719-4.924-3.976-7.593-3.976h-.007c-2.676 0-5.375 1.268-7.6 3.991-7.913 9.686-19.12 15-30.764 15.009h-.032c-11.629 0-22.828-5.407-30.73-15.045l-.08.021c-2.228-2.719-4.924-3.976-7.593-3.976h-.007c-2.676 0-5.374 1.268-7.597 3.99-.032.04-.065-.156-.098-.117-7.893 9.604-19.066 15.117-30.67 15.127h-.032c-11.629 0-22.828-5.402-30.73-15.039l-.11-.009c-2.216-2.704-4.91-3.952-7.581-3.952h-.003c-2.674 0-5.37 1.314-7.592 4.031-5.243 6.404-14.677 7.157-21.074 1.905a14.87 14.87 0 0 1-2.086-20.988c7.899-9.65 19.103-14.948 30.739-14.948h.017c11.629 0 22.829 5.28 30.73 14.917l.11-.114c2.215 2.704 4.91 4.196 7.58 4.196h.007c1.113-.001 2.227-.275 3.312-.774L2.835 150.294c-1.182-2.045-1.343-4.708-.435-6.901.931-2.25 2.872-3.867 5.235-4.438l95.044-22.932v121.889c2.995-.571 5.583-.412 8.26-.412h.032c2.707 0 5.683-.158 7.68.423v-121.9l95.376 22.994c2.364.571 4.555 2.251 5.486 4.501.906 2.193.789 4.731-.394 6.776l-73.045 105.45c1.075.489 2.2.756 3.3.756h.007c2.677-.002 5.375-1.268 7.6-3.991 7.913-9.686 19.12-15.009 30.764-15.009h.032c11.63 0 22.828 5.29 30.73 14.927l.08-.138c5.257 6.399 4.338 15.91-2.05 21.172z"/></symbol><symbol id="003-specialist-user" viewBox="0 0 349.667 349.667"><path d="M174.833 197.204c24.125 0 80.846-29.034 80.846-98.603C255.68 44.145 248.329 0 174.833 0c-73.495 0-80.846 44.145-80.846 98.602 0 69.568 56.721 98.602 80.846 98.602zM106.07 82.146c5.679-10.983 17.963-23.675 44.381-23.112 0 0 15.746 38.194 93.05 21.042.312 6.101.41 12.326.41 18.526 0 34.005-15.015 55.075-27.612 66.762-15.872 14.727-33.494 20.072-41.466 20.072-7.972 0-25.594-5.345-41.466-20.072-12.597-11.687-27.612-32.757-27.612-66.762.001-5.501.081-11.021.315-16.456z"/><path d="M324.926 298.327c-4.127-25.665-12.625-58.724-29.668-70.472-11.638-8.024-52.243-29.718-69.582-38.982l-.3-.16a5.666 5.666 0 0 0-6.17.541c-9.083 7.131-19.033 11.937-29.573 14.284a5.669 5.669 0 0 0-4.067 3.521l-10.733 28.291-10.733-28.291a5.669 5.669 0 0 0-4.067-3.521c-10.54-2.347-20.49-7.153-29.573-14.284a5.664 5.664 0 0 0-6.17-.541c-17.133 9.155-58.235 31.291-69.831 39.107-19.619 13.217-28.198 61.052-29.718 70.507a5.674 5.674 0 0 0 .253 2.792c.702 1.982 18.708 48.548 149.839 48.548s149.137-46.566 149.839-48.548a5.664 5.664 0 0 0 .254-2.792zM264.5 282.666l-25.667 8-25.667-8v-13.81H264.5v13.81z"/></symbol><symbol id="003-tv" viewBox="-91 0 330 512.00001"><path d="M116.028 210.824H89.001v-47.789C106.425 156.816 119 140.312 119 120.773c0-24.828-20.183-45.027-44.997-45.027S29 95.946 29 120.773c0 19.54 12.578 36.043 30.002 42.262v47.79H31.976l-60.013 271.16h-32.96V512h269.999v-30.016h-32.965zm.832 142.082l22.487 101.278-92.993-61.688zm-89.194 15.668l20.773-93.55 57.814 49.421zm64.31-127.73l8.745 39.383-44.916-38.395.223-.988zM18.464 410l107.004 71.984H2.703zm0 0M-21.404 212.145c-25.532-25.536-39.598-59.434-39.598-95.461 0-36.028 14.062-69.93 39.598-95.461L-42.618 0C-73.818 31.207-91 72.64-91 116.684c0 44.043 17.181 85.48 48.382 116.683zm0 0M169.408 212.145l21.21 21.222c31.2-31.203 48.382-72.64 48.382-116.683C239 72.64 221.819 31.207 190.618 0l-21.21 21.223c25.532 25.535 39.594 59.433 39.594 95.46 0 36.028-14.062 69.93-39.594 95.462zm0 0"/><path d="M-.209 190.95l21.21-21.223C6.811 155.523-.998 136.69-.998 116.684c0-20.008 7.808-38.84 22-53.028L-.209 42.43C-20.058 62.277-31 88.645-31 116.684c0 28.023 10.928 54.406 30.791 74.265zm0 0M148.209 190.95c19.863-19.86 30.79-46.243 30.79-74.266 0-28.04-10.938-54.407-30.79-74.254l-21.21 21.226C141.193 77.844 149 96.676 149 116.684c0 20.007-7.808 38.84-22.002 53.043zm0 0"/></symbol><symbol id="004-box" viewBox="0 0 420 482"><g stroke-width="1.004"><path d="M227.062 482L420 369.7V145l-171.512 99.8-21.426 12.5zM85.21 158.7L283.406 43.3 209.206 0 10.912 115.4zM321.894 66.3L123.7 181.7l11.308 5.9 74.2 43.2 73.802-42.9 124.393-72.5zM108.72 209.6v54.7l-35.513-18.4v-57.2L0 146.2v223.1l191.55 111.5V257.7z"/></g></symbol><symbol id="005-plane" viewBox="0 0 512 512"><path d="M497.535 14.465c-19.569-19.568-51.395-19.241-70.557.726L322.092 124.488 66.131 39.781 12.4 93.513l213.352 131.365-107.956 112.494-69.231-11.366L0 374.571l101.78 35.649L137.429 512l48.565-48.565-11.366-69.231 112.494-107.955L418.487 499.6l53.732-53.732-84.706-255.961L496.808 85.022c19.968-19.162 20.295-50.988.727-70.557z"/></symbol><symbol id="006-gas" viewBox="0 0 449.99999 369.99999"><g stroke-width="1.009"><path d="M447.039 162.67L206.501 3.248c-9.07-6.011-21.237-3.438-27.172 5.749l-56.515 87.46c-.099-2.047-1.113-4.021-2.936-5.23l-23.266-15.42c-3.023-2.003-7.078-1.145-9.056 1.916l-33.32 51.562c-1.977 3.061-1.13 7.169 1.892 9.172l23.268 15.42c3.022 2.004 7.079 1.147 9.056-1.916l.492-.76 7.3 70.632a6.638 6.638 0 0 0 2.924 4.855l214.598 142.23c3.022 2.004 7.078 1.147 9.057-1.916L448.93 171.843c1.979-3.062 1.132-7.168-1.892-9.172zm-279.675-62.559l34.064-52.714 75.567 50.084zM40.535 189.85c-.931-1.013-2.671-1.013-3.602 0C35.425 191.49 0 230.217 0 251.245c0 21.63 17.376 39.226 38.733 39.226 21.358 0 38.733-17.597 38.733-39.226.001-21.028-35.422-59.755-36.931-61.393z"/></g></symbol><symbol id="007-book" viewBox="0 0 480.00958 480"><path d="M128 104.004v-32a8 8 0 0 0-8-8H8a8 8 0 0 0-8 8v32zm0 0M0 120.004v264h128v-264zm96 104H32a8 8 0 0 1-8-8v-64a8 8 0 0 1 8-8h64a8 8 0 0 1 8 8v64a8 8 0 0 1-8 8zm0 0M0 432.004v40a8 8 0 0 0 8 8h112a8 8 0 0 0 8-8v-40zm0 0M0 400.004h128v16H0zm0 0M144 400.004h104v16H144zm0 0M248 32.004v-24a8 8 0 0 0-8-8h-88a8 8 0 0 0-8 8v24zm0 0M144 88.004h104v296H144zm0 0M144 432.004v40a8 8 0 0 0 8 8h88a8 8 0 0 0 8-8v-40zm0 0M144 48.004h104v24H144zm0 0M263.809 165.668l4.28 16.434 135.485-36.13-4.285-16.433zm0 0M330.664 421.95l135.48-36.13-8.578-32.886-135.488 36.129zm0 0M453.527 337.453l-45.91-176-135.488 36.129 45.91 176zm0 0"/><path d="M259.77 150.188l135.476-36.125-11.484-44.06a8.181 8.181 0 0 0-9.84-5.757l-120 32a8.059 8.059 0 0 0-5.684 9.758zm0 0M470.184 401.3l-135.489 36.13 9.543 36.574a8.026 8.026 0 0 0 3.762 4.883 7.725 7.725 0 0 0 4 1.117c.7 0 1.398-.082 2.078-.238l120-32a8.063 8.063 0 0 0 5.684-9.762zm0 0"/></symbol><symbol id="008-shopping-basket" viewBox="0 0 479.99999 444.99999"><g stroke-width="1.009"><path d="M337.31 117.32h42.078L317.011 9.121C311.985.354 300.85-2.635 292.178 2.546c-8.672 5.081-11.628 16.34-6.504 25.107zM194.523 27.653c5.025-8.768 2.168-20.026-6.504-25.107-8.672-5.081-19.807-2.192-24.833 6.576L100.81 117.419h42.077zM449.058 150.496H30.844C13.796 150.496 0 164.444 0 181.68v34.571c0 17.236 13.796 31.184 30.844 31.184H40.5l29.76 163.093C74.005 429.757 91.349 445 109.382 445H364.41c18.033 0 35.376-15.243 39.121-34.472l29.957-163.193h15.668c17.048 0 30.844-13.948 30.844-31.184V181.58c-.099-17.136-13.894-31.084-30.942-31.084zM170.28 313.489v70.339c0 10.062-8.08 17.634-17.442 17.634-9.953 0-17.442-8.17-17.442-17.634v-98.633c0-10.063 8.08-17.635 17.442-17.635 9.953 0 17.442 8.17 17.442 17.635zm55.972 0v70.339c0 10.062-8.08 17.634-17.442 17.634-9.952 0-17.442-8.17-17.442-17.634v-98.633c0-10.063 8.08-17.635 17.442-17.635s17.442 8.17 17.442 17.635zm56.268 40.848v29.49c0 9.465-7.49 17.635-17.442 17.635-9.361 0-17.442-7.572-17.442-17.634v-98.633c0-9.465 8.08-17.635 17.442-17.635s17.442 7.572 17.442 17.635zm55.972 0v29.49c0 9.465-7.49 17.635-17.442 17.635-9.361 0-17.442-7.572-17.442-17.634v-98.633c0-9.465 7.49-17.635 17.442-17.635 9.362 0 17.442 7.572 17.442 17.635z"/></g></symbol><symbol id="arrow" viewBox="0 0 150 250"><path d="M3.562 116.7L122.182 3.443c4.733-4.59 12.386-4.59 17.119 0l7.15 6.932c4.732 4.589 4.732 12.01 0 16.598L43.437 125l102.912 98.028c4.732 4.589 4.732 12.01 0 16.598l-7.15 6.932c-4.732 4.59-12.385 4.59-17.118 0L3.462 133.3a11.563 11.563 0 0 1 .1-16.598z"/></symbol><symbol id="call-answer" viewBox="0 0 348.1 348.1"><path d="M340.3 275.1l-53.8-53.8c-10.7-10.7-28.4-10.3-39.5.7l-27.1 27.1c-1.7-.9-3.5-1.9-5.3-3-17.1-9.5-40.5-22.5-65.1-47.1-24.7-24.7-37.7-48.1-47.2-65.3-1-1.8-2-3.6-2.9-5.2l18.2-18.1 8.9-8.9c11.1-11.1 11.4-28.8.7-39.5L73.4 8.2C62.7-2.5 45-2.2 33.9 8.9L18.7 24.2l.4.4c-5.1 6.5-9.3 14-12.5 22-2.9 7.7-4.7 15-5.6 22.3-7 58.9 19.9 112.7 92.9 185.6 100.9 100.9 182.2 93.2 185.7 92.9 7.6-.9 15-2.7 22.4-5.6 8-3.1 15.5-7.4 21.9-12.4l.3.3 15.3-15c11.1-11.2 11.5-28.9.8-39.6z"/></symbol><symbol id="case-position" viewBox="0 0 449.353 449.353"><circle cx="224.676" cy="39.729" r="39.184"/><path d="M239.86 88.33c-.185-.005-.37-.01-.555-.013h-29.257c-30.003.564-53.867 25.344-53.303 55.347.003.185.008.37.013.555v8.359c0 4.18 1.567 8.882 6.269 8.882h123.298c4.702 0 6.269-4.702 6.269-8.882v-8.359c.871-29.995-22.739-55.018-52.734-55.889zM54.88 260.725a7.837 7.837 0 0 0 7.837-7.837 161.44 161.44 0 0 1 60.604-126.433 7.314 7.314 0 0 0 1.045-10.971 7.837 7.837 0 0 0-10.971-1.045 177.634 177.634 0 0 0-66.351 138.449 7.836 7.836 0 0 0 7.836 7.837zM276.399 406.488a165.095 165.095 0 0 1-102.922 0 7.838 7.838 0 0 0-9.927 5.224 8.36 8.36 0 0 0 5.224 9.927 181.317 181.317 0 0 0 55.902 8.882 176.074 176.074 0 0 0 56.947-9.404 7.837 7.837 0 0 0-5.224-14.629zM318.094 120.64l.101.069a162.482 162.482 0 0 1 68.441 132.18 7.837 7.837 0 0 0 15.674 0 178.675 178.675 0 0 0-75.233-145.241 8.359 8.359 0 0 0-10.971 2.09 7.834 7.834 0 0 0 1.988 10.902z"/><circle cx="67.941" cy="327.076" r="39.184"/><path d="M83.125 375.677c-.185-.005-.37-.01-.555-.013H53.313C23.31 376.228-.555 401.008.01 431.011c.003.185.008.37.013.555v8.359c0 4.18 1.567 8.882 6.269 8.882H129.59c4.702 0 6.269-4.702 6.269-8.882v-8.359c.872-29.996-22.738-55.018-52.734-55.889z"/><circle cx="381.411" cy="327.076" r="39.184"/><path d="M396.594 375.677c-.185-.005-.37-.01-.555-.013h-29.257c-30.003.564-53.867 25.344-53.303 55.347.003.185.008.37.013.555v8.359c0 4.18 1.567 8.882 6.269 8.882H443.06c4.702 0 6.269-4.702 6.269-8.882v-8.359c.871-29.996-22.739-55.018-52.735-55.889z"/></symbol><symbol id="case-powersupply" viewBox="0 0 50.000002 50.000002"><g stroke-width="1.027"><path d="M20.58 9.981h-.677c-.794 0-1.436.603-1.436 1.348v5.707h3.55V11.33c0-.744-.643-1.348-1.437-1.348zM30.098 9.981h-.678c-.792 0-1.435.603-1.435 1.348v5.707h3.551V11.33c-.002-.744-.644-1.348-1.438-1.348z"/><path d="M25.001 0C11.215 0 0 11.47 0 25.569c0 6.807 2.585 13.212 7.28 18.037 2.78 2.857 6.22 5.028 9.948 6.27.249.085.501.124.749.124 1.013 0 1.956-.66 2.288-1.7.413-1.293-.277-2.683-1.541-3.104a20.201 20.201 0 0 1-8.03-5.065c-3.79-3.895-5.877-9.067-5.877-14.562 0-11.383 9.055-20.644 20.185-20.644 11.13 0 20.185 9.26 20.185 20.644 0 5.516-2.099 10.696-5.908 14.594-1.463 1.342-5.091 4.043-7.271 4.043-1.12 0-1.955-.36-2.635-1.133-1.723-1.963-2.102-5.938-2.085-8.708 4.179-.215 7.505-3.739 7.505-8.065v-7.664H15.208V26.3c0 4.242 3.196 7.715 7.26 8.054-.025 3.3.427 8.708 3.312 12.003 1.591 1.818 3.747 2.776 6.228 2.776 4.658 0 9.961-4.812 10.549-5.358l.077-.075C47.386 38.866 50 32.429 50 25.573 50.002 11.47 38.787 0 25.001 0z"/></g></symbol><symbol id="case-security" viewBox="0 0 289.99999 349.99999"><path d="M289.207 54.684c-59.742 0-105.51-17.063-144.212-54.684C106.297 37.621 60.53 54.684.793 54.684c0 97.973-20.279 238.319 144.2 295.316 164.492-56.996 144.214-197.342 144.214-295.316zM133.048 227.089l-48.043-48.034 21.51-21.503 26.533 26.53 50.43-50.414 21.51 21.503z"/></symbol><symbol id="case-ventilation" viewBox="0 0 512 512"><path d="M256 0C114.615 0 0 114.615 0 256s114.615 256 256 256 256-114.615 256-256C511.835 114.683 397.317.165 256 0zM125.163 306.432a104.022 104.022 0 0 1-66.944-51.691 83.197 83.197 0 0 1-.619-82.922 142.601 142.601 0 0 1 54.208-54.272c39.872-23.019 76.565-21.333 91.328 4.267a100.266 100.266 0 0 1 9.451 48.299 74.156 74.156 0 0 0 5.717 34.432c-28.433 20.518-34.849 60.201-14.331 88.635a63.481 63.481 0 0 0 5.926 7.067 159.333 159.333 0 0 1-84.736 6.185zm228.65 121.493v-.021a83.202 83.202 0 0 1-71.488 42.027 142.593 142.593 0 0 1-74.133-19.797c-39.872-23.061-56.725-55.701-41.984-81.259a100.27 100.27 0 0 1 37.099-32.363 74.656 74.656 0 0 0 26.901-22.059c31.985 14.308 69.514-.022 83.822-32.008a63.36 63.36 0 0 0 3.175-8.781 159.438 159.438 0 0 1 47.893 70.4 104.019 104.019 0 0 1-11.285 83.861zm44.843-150.592a100.274 100.274 0 0 1-46.571-15.957 73.613 73.613 0 0 0-32.768-12.267c-3.247-34.593-33.923-60.005-68.516-56.758a62.816 62.816 0 0 0-10.076 1.782 159.358 159.358 0 0 1 37.013-76.565 104.025 104.025 0 0 1 78.251-32.235 83.2 83.2 0 0 1 72.149 40.896 142.585 142.585 0 0 1 19.861 74.133c.001 46.038-19.839 76.971-49.343 76.971z"/></symbol><symbol id="case-wifi" viewBox="0 0 490.00001 370.00001"><g transform="matrix(1.00143 0 0 1.0004 0 -59.75)" stroke-width=".999"><path d="M79.55 229.675c-10.2 10.2-10.2 26.8 0 37.1 10.2 10.2 26.8 10.2 37.1 0 70.6-70.6 185.5-70.6 256.1 0 5.1 5.1 11.8 7.7 18.5 7.7 6.7 0 13.4-2.6 18.5-7.7 10.2-10.2 10.2-26.8 0-37.1-91-91.1-239.2-91.1-330.2 0z"/><path d="M150.35 300.475c-10.2 10.2-10.2 26.8 0 37.1 10.2 10.2 26.8 10.2 37.1 0 31.5-31.6 82.9-31.6 114.4 0 5.1 5.1 11.8 7.7 18.5 7.7 6.7 0 13.4-2.6 18.5-7.7 10.2-10.2 10.2-26.8 0-37-51.9-52.1-136.5-52.1-188.5-.1z"/><circle cx="244.65" cy="394.675" r="34.9"/><path d="M481.65 157.675c-130.7-130.6-343.3-130.6-474 0-10.2 10.2-10.2 26.8 0 37.1 10.2 10.2 26.8 10.2 37.1 0 110.2-110.3 289.6-110.3 399.9 0 5.1 5.1 11.8 7.7 18.5 7.7 6.7 0 13.4-2.6 18.5-7.7 10.2-10.2 10.2-26.8 0-37.1z"/></g></symbol><symbol id="nuclear-plant" viewBox="0 0 77.999998 77.999998"><path d="M64.341 0h-52.78C11.56 74.922 0 78 0 78h78S64.341 73.659 64.341 0zM46.547 24.651c.444.21.876.443 1.3.684l-5.32 11.618a5.446 5.446 0 0 0-1.233-.82c-1.77-.828-3.737-.611-5.27.373L31.69 24.54c4.574-2.056 9.957-2.19 14.857.111zM27.029 55.037a18.278 18.278 0 0 1-6.145-13.704c0-.499.029-.987.07-1.475h12.638a5.632 5.632 0 0 0-.212 1.475 5.572 5.572 0 0 0 2.543 4.689zm11.807-10.875c-1.557 0-2.83-1.285-2.83-2.863 0-1.577 1.27-2.856 2.83-2.856 1.561 0 2.818 1.28 2.818 2.856 0 1.579-1.26 2.863-2.818 2.863zm12.14 10.875l-8.893-9.015a5.572 5.572 0 0 0 2.546-4.689c0-.513-.078-1-.215-1.475h12.64c.041.488.068.976.068 1.475a18.238 18.238 0 0 1-6.145 13.704z" stroke-width=".995"/></symbol><symbol id="stripes-square" viewBox="0 0 77 77"><path d="M0 0h7v77H0zM14 0h7v77h-7zM28 0h7v77h-7zM42 0h7v77h-7zM56 0h7v77h-7zM70 0h7v77h-7z"/></symbol><symbol id="stripes" viewBox="0 0 77 39"><path d="M0 0h7v39H0zM14 0h7v39h-7zM28 0h7v39h-7zM42 0h7v39h-7zM56 0h7v39h-7zM70 0h7v39h-7z"/></symbol><symbol id="swipe" viewBox="0 0 554.625 554.625"><path d="M478.125 229.5c-11.475 0-21.037 3.825-28.688 9.562 0-26.775-21.037-47.812-47.812-47.812-11.475 0-22.95 3.825-32.513 11.475-7.649-19.125-24.862-30.6-43.987-30.6-11.475 0-21.037 3.825-28.688 9.562V86.062c0-26.775-21.037-47.812-47.812-47.812-22.95 0-42.075 17.212-45.9 38.25H66.938l61.2-61.2L114.75 0 28.688 86.062l86.062 86.062 15.3-15.3-63.112-61.2h133.875v160.65c-38.25-34.425-80.325-61.2-107.1-34.425-38.25 38.25 42.075 112.837 103.275 225.675 43.988 78.412 105.188 107.1 166.388 107.1 89.888 0 162.562-72.675 162.562-162.562v-114.75c0-26.774-21.038-47.812-47.813-47.812zm28.687 89.888v72.675c0 74.588-65.025 143.438-143.438 143.438-72.675 0-114.75-40.162-149.175-95.625-74.588-126.225-128.138-183.6-107.1-204.638 21.038-21.037 72.675 24.863 112.837 66.938V86.062c0-15.3 13.388-28.688 28.688-28.688s28.688 13.388 28.688 28.688v200.812h19.125v-66.938c0-15.3 13.388-28.688 28.688-28.688s28.688 13.388 28.688 28.688v47.812h19.125V239.06c0-15.3 13.388-28.688 28.688-28.688s28.688 13.388 28.688 28.688v47.812h19.125v-9.562c0-15.3 13.388-28.688 28.688-28.688s28.688 13.388 28.688 28.688v42.078z"/></symbol></svg>